<svg width="1096" height="211" fill="none" xmlns="http://www.w3.org/2000/svg"><path d="M0 128.728h45.667c45.666 0 137 0 228.333 6.149 91.333 5.919 182.667 18.562 274 21.435 91.333 2.874 182.667-2.873 274-24.538 91.333-21.436 182.67-58.215 228.33-76.605l45.67-18.39V0H0v128.728z" fill="#fff"/><path d="M877.662 115.905c.21.059.442-.029.499-.149.083-.126-.1-.192-.385-.091-.293.067-.35.187-.114.24zM907.542 115.508c.335-.005.814-.115 1.065-.244.216-.156-.065-.163-.643.005-.586.134-.783.25-.422.239zM922.683 80.62c.415-.023 1.001-.156 1.331-.303.304-.141-.031-.136-.776.034-.719.165-.996.3-.555.27zM952.779 80.533c.21.06.442-.03.499-.15.083-.126-.1-.19-.385-.09-.293.067-.35.187-.114.24zM624.73 158.075c-1.032.629.059.38 1.339-.27.851-.444.862-.518.197-.366-.426.097-1.114.397-1.536.636zM614.307 162.099c.256 1.12.424 1.368.797 1.283 1.092-.25 1.416-.181 1.524.294.155.679-1.083 1.391-1.515.846-.23-.269-.186.293.101 1.549.419 1.833.469 1.928 1.023 1.659.297-.175 1.224-.53 2.045-.86.855-.303 1.645-.769 1.77-1.083.132-.28 1.324-.945 2.654-1.499 2.946-1.209 4.248-2.006 4.148-2.448-.047-.203.044-.295.2-.224.165.105.548-.054.856-.303.379-.3-.31-.25-2.192.215-1.483.375-2.731.553-2.762.417-.031-.136-.263-.047-.483.218-.565.593-1.523.812-1.624.37-.046-.203.136-.388.375-.442.826-.189.04-.438-1.021-.303-.567.094-1.142.154-1.283.15-.441.03.153-.927.949-1.609l.759-.602-.84.37c-.463.178-.817.223-.768.069.041-.188-.286-.149-.724.022-.482.217-.737.204-.704-.018.052-.262-.557-.23-1.747.078l-1.856.46.318 1.391zm3.572 1.291c.1.192-.074.41-.367.477s-.579-.082-.641-.353c-.116-.51.751-.636 1.008-.124zm2.579-.731c.103.083-.38.301-1.027.413-.665.152-1.229.138-1.267-.032-.07-.306 2.056-.684 2.294-.381zm1.758.955c.117.509-.51.831-3.651 1.798-2.091.657-3.03.835-3.092.564-.078-.34.522-.655 2.734-1.518 1.783-.657 3.94-1.149 4.009-.844zM625.627 159.549c-.269.168-.569.451-.663.651-.102.166.191.099.658-.186.467-.285 1.059-.635 1.337-.769.368-.227.333-.255-.172-.14-.373.085-.89.275-1.16.444z" fill="#fff"/><path d="M622.21 161.401c.175.032.495-.042.666-.152.137-.138-.012-.176-.385-.09-.373.085-.491.183-.281.242zM638.605 164.12a.543.543 0 00-.193.508c.062.272 2.374-.399 2.544-.759.095-.201-2.036.036-2.351.251zM648.997 161.925c-1.719.571-3.113 1.211-3.291 1.537a3.208 3.208 0 01-.659.793c-.19.151 1.008-.123 2.662-.608 2.107-.588 3.125-1.035 3.341-1.441.151-.321.69-.658 1.142-.761.48-.11.821-.331.79-.467-.077-.339-.423-.26-3.985.947zM636.542 165.02c.381.198.343.278-.181.434-.373.085-1.156.335-1.753.543-.631.18-1.153.228-1.191.058-.039-.17-.177-.281-.336-.245-.134.031-.205.333-.119.706.178.781 1.369.723 5.142-.175 2.236-.511 2.335-.569.715-.306-1.922.296-2.593.057-1.629-.628.703-.482.446-.994-.38-.806-.586.134-.65.22-.268.419zM616.227 170.409c.152.787.255.871.783.607.403-.199.535-.479.359-.76-.292-.541-.752-.471-.655.078.055.237-.075.16-.294-.183-.352-.562-.371-.522-.193.258zM673.858 158.174c.21.059.442-.029.498-.149.084-.126-.099-.192-.385-.091-.293.067-.35.187-.113.24zM677.486 157.631c.386.34 2.787.185 2.869-.191.049-.154-.221-.235-.568-.156-.372.085-1.088.141-1.59.149-.537-.021-.849.086-.711.198zM646.022 165.319c-.041.188.112.367.356.454.236.053.407-.057.369-.227-.101-.441-.651-.637-.725-.227zM647.801 164.878c-.715.306-.629.929.145 1.003.316.034.602.183.641.353.038.17.328.211.651.03.581-.276 1.87.216 1.54.612-.174.219-2.032 1.036-3.849 1.665-.856.303-1.496 1.056-1.372 1.599.039.17.233.161.423.011.182-.184.391-.125.446.112.046.204.176.282.286.149.102-.166.319-.073.419.119.176.281.283.257.396.017.06-.228.66-.544 1.291-.724.632-.18 1.365-.526 1.638-.803.273-.276.892-.632 1.382-.815.848-.337.848-.337-.225-.128-1.426.255-1.878-.249-.715-.8.653-.328.793-.575.601-.924-.191-.349-.161-.463.128-.422.236.054.424.261.444.471.02.209.69.199 1.602.026 1.225-.28 1.575-.466 1.489-.84-.093-.407-.226-.377-.75.029-.424.347-.752.386-.992.191-.241-.195-.211-.309.135-.388.24-.055.334-.255.215-.407-.126-.185-.716-.193-1.302-.059-1.198.273-1.478-.341-.453-1.004.558-.377-3.071.416-4.214.927zM680.748 157.423c.039.17.546.304 1.128.278.564.014 1.443.063 1.9.102 2.221.278 5.493-.112 8.721-1.064 5.985-1.76 11.631-3.657 12.314-4.099.801-.54-7.211 1.541-10.26 2.666-1.22.421-2.794.888-3.555.99-4.319.594-5.3.711-6.545.781-.742.062-1.591.149-1.857.21-.258.095-.822.081-1.207-.01-.446-.113-.685-.058-.639.146zM734.254 145.771c-3.12 1.427-10.042 3.866-12.678 4.468-1.304.298-2.266.624-2.163.708.111.118.819.027 1.556-.177.852-.194 1.363-.168 1.417.069.046.204.142.254.225.128.049-.154.362-.012.668.347.382.448.479.748.328 1.068-.095.2-2.143 1.168-4.522 2.033-5.128 1.957-5.504 2.15-5.186 2.684.3.575-.241 1.52-.801 1.398-.236-.053-.46.069-.486.325-.01.324-.071.302-.141-.004-.088-.265-.237-.302-.392-.124-.156.178-1.102.573-2.133.844-.996.299-2.57.766-3.46 1.04-1.22.422-1.715.464-2.047.111-.36-.346-.391-.482-.125-.793.405-.557 2.509-1.644 3.548-1.882.479-.109.999-.407 1.166-.659.386-.517-6.661 1.379-8.442 2.286-.627.321-1.224.529-1.346.486-.156-.072-.213.048-.174.218.046.204-.101.416-.341.471-.213.048-.358-.097-.317-.285.161-.644-.165-.355-.535.479-.294.675-.966 1.042-4.334 2.24-2.201.789-3.984 1.446-4.011 1.452 0 0 .02.21.082.481.109.476.497.458.929-.104.128-.173.349-.187.46-.07.237.303.69.2 6.739-1.646 3.095-.922 3.742-1.034 3.827-.66.104.333.15.287.243-.163.09-.342.363-.619.645-.612.247-.02.65-.22.851-.444.318-.323.387-.267.362.239-.052 1.119-.128 1.279-.434.92-.195-.241-.355-.204-.535.23-.178.326-.501.507-.851.444-.324-.069-.75.029-.932.213-.383.409-2.07 1.116-4.724 2.008-.996.299-1.836.669-1.874.749-.196.366 1.342.479 2.224.171.498-.15 2.084-.691 3.498-1.121 1.441-.436 2.68-.898 2.79-1.03.083-.126 1.783-.657 3.772-1.147 2.692-.723 3.646-1.083 3.728-1.459.094-.45.147-.462.24-.055.093.407.173.389.343.029.321-.681.922-.746.867-.127-.013.432.135.469.663.206.377-.193.772-.426.881-.559.084-.126.206-.082.252.122.039.169.748.329 1.566.356 1.63.021 4.539-.608 4.454-.982-.031-.135.254-.236.65-.22.388-.017.666-.152.619-.355-.093-.408-.809-.601-1.661-.406-.453.103-.617-.002-.596-.4.045-.296.23-.588.443-.637.266-.061.303-.391.045-1.153-.24-.803-.237-1.16.093-1.307.403-.199 1.222.935.988 1.381-.049.154-.167.003-.245-.337-.07-.305-.241-.444-.351-.312-.175.218-.101.416.189.707.573.547.832.452.813-.365-.017-.567.226-.73 1.656-1.092.931-.213 2.501-.822 3.451-1.324 4.809-2.492 5.74-2.954 6.592-3.149.532-.121.848-.336.737-.454-.119-.151.078-.268.406-.307.327-.039.609-.032.616.002.008.034.237.053.518.06.256.013.445-.137.399-.341-.039-.169.171-.11.472.107.283.257.763.397 1.056.33.293-.067.503-.008.462.18-.053.262 4.169-.631 6.91-1.507l1.308-.406-1.872.142c-2.942.244-3.039-.306-.276-1.33 1.524-.562 1.269-.575-1.888.074-5.603 1.102-6.439 1.364-7.007 2.065-.175.219-.323.181-.37-.022-.046-.204-.195-.241-.324-.069-.136.138-.399.091-.586-.116-.238-.303-.325-.319-.255-.013.054.237-.033.471-.193.508-.133.03-.225-.127-.184-.315.034-.222-.104-.334-.37-.273-.373.085-.415.024-.212-.559.144-.354.131-.53.003-.357-.349.436-.94-.679-.591-1.115.155-.179.337-.363.409-.415a56.466 56.466 0 012.003-.922c.482-.217 2.307-.813 4.014-1.31 3.503-.978 4.41-1.543 1.455-.868-1.012.231-2.039.394-2.267.375-.202-.025-1.282.4-2.399.905zm-9.706 7.789c-.549.661-5.778 2.177-5.513 1.616.237-.554 1.237-.961 3.838-1.591 1.696-.423 2.031-.428 1.675-.025zm-6.985 4.738c.106-.024-.012-.176-.264-.297s-.344-.278-.219-.343c.16-.036.491-.183.803-.29.463-.177.505-.115.421.618-.067.444-.218.764-.34.721-.156-.072-.197.116-.135.388.07.305.017.567-.142.604-.134.03-.233-.162-.215-.451.017-.29-.204-.525-.547-.554-.659-.064-.696.266-.077.768.653.529.188.456-.587-.116-1.294-.883-.96-1.995.395-1.34.381.198.8.317.907.292zm-13.124 3.498c.024.102-.044.296-.18.434-.11.132-.259.095-.298-.075-.046-.203.048-.404.181-.434.16-.036.282.007.297.075zm10.796-1.18c.126.185.028.243-.209.19-.533-.128-.667-.347-.295-.432.16-.037.377.056.504.242zM747.174 142.499c.255.013.628-.072.799-.183.137-.138-.065-.163-.518-.06-.427.098-.571.202-.281.243zM705.85 152.295c.209.059.441-.029.498-.149.084-.126-.1-.191-.385-.091-.293.067-.35.187-.113.24zM742.007 144.394a5.451 5.451 0 001.464-.335c.384-.159.023-.148-.776.035-.799.182-1.129.329-.688.3zM617.066 173.933c.124.543.224.735.226.377-.017-.318-.125-.793-.233-1.018-.126-.186-.125.064.007.641zM671.275 161.336c.046.204.404.3.838.237 3.051-.626 3.881-.672 4.381-.322.431.294 1.261.247 2.938-.136 1.278-.292 2.293-.631 2.254-.8-.031-.136-.161-.214-.32-.177-.133.03-.313-.143-.375-.415-.062-.271-.329-.46-.561-.371-.266.061-2.446.451-4.854.823-3.234.56-4.371.855-4.301 1.161zM628.378 171.705c.243.695.667.955.519.31-.069-.305-.246-.586-.402-.658-.164-.105-.206.083-.117.348zM655.891 165.1c.389-.017 1.146-.011 1.675-.025.891-.025.933.037.6.542-.397.59-.644.611 7.15-.955 2.438-.486 3.87-1.206 4.163-2.13.166-.502.272-.526.791-.216.328.211.477.248.316.035-.153-.179-.135-.469.002-.608.163-.144-1.363.169-3.389.739-2.035.536-3.803 1.011-3.963 1.048-6.17 1.195-7.9 1.59-7.345 1.57zm11.614-2.259c-.171.11-.544.195-.799.182-.289-.041-.145-.145.281-.243.452-.103.654-.078.518.061zM624.193 172.877c-.896.49-.801.54.721.335.761-.103 1.118-.256 1.011-.481-.242-.445-.79-.391-1.732.146zM626.293 172.397c-.033.222.098.549.304.716.275.223.332.103.208-.44-.186-.815-.35-.92-.512-.276zM627.689 172.113c.196.241.123.294-.201.225-.289-.041-.468.035-.429.205.046.204.317.285.61.218.293-.067.479-.36.417-.631-.062-.272-.25-.479-.41-.442-.133.03-.148.212.013.425zM706.326 154.115c-2.596 1.021-2.854 1.366-.432.563a215.858 215.858 0 016.426-1.79c2.434-.627 4.506-1.243 4.563-1.363.143-.355-8.391 1.773-10.557 2.59zM635.446 170.878c-.589.242-.736.454-.545.803.135.219.306.359.39.232.091-.092 1.106-.431 2.269-.732 2.328-.603 3.061-.95 2.763-1.274-.28-.365-1.542-.005-1.457.368.054.238-.052.262-.312.107-.484-.282-1.621.013-2.061.542-.2.225-.261.203-.183-.065.053-.262.075-.41.029-.364-.053.012-.429.205-.893.383zM653.966 167.11c-.307.249-.303.391-.063.336.213-.049.608-.282.862-.518.307-.249.303-.391.063-.336-.213.048-.608.282-.862.518zM701.626 156.224c-.372.335-.383.409-.01.324.248-.021.502-.257.543-.445.102-.416.102-.416-.533.121zM689.346 159.851c-.044.546-.321.681-2.482 1.031-1.32.23-2.396.548-2.373.65.031.135 1.379.149 3.023-.012 5.99-.512 11.244-2.283 11.336-3.84.029-.364-.074-.447-.389-.232-.865.626-3.583 1.604-3.512 1.302.041-.188-.233-.161-.602.066-.394.233-.877.45-1.124.471-.91.065-3.017.653-3.199.838-.083.126-.262-.047-.386-.341-.211-.558-.238-.552-.292.067zM699.377 157.417c-.033.222.169.247.473.106.752-.386.869-.734.176-.576-.293.067-.581.276-.649.47zM807.559 133.133c-.744.42-.744.42.18.173.532-.122 1.115-.147 1.332-.054.217.093.358.097.335-.005-.101-.442-1.182-.516-1.847-.114zM810.29 132.831c-.041.188.104.333.317.284.24-.055.388-.267.349-.437-.046-.203-.184-.315-.317-.284-.16.036-.316.215-.349.437zM767.396 146.129c-.057.121-.681.334-3.931 1.434-1.015.339-.256.594 1.475.449 1.926-.154 7.711-1.44 8.874-1.991a48.636 48.636 0 012.976-1.073c2.209-.755 2.93-1.277 2.072-1.474-.27-.081-.441.03-.394.233.046.204-.079.268-.304.141-.374-.164-10.636 2.001-10.768 2.281zM677.04 167.197c-1.498.557-2.424 1.161-3.823 2.516-1.028 1.021-1.816 1.986-1.761 2.224.054.238.264.297.533.128.262-.203.221-.015-.096.558-.288.458-.636.895-.796.932-.16.036-.246.27-.184.542.131.577 1.496.051 2.729-1.052 1.024-.913.898-.848 1.867-1.391.448-.245.74-.562.629-.679-.119-.152.349-.437 1.044-.703.669-.26 1.661-.701 2.223-.937.555-.269 1.33-.553 1.749-.685.399-.091.695-.266.672-.368-.023-.101.566-.343 1.285-.507.745-.171 1.292-.474 1.227-.638-.073-.197-.203-.275-.321-.177-.125.065-.255-.013-.294-.182-.038-.17.314-.465.736-.704.627-.322.943-.287 1.283.1.444.47.47.464.346-.08-.069-.305.021-.647.207-.69.152-.07-.145-.145-.674-.131-1.356-.048-6.175 1.053-8.581 1.924zm1.421 1.068c.131.577-.483 1.075-1.898 1.505-2.445.702-1.167-.697 1.516-1.703.16-.037.343.029.382.198zM815.423 135.443c-.018.04-2.037.644-4.517 1.318-5.475 1.536-7.281 2.091-12.452 3.737-2.224.687-5.228 1.516-6.655 1.77-1.453.261-2.609.596-2.578.732.031.136.321.177.667.098.346-.08 1.895-.041 3.46.066 2.506.178 3.408.079 8.272-1.068 6.515-1.524 10.074-2.623 12.422-3.873.277-.135 1.436-.578 2.584-.948 4.825-1.566 5.84-1.905 7.911-2.771 2.516-1.003 3.1-1.637 1.228-1.245-.718.164-3.343.692-5.8 1.218-2.492.498-4.515.96-4.542.966zM686.893 165.305c.118.151.29.29.37.272.054-.012.068-.194.029-.364-.046-.203-.21-.309-.37-.272-.134.03-.156.178-.029.364zM688.386 165.105c.062.271.283.506.52.559.297.075.32-.073.131-.53-.33-.71-.814-.742-.651-.029zM829.36 132.796c.118.151.442.22.735.153.266-.06.475-.251.436-.421-.039-.169-.363-.238-.735-.153-.347.079-.555.27-.436.421zM830.823 132.57c.054.237 1.173.232 1.225-.03.049-.154-.221-.235-.602-.184-.354.045-.639.146-.623.214zM839.708 130.645c-.361.261-.274.885.072.805.133-.03.239-.304.283-.6.018-.29-.009-.533-.028-.493-.027.006-.19.15-.327.288zM838.666 131.349c.039.17.211.309.371.273.133-.031.148-.213.029-.364-.126-.186-.291-.291-.371-.273-.053.012-.075.16-.029.364zM841.276 130.895c-.029.364.075.448.283.257.19-.15.25-.378.132-.53-.28-.365-.379-.306-.415.273zM842.601 130.806c-.041.188.051.345.184.315.16-.037.254-.237.216-.407-.047-.203-.131-.327-.185-.315-.08.018-.182.185-.215.407zM633.848 178.992c-.467.285-.895.74-.963.934-.079.268-.159.287-.229-.019-.069-.305-.21-.309-.476.002-.227.23-1.108.789-1.993 1.205-1.174.625-1.519.954-1.381 1.315.27.689.963.781.808.102-.163-.713.228-1.088.845-.836.287.149.739.045 1.001-.157.288-.209 1.135-.795 1.909-1.329.748-.528 1.347-1.094 1.316-1.23-.038-.169.114-.24.35-.187.236.054.46-.069.494-.291.119-.456-.512-.276-1.681.491zM844.012 130.841c.119.152.291.291.371.273.053-.012.068-.194.029-.364-.046-.204-.211-.309-.371-.273-.133.031-.155.179-.029.364zM844.677 130.689c.047.204.264.297.477.249.213-.049.384-.16.369-.228-.016-.067-.233-.161-.477-.248-.237-.053-.408.058-.369.227zM846.673 130.233c-.041.188.051.346.184.315.16-.036.255-.236.216-.406-.047-.204-.131-.327-.184-.315-.08.018-.182.184-.216.406zM958.484 106.728c.21.059.442-.03.499-.15.083-.126-.1-.191-.385-.09-.293.067-.35.187-.114.24zM959.963 106.712c.086.373.189.457.207.167.025-.256-.071-.555-.174-.639-.111-.118-.145.104-.033.472zM626.026 183.6c-.466.535-.405.557.728.369 1.073-.209 1.145-.261.698-.624-.592-.507-.778-.465-1.426.255zM748.096 155.859c-.045.046-.829.296-1.779.549-1.537.387-1.727.537-2.175 1.64-.268.668-.368 1.334-.249 1.485.119.152 1.245-.07 2.606-.488 1.3-.44 3.258-1.066 4.326-1.417 1.069-.351 2.558-.941 3.265-1.281.726-.38 1.456-.618 1.612-.547.164.105.335-.005.376-.193.049-.154.87-.484 1.836-.669.959-.219 1.715-.464 1.676-.633-.031-.136.132-.281.345-.329.4-.091.439-.779.051-.762-.982.117-9.392 1.931-8.802 1.939.838-.012 1.098.392.503.85-.589.491-2.449.809-2.534.436-.047-.204.189-.4.508-.473.852-.195.177-.576-.736-.404-.426.098-.818.223-.829.297zM838.202 135.454c-.262.203-.494.292-.525.156-.023-.102-.205.083-.39.375-.178.326-.303.391-.243.163.074-.41-1.15-.131-3.8.903-1.927.762-1.9.756-2.028 1.178-.184.542-.072.909.274.83.133-.03.14-.246-.021-.459-.195-.242-.107-.226.255.013.39.232 1.836.188 4.404-.221 3.983-.588 5.166-.93 2.331-.71-1.705.139-2.418-.162-1.671-.69 1.143-.761 6.556-1.712 10.021-1.754 1.869-.034 6.788-.693 6.54-.922-.233-.161-2.334-.038-3.825.302-.913.173-1.149.12-1.109-.318.029-.364-.108-.475-.466-.322-.277.135-.539.337-.622.463-.057.121-.54.088-1.063-.114-1.944-.663-2.032-.679-1.954-.339.054.237-.098.308-.498.149-.347-.17-.853-.055-1.339.27-.414.274-.787.359-.825.189-.078-.339-2.778.349-3.446.858zM760.555 153.621c.078.339.474.356 1.398.109 1.536-.387 1.371-.742-.315-.642-.883.058-1.16.193-1.083.533zM670.077 175.074c-.173.469-.457.819-.613.748-.122-.044-.434.063-.643.254-.208.19-.577.417-.808.506-.259.095-.57.451-.766.818-.245.52-.443.636-.939.428-.339-.137-.533-.128-.38.051.119.152-.245.521-.853.802-.582.276-.916.531-.74.562.183.066 1.019-.197 1.825-.595.813-.364 1.558-.535 1.65-.377.184.315 1.186-.45 1.636-1.302.196-.367.586-.991.854-1.41.269-.418.415-.88.316-1.072-.1-.191-.347.079-.539.587z" fill="#fff"/><path d="M842.033 136.543c.176.031.495-.042.666-.152.137-.139-.012-.176-.385-.091-.373.085-.491.184-.281.243zM854.31 134.239c-.353.295-.231.339.542.162.54-.087.977-.259.961-.327-.069-.305-1.078-.182-1.503.165z" fill="#fff"/><path d="M867.091 131.285c-1.282.399-4.301 1.161-6.671 1.702-2.396.547-4.316 1.093-4.285 1.229.039.169.328.21.682.165.966-.185 2.208-.147 2.703.061 1.488.625-6.709 2.39-12.118 2.626-4.552.182-4.993.462-.862.518.845.021 3.993-.055 5.15-.141 7.582-.41 10.709-.946 11.463-1.939.303-.391 1.013-.839 1.617-1.013.605-.174 1.167-.409 1.277-.542.906-1.063 9.01-2.986 12.064-2.862.396.016 1.648-.02 2.779-.099 1.138-.046 2.637-.103 3.342-.085.906.043 1.351-.095 1.555-.427.25-.378.276-.385.186-.043-.063.336.101.442.535.378.354-.045.928-.105 1.282-.15.381-.051.813-.364.964-.684.291-.567.257-.595-.096-.3-.262.203-.464.178-.518-.06-.047-.204-.15-.287-.199-.133-.056.12-.414.023-.758-.255-.913-.685-9.044-.47-8.881.243.039.169.31.25.576.189.293-.066.643-.004.77.182.153.179-.242.412-.961.576-.666.152-1.264.11-1.302-.059-.047-.204.108-.382.321-.431.213-.049.369-.227.33-.397-.147-.645-6.425.325-10.945 1.751zm8.324-1.33c1.401.001 1.437.528.053.845-1.358.31-2.413.229-2.506-.178-.077-.339.953-.611 2.453-.667z" fill="#fff"/><path d="M841.872 137.652c.255.013.681-.085.932-.213.216-.157-.012-.176-.518-.06-.506.115-.704.232-.414.273zM663.139 179.909c.175.031.495-.042.666-.152.136-.138-.012-.176-.385-.091-.373.086-.491.184-.281.243zM683.085 176.852a.49.49 0 00.258.512c.156.072.258-.094.196-.366-.139-.611-.322-.676-.454-.146zM674.594 179.542c-.258.344-.242.412.21.309.293-.067.68-.334.855-.553.257-.344.241-.412-.211-.309-.293.067-.68.334-.854.553zM793.563 152.795c-.675.725-.686.799-.183 1.041.634.32.972.207.666-.152-.153-.179-.159-.571-.061-.879.26-.702.18-.684-.422-.01zM794.496 153.082c-.018.29.039.419.149.287.11-.132.312-.107.465.072.119.152.53.237.903.151.399-.091.581-.275.42-.489-.153-.179-.408-.192-.597-.042-.19.151-.365.12-.396-.016-.125-.543-.901-.509-.944.037zM715.601 172.174c.15.288.3.575.315.643.016.068.271.081.564.014.665-.152.568-.701-.206-1.025-.828-.311-1.006-.234-.673.368zM717.183 172.206c.054.238.393.374.74.295.346-.079.698-.374.804-.648.162-.394-.021-.459-.74-.295-.559.128-.866.376-.804.648zM927.777 123.743c-.479.36-.229.838.315.643.293-.067.406-.307.264-.561-.134-.219-.26-.404-.279-.364 0 0-.164.144-.3.282zM929.998 123.915c.085.373.188.457.206.167.026-.256-.071-.555-.174-.639-.111-.117-.144.104-.032.472zM930.718 123.534c-.258.345-.189.4.291.291.346-.079.502-.258.375-.443-.279-.365-.253-.371-.666.152zM932.283 123.249c-.22.264-.205.332.088.265.213-.048.34.137.303.467-.014.432.047.453.392.125.266-.311.54-.338.815-.115.24.195.373.165.308.001-.269-.689-.198-.99.116-.598.195.241.774.323 1.314.236.966-.185 1.189-.558.507-.723-.297-.075-.313-.143-.046-.204.205-.083.488.174.653.529.265.547.352.563.685.058.47-.643 1.847-.743 1.74-.112-.034.222.049.096.193-.258.184-.542.309-.606.68-.334.24.195.32.177.194-.009-.161-.213.082-.375.763-.46.54-.087 1.013.019 1.033.229-.007.216.138.361.271.331.16-.037.205-.333.127-.672-.09-.515-.063-.521.415-.024.298.325.516.418.477.249-.062-.272.428-.455 1.638-.553.115.009.538.27.951.604.481.39.63.428.446.113-.242-.445-.143-.503.611-.39.484.032.978-.009 1.061-.135.11-.133.248-.021.302.216.062.272.15.288.236.054.06-.228.314-.465.573-.56.338-.113.484.033.436.436-.025.506.01.534.19.1.272-.527 1.439-.936 1.54-.495.031.136.553.088 1.149-.12l1.088-.391-.862-.339c-.801-.317-1.981-.333-3.476-.134-.347.079-.644.004-.675-.132-.023-.102-.587-.116-1.226.03-1.072.21-1.708.248-3.459.183-.362.012-1.1.216-1.62.513-.52.298-.999.407-1.091.25-.085-.124-1.09-.109-2.258.051-1.487.233-2.039.394-1.844.635.188.208.116.26-.17.111-.565-.264-4.228.501-4.568.972zM709.283 174.439c.046.204.549.196 1.135.062.585-.133.954-.36.835-.512-.279-.365-2.063.043-1.97.45zM740.642 167.74c-.101.416.35.92.723.835.186-.043.129-.172-.157-.321-.416-.227-.424-.261-.086-.374.206-.082.605-.174.879-.2.247-.021.429-.206.383-.409-.093-.408-1.649.019-1.742.469zM742.649 167.21c.039.17.211.309.344.278.16-.036.228-.23.189-.4-.046-.204-.184-.315-.344-.278-.133.03-.235.196-.189.4zM657.548 187.578c-.032.471.063.521.504.242.323-.181 1.018-.447 1.577-.575.613-.14.928-.355.775-.534-.127-.185-.823-.169-1.542-.005-.932.213-1.3.44-1.314.872zM737.976 169.171c.257.513.995.308.871-.235-.054-.237-.333-.352-.591-.257-.267.06-.407.307-.28.492zM739.147 168.796c.1.191.375.414.551.446.202.025.251-.129.067-.444-.326-.568-.917-.576-.618-.002zM740.172 168.633c.069.305.257.513.39.482.16-.036.236-.196.197-.366-.047-.204-.207-.417-.391-.482-.156-.072-.258.094-.196.366zM736.403 169.78c-.448.495-.265 1.417.268 1.296.239-.055.603-.424.811-.864.366-.727.358-.761-.152-.787a1.209 1.209 0 00-.927.355z" fill="#fff"/><path d="M944.3 122.146c-.023.148.082.482.304.717.279.364.317.284.177-.327-.178-.78-.35-.92-.481-.39zM734.058 171.28c.039.17.272.331.516.418.263.047.4-.091.33-.397-.062-.271-.303-.466-.516-.418-.213.049-.368.227-.33.397zM759.971 165.289c.111.118.514.169.849.163.468-.035.514-.081.132-.28-.538-.27-1.36-.189-.981.117zM761.633 164.946c-.131.53-.158.536 1.109.318.955-.111 1.175-.375.693-.765-.103-.084-.468.035-.748.278-.38.301-.627.322-.769.068-.115-.259-.195-.241-.285.101zM764.035 164.433c-.041.188.219.343.607.325.845.022.867-.126.067-.443-.34-.137-.633-.07-.674.118zM766.044 164.151c.101.441.417.476 1.535.221.753-.136 3.458-.683 5.957-1.147 2.526-.469 4.435-.941 4.298-1.053-.344-.278-.942-.32-2.605-.119-1.609.189-6.934 1.405-7.854 1.794-.357.153-.833.155-1.039-.013-.294-.182-.385-.09-.292.317zM852.886 144.529c-.193.259-.188.4-.002.358.16-.037.361-.261.402-.449.12-.456.014-.432-.4.091zM952.514 123.271c.046.203.142.253.225.127.049-.154.304-.141.572.048.355.204.374.164.14-.247-.326-.568-1.077-.539-.937.072zM953.513 122.757c.024.102.44.328.935.536.637.212 1.052.189 1.458-.118.489-.434.482-.468-.013-.426-.301.033-.735.096-.94.179-.213.049-.617-.002-.922-.111-.305-.109-.533-.128-.518-.06zM824.976 152.334c-.012.931.131 1.434.301 1.074.113-.24.089-.592-.053-.845-.134-.219-.245-.337-.248-.229zM815.791 155.074c.031.136.302.217.602.184.301-.033.465-.178.338-.363-.272-.331-1.026-.195-.94.179zM818.068 154.624c-.041.188.051.346.184.315.16-.036.255-.236.216-.406-.047-.204-.131-.327-.184-.315-.08.018-.182.184-.216.406zM820.743 154.049c-.896.491-.801.54.58.332.628-.072.97-.293.915-.53-.1-.442-.401-.409-1.495.198zM822.897 153.415c-.284.601.045.812.923.611.639-.146.893-.383.816-.722-.14-.611-.581-.582-.636.038-.029.364-.082.376-.159.036-.128-.435-.745-.437-.944.037zM963.666 122.794c.109.476.201.633.226.377.007-.215-.086-.623-.194-.848-.126-.186-.14-.004-.032.471zM899.769 145.605c.119.151.291.29.371.272.053-.012.068-.194.029-.364-.046-.203-.211-.309-.371-.272-.133.03-.155.178-.029.364zM965.937 132.847c.085.373.188.457.206.167.026-.256-.071-.555-.174-.639-.111-.117-.144.105-.032.472zM339.646 139.376c-.2.085-.442.026-.513-.085-.099-.115.075-.203.37-.139.3.029.371.141.143.224zM309.96 142.787c-.333.037-.823-.01-1.088-.106-.234-.128.044-.17.639-.078.598.058.809.149.449.184zM290.498 110.112c-.414.03-1.012-.028-1.359-.132-.319-.101.014-.138.775-.064.734.071 1.026.169.584.196zM260.636 113.859c-.2.085-.442.027-.513-.085-.099-.115.074-.203.37-.139.299.029.371.141.143.224zM595.89 148.987c1.104.492-.01.384-1.363-.098-.9-.332-.921-.404-.241-.338.435.042 1.155.252 1.604.436zM606.741 151.65c-.111 1.144-.247 1.411-.628 1.374-1.114-.109-1.427.001-1.474.486-.067.693 1.252 1.241 1.611.646.194-.296.221.267.097 1.549-.182 1.871-.219 1.973-.804 1.776-.316-.136-1.281-.369-2.137-.593-.887-.191-1.73-.552-1.893-.848-.167-.261-1.435-.769-2.825-1.149-3.075-.824-4.468-1.449-4.425-1.899.021-.208-.081-.288-.227-.197-.15.125-.551.016-.887-.191-.415-.251.275-.289 2.201-.066 1.519.182 2.779.2 2.793.061.013-.139.255-.08.506.154.636.517 1.614.612 1.658.161.02-.208-.184-.367-.428-.391-.843-.082-.096-.429.974-.43.575.021 1.152.007 1.291-.015.442-.027-.269-.9-1.146-1.475l-.829-.501.88.261c.483.117.839.116.771-.03-.065-.181.265-.184.72-.07.507.154.758.108.697-.107-.085-.254.523-.299 1.742-.146l1.9.22-.138 1.42zm-3.379 1.736c-.075.203.126.397.425.426.299.029.564-.155.591-.432.05-.52-.826-.535-1.016.006zm-2.65-.397c-.092.096.414.25 1.07.278.679.067 1.237-.019 1.253-.193.031-.311-2.127-.416-2.323-.085zm-1.623 1.171c-.051.52.612.759 3.85 1.319 2.158.384 3.112.442 3.139.165.034-.347-.602-.583-2.905-1.157-1.852-.425-4.054-.639-4.084-.327zM595.188 150.562c.289.133.622.376.741.562.122.152-.177.123-.676-.101-.5-.223-1.132-.494-1.424-.593-.395-.178-.364-.21.152-.16.381.037.918.159 1.207.292z" fill="#fff"/><path d="M598.813 151.964c-.17.054-.496.022-.68-.066-.153-.119-.01-.175.371-.138.381.037.51.119.309.204zM582.898 156.749a.544.544 0 01.256.48c-.027.277-2.406-.094-2.62-.43-.119-.186 2.025-.223 2.364-.05zM572.311 155.896c1.778.347 3.242.804 3.46 1.105.194.264.547.578.755.703.207.125-1.016.007-2.718-.264-2.165-.315-3.232-.629-3.497-1.004-.191-.299-.768-.565-1.231-.61-.489-.047-.856-.223-.842-.361.033-.347.387-.312 4.073.431zM585.059 157.379c-.353.245-.305.32.235.407.38.037 1.189.186 1.808.316.649.098 1.172.079 1.189-.094.016-.174.139-.302.302-.286.136.013.245.304.208.685-.078.797-1.267.891-5.123.482-2.283-.222-2.389-.267-.748-.213 1.943.049 2.579-.274 1.535-.83-.758-.389-.568-.93.274-.848.598.058.673.135.32.381zM605.895 160.137c-.051.8-.142.896-.7.702-.424-.146-.591-.407-.452-.709.22-.573.686-.563.659-.005-.024.242.095.149.268-.219.278-.603.302-.566.225.231zM547.175 155.342c-.201.085-.442.027-.514-.085-.098-.114.075-.202.371-.138.299.029.371.14.143.223zM543.507 155.265c-.339.387-2.741.539-2.87.176-.068-.146.19-.261.543-.227.381.037 1.098.002 1.597-.055.53-.088.853-.022.73.106zM575.694 158.883c.065.181-.064.379-.295.496-.228.083-.411-.005-.395-.178.044-.451.564-.715.69-.318zM573.874 158.672c.747.213.741.842-.016 1.013-.309.075-.574.259-.591.433-.017.173-.299.25-.642.112-.612-.199-1.827.452-1.45.804.201.194 2.148.768 4.03 1.161.887.191 1.618.857 1.564 1.411-.017.173-.21.19-.418.065-.204-.16-.404-.075-.427.168-.021.208-.14.301-.265.184-.123-.152-.326-.032-.401.171-.139.301-.248.291-.391.067-.088-.219-.724-.455-1.373-.553-.649-.098-1.42-.348-1.726-.588-.306-.239-.965-.513-1.475-.633-.884-.226-.884-.226.207-.155 1.447.071 1.831-.486.607-.885-.689-.242-.86-.468-.714-.839.146-.371.102-.48-.18-.402-.228.082-.387.312-.38.522.007.211-.659.286-1.587.231-1.25-.121-1.62-.262-1.583-.644.04-.415.176-.402.747-.067.466.29.795.287 1.009.063.214-.224.17-.333-.184-.368-.244-.023-.363-.21-.265-.375.102-.2.686-.283 1.284-.225 1.223.119 1.423-.527.322-1.053-.602-.304 3.098.021 4.298.382zM540.245 155.474c-.017.174-.503.371-1.083.42-.558.086-1.424.246-1.872.343-2.167.559-5.463.588-8.786.055-6.16-.983-12.001-2.145-12.735-2.496-.863-.434 7.349.609 10.516 1.336 1.264.263 2.885.525 3.652.53 4.359.039 5.348.03 6.591-.059.744-.033 1.597-.055 1.869-.028.268.061.825-.025 1.196-.164.428-.168.672-.145.652.063zM485.691 150.733c3.276 1.018 10.452 2.554 13.143 2.816 1.332.129 2.328.331 2.236.427-.095.131-.808.131-1.566.023-.87-.085-1.373.006-1.396.249-.02.208-.109.269-.207.155-.068-.147-.36.035-.618.429-.322.494-.38.803-.189 1.101.119.187 2.273.886 4.744 1.441 5.335 1.288 5.732 1.431 5.485 2.002-.224.608.432 1.476.972 1.284.228-.083.466.01.524.261.051.319.109.29.139-.022.054-.274.197-.331.374-.173.176.157 1.165.428 2.222.565 1.026.17 2.647.432 3.564.592 1.264.262 1.76.241 2.045-.152.313-.389.326-.528.024-.802-.473-.501-2.699-1.312-3.759-1.415-.489-.047-1.043-.276-1.241-.505-.449-.463 6.782.519 8.665 1.192.662.239 1.281.369 1.396.31.146-.09.218.022.201.195-.02.208.153.4.398.423.217.021.343-.141.278-.322-.242-.619.119-.374.592.407.377.631 1.091.91 4.584 1.67 2.283.501 4.135.926 4.163.929 0 0 .007.21-.02.488-.047.485-.435.517-.935.014-.149-.155-.37-.141-.465-.011-.197.331-.659.286-6.894-.774-3.187-.52-3.843-.549-3.88-.167-.061.343-.112.304-.262-.131-.132-.328-.438-.567-.717-.524-.248.011-.673-.136-.901-.333-.356-.279-.418-.215-.329.283.195 1.104.29 1.253.548.858.163-.264.326-.248.561.159.217.301.561.44.9.333.313-.11.748-.068.952.092.431.357 2.195.843 4.941 1.39 1.026.17 1.906.43 1.953.505.242.338-1.27.646-2.184.452-.513-.085-2.154-.419-3.612-.666-1.485-.249-2.772-.549-2.898-.666-.099-.115-1.852-.425-3.887-.658-2.763-.373-3.755-.61-3.884-.972-.15-.434-.205-.44-.245-.024-.04.416-.122.408-.336.073-.405-.634-1.01-.623-.877-.016.068.427-.074.483-.631.289-.398-.144-.82-.325-.945-.442-.099-.114-.214-.056-.235.152-.016.174-.699.422-1.508.553-1.613.228-4.579-.025-4.542-.406.013-.139-.282-.202-.673-.135-.387.032-.68-.066-.659-.274.04-.416.726-.699 1.596-.615.462.045.611-.08.54-.472-.082-.288-.303-.554-.521-.575-.271-.027-.35-.349-.191-1.138.135-.827.087-1.181-.259-1.285-.425-.146-1.093 1.083-.804 1.496.068.147.166-.019.2-.365.03-.312.183-.472.309-.355.201.195.153.4-.098.725-.499.616-.767.555-.853-.258-.055-.565-.316-.695-1.781-.872-.951-.093-2.586-.496-3.592-.874-5.087-1.859-6.069-2.199-6.939-2.283-.544-.053-.884-.226-.789-.357.099-.165-.112-.256-.441-.253-.33.003-.609.046-.612.081-.003.035-.227.083-.506.126-.251.045-.459-.08-.439-.288.017-.173-.183-.088-.455.166-.247.291-.706.491-1.005.462-.299-.029-.499.056-.435.237.086.254-4.216-.094-7.046-.614l-1.349-.236 1.875-.098c2.949-.133 2.976-.69.104-1.354-1.583-.364-1.332-.409 1.882-.167 5.698.379 6.561.532 7.214 1.156.2.194.343.138.363-.07.021-.208.163-.264.313-.11.153.12.408.04.567-.189.197-.331.282-.358.251-.046-.023.243.092.464.256.48.135.013.207-.155.142-.336-.061-.216.061-.344.333-.318.38.037.414-.029.138-.581-.187-.333-.197-.509-.047-.354.401.388.845-.793.444-1.182a3.792 3.792 0 00-.459-.359 56.546 56.546 0 00-2.104-.659c-.506-.154-2.392-.512-4.149-.788-3.598-.525-4.57-.969-1.553-.676 1.033.101 2.073.132 2.297.083.197-.05 1.321.234 2.494.593zm10.619 6.489c.629.585 6.008 1.423 5.674.901-.306-.52-1.349-.796-4.01-1.09-1.736-.203-2.069-.166-1.664.189zm7.532 3.81c-.109-.011-.011-.176.224-.328.234-.153.305-.32.173-.368-.163-.016-.51-.12-.833-.186-.482-.117-.516-.05-.339.666.123.432.313.731.429.672.146-.091.21.09.183.367-.03.312.055.565.218.581.136.014.211-.189.156-.474-.054-.285.136-.547.472-.619.645-.147.724.175.174.751-.581.609-.129.478.567-.189 1.171-1.041.698-2.101-.562-1.279-.353.245-.753.416-.862.406zm13.462 1.797c-.01.104.081.288.234.408.126.117.269.061.286-.112.02-.208-.099-.395-.235-.408-.163-.016-.279.043-.285.112zm-10.858.205c-.102.2.004.245.231.162.513-.195.618-.43.237-.467-.163-.015-.366.105-.468.305zM472.46 149.132c-.252.046-.633.009-.816-.079-.154-.12.044-.17.506-.125.435.042.592.127.31.204zM514.695 153.586c-.201.085-.442.027-.514-.085-.098-.115.075-.203.371-.139.299.029.371.141.143.224zM477.826 150.354a5.432 5.432 0 01-1.495-.145c-.401-.109-.041-.144.774-.065.816.079 1.162.183.721.21zM605.512 163.739c-.054.555-.129.757-.177.403-.024-.317.024-.802.101-1.04.102-.2.133.048.076.637zM550.14 158.149c-.02.208-.363.35-.802.342-3.105-.232-3.934-.172-4.386.238-.39.347-1.219.407-2.931.24-1.305-.126-2.355-.333-2.338-.507.013-.138.132-.232.295-.216.136.013.292-.181.319-.459.027-.277.268-.498.509-.44.272.027 2.484.137 4.92.198 3.279.144 4.444.292 4.414.604zM594.008 162.971c-.153.719-.54 1.031-.476.373.03-.312.169-.613.316-.704.149-.125.214.056.16.331zM565.877 159.924c-.387.032-1.138.134-1.664.188-.887.088-.921.155-.526.613.469.536.717.525-7.213-.036-2.48-.171-3.993-.703-4.401-1.582-.228-.477-.337-.487-.812-.114-.299.251-.441.307-.309.075.129-.197.074-.482-.079-.602-.18-.123 1.373-.007 3.456.3 2.086.273 3.9.519 4.063.535 6.272.4 8.039.571 7.485.623zm-11.806-.763c.183.088.564.125.815.079.282-.077.126-.162-.309-.205-.462-.044-.659.006-.506.126zM598.308 163.599c.951.372.863.434-.672.425-.768-.005-1.142-.111-1.064-.349.183-.472.733-.488 1.736-.076zM596.164 163.391c.061.215-.027.557-.211.749-.244.256-.316.144-.262-.41.081-.832.231-.958.473-.339zM594.743 163.287c-.163.264-.085.307.228.197.282-.077.469-.024.452.149-.02.208-.278.323-.578.294a.542.542 0 01-.493-.573c.027-.277.186-.506.35-.491.136.014.173.192.041.424zM514.455 155.451c2.705.683 3.004.992.5.503a219.31 219.31 0 00-6.602-.956c-2.494-.312-4.628-.659-4.7-.771-.187-.333 8.549.69 10.802 1.224zM586.892 163.05c.615.164.788.356.642.727-.105.234-.257.395-.356.28-.102-.08-1.152-.287-2.345-.438-2.385-.301-3.156-.551-2.902-.911.231-.398 1.529-.202 1.492.18-.024.242.085.253.323.066.444-.342 1.61-.193 2.113.275.228.197.286.168.173-.088-.085-.253-.126-.397-.075-.357.055.005.452.149.935.266zM568.043 161.672c.336.207.35.349.105.325-.217-.021-.639-.202-.921-.404-.336-.208-.35-.349-.105-.326.217.022.638.202.921.405zM519.384 156.945c.412.285.432.357.051.32-.248.01-.53-.192-.595-.373-.153-.4-.153-.4.544.053zM532.027 158.978c.113.536.405.634 2.593.707 1.338.06 2.446.237 2.436.341-.014.139-1.349.324-3 .374-6.006.256-11.443-.832-11.733-2.365-.075-.357.017-.453.357-.28.938.511 3.758 1.135 3.649.844-.064-.181.211-.189.605-.011.421.181.928.335 1.176.324.91-.051 3.075.264 3.279.424.098.114.254-.08.339-.387.139-.581.166-.579.299.029zM521.767 157.841c.061.216-.136.267-.455.166-.795-.287-.955-.617-.249-.549.299.029.612.2.704.383zM411.373 147.534c.792.322.792.322-.156.195-.544-.053-1.125-.005-1.328.116-.204.12-.343.141-.333.037.044-.45 1.107-.662 1.817-.348zM408.626 147.582c.065.181-.061.344-.279.322-.244-.023-.418-.215-.401-.388.02-.208.142-.336.278-.323.164.016.341.173.402.389zM452.865 155.309c.071.112.717.245 4.081.921 1.05.207.33.557-1.406.633-1.93.093-7.831-.446-9.055-.844a48.995 48.995 0 00-3.088-.685c-2.287-.467-3.069-.893-2.244-1.198.258-.115.442-.027.422.181-.021.208.112.256.319.101.35-.211 10.804.63 10.971.891zM545.168 164.697c1.556.361 2.552.843 4.112 2.009 1.15.881 2.054 1.738 2.03 1.981-.023.243-.224.328-.512.195-.286-.168-.221.014.167.541.343.418.744.807.907.823.163.016.279.237.252.514-.057.589-1.477.241-2.841-.696-1.132-.774-.999-.727-2.029-1.141-.476-.187-.805-.464-.71-.594.098-.166-.402-.389-1.125-.564-.697-.173-1.737-.484-2.325-.646-.584-.197-1.39-.38-1.821-.457-.408-.039-.724-.175-.714-.279.01-.104-.605-.269-1.339-.34-.761-.074-1.342-.305-1.298-.476.047-.205.166-.299.295-.216.133.048.252-.046.269-.219.017-.173-.371-.421-.82-.604-.662-.24-.971-.165-1.26.262-.38.523-.407.52-.353-.034.03-.312-.103-.64-.293-.658-.16-.051.126-.163.652-.217 1.339-.22 6.258.258 8.756.816zm-1.273 1.241c-.057.589.616 1.004 2.073 1.25 2.515.385 1.07-.84-1.72-1.496-.163-.016-.336.072-.353.246zM403.867 150.827c.024.037 2.103.379 4.648.731 5.627.827 7.489 1.148 12.827 2.121 2.294.398 5.379.838 6.826.908 1.475.074 2.664.259 2.651.398-.014.138-.296.216-.649.182-.353-.035-1.885.201-3.424.506-2.463.496-3.37.513-8.341-.005-6.656-.682-10.325-1.319-12.813-2.26-.292-.098-1.499-.39-2.685-.611-4.984-.939-6.034-1.146-8.199-1.741-2.623-.674-3.283-1.228-1.377-1.078.734.071 3.405.261 5.909.469 2.534.176 4.6.377 4.627.38zM535.155 164.075c-.099.165-.252.325-.333.317-.055-.005-.092-.184-.076-.357.021-.208.17-.333.333-.317.136.013.177.157.076.357zM533.648 164.067c-.027.277-.217.538-.444.621-.286.112-.327-.032-.198-.509.237-.747.713-.84.642-.112zM389.707 149.976c-.098.166-.41.275-.709.246-.272-.026-.503-.189-.487-.362.017-.173.33-.283.71-.246.354.035.585.197.486.362zM388.227 149.938c-.023.243-1.134.38-1.219.127-.068-.147.19-.262.574-.259.357-.001.652.063.645.132zM379.169 149.162c.391.212.385.842.031.807-.136-.013-.275-.271-.357-.559-.055-.285-.059-.531-.035-.493.028.002.208.125.361.245zM380.292 149.726c-.017.174-.17.334-.333.318-.136-.013-.173-.192-.075-.357.102-.2.251-.326.333-.318.054.006.095.15.075.357zM377.646 149.609c.075.357-.017.453-.248.291-.208-.125-.297-.344-.198-.509.231-.398.336-.352.446.218zM376.32 149.689c.065.181-.006.349-.142.336-.163-.016-.283-.203-.266-.376.021-.208.088-.341.143-.336.081.008.204.16.265.376zM589.511 170.895c.499.223.982.62 1.074.804.112.255.194.263.224-.049s.17-.333.472-.059c.255.2 1.2.642 2.131.942 1.244.471 1.628.753 1.537 1.129-.18.717-.856.896-.788.203.07-.728-.365-1.05-.945-.722-.265.185-.727.14-1.013-.028-.312-.17-1.227-.644-2.063-1.075-.809-.428-1.475-.913-1.462-1.051.017-.174-.143-.224-.37-.141-.228.082-.466-.011-.527-.226-.177-.437.472-.339 1.73.273zM374.925 149.904c-.098.165-.251.325-.333.317-.054-.005-.092-.183-.075-.357.02-.208.17-.333.333-.317.136.013.177.157.075.357zM374.246 149.838c-.02.208-.224.328-.441.307-.218-.021-.402-.109-.395-.179.007-.069.211-.189.442-.306.227-.083.411.005.394.178zM372.208 149.64c.065.181-.006.349-.142.336-.163-.016-.283-.203-.266-.376.02-.208.088-.341.143-.336.081.008.204.16.265.376zM258.314 140.567c-.201.085-.442.027-.514-.085-.098-.114.075-.202.371-.139.299.029.371.141.143.224zM256.845 140.739c-.037.381-.129.477-.183.192-.058-.25-.001-.559.091-.656.095-.13.156.086.092.464zM597.856 174.468c.53.472.473.501-.676.459-1.09-.071-1.168-.113-.771-.529.522-.579.713-.561 1.447.07zM473.247 162.501c.051.04.859.189 1.834.318 1.574.188 1.781.313 2.366 1.35.351.628.535 1.276.436 1.441-.098.166-1.243.089-2.646-.152-1.346-.271-3.368-.642-4.472-.854-1.104-.213-2.657-.608-3.402-.856-.768-.284-1.522-.427-1.668-.337-.149.126-.333.038-.398-.143-.068-.147-.924-.37-1.906-.43-.978-.095-1.76-.241-1.743-.414.013-.139-.167-.262-.384-.283-.408-.039-.534-.716-.147-.749.989-.008 9.561.72 8.977.803-.833.094-1.04.528-.39.906.645.413 2.531.491 2.568.11.02-.208-.238-.373-.564-.405-.87-.084-.249-.549.679-.493.435.042.839.116.86.188zM381.275 153.739c.286.168.527.226.541.088.01-.104.214.055.435.322.218.301.35.349.262.13-.126-.397 1.124-.275 3.883.413 2.008.509 1.981.507 2.162.909.252.514.187.893-.166.859-.136-.014-.17-.227-.038-.459.163-.264.078-.237-.251.046-.357.28-1.797.42-4.396.342-4.026-.076-5.242-.264-2.402-.408 1.708-.079 2.377-.469 1.568-.897-1.23-.609-6.72-.863-10.161-.463-1.859.204-6.822.177-6.605-.082.21-.189 2.31-.335 3.832-.187.928.055 1.155-.028 1.06-.457-.075-.357.047-.485.421-.379.292.098.577.266.676.381.071.112.547.018 1.039-.249 1.844-.905 1.929-.932 1.896-.586-.024.243.136.294.513.085.322-.213.839-.163 1.362.098.445.218.826.255.843.082.033-.347 2.799-.008 3.526.412zM460.603 161.868c-.033.347-.424.414-1.372.287-1.573-.188-1.454-.562.231-.678.883-.054 1.175.045 1.141.391zM553.077 171.623c.232.442.558.754.704.663.115-.059.438.008.669.17.232.163.626.341.867.399.269.061.622.376.864.714.309.485.52.575.985.305.319-.178.513-.195.384.003-.098.165.31.485.949.687.611.199.975.409.805.463-.173.088-1.036-.066-1.886-.358-.853-.258-1.614-.332-1.685-.164-.142.336-1.233-.295-1.788-1.083a25.396 25.396 0 00-1.027-1.29c-.32-.38-.524-.82-.449-1.023.074-.202.353.035.608.514z" fill="#fff"/><path d="M377.614 155.307c-.17.053-.496.022-.68-.066-.153-.12-.01-.176.371-.139.38.037.51.12.309.205zM365.144 154.586c.387.247.272.306-.517.229-.547-.018-1.002-.132-.995-.201.03-.312 1.046-.318 1.512-.028z" fill="#fff"/><path d="M352.091 153.283c1.322.233 4.414.604 6.833.839 2.446.238 4.42.534 4.407.673-.017.173-.299.251-.656.251-.982-.06-2.208.135-2.673.405-1.396.809 6.959 1.516 12.354 1.06 4.538-.398 5.011-.177.921.405-.836.128-3.968.454-5.126.516-7.573.559-10.743.426-11.616-.464-.351-.349-1.112-.703-1.734-.798-.622-.095-1.209-.257-1.335-.375-1.034-.94-9.317-1.814-12.33-1.303-.391.067-1.638.191-2.769.256-1.135.1-2.629.234-3.326.342-.893.158-1.352.078-1.597-.226-.296-.343-.323-.346-.19-.018.106.325-.044.45-.482.443-.357 0-.934.014-1.291.014-.384-.002-.853-.257-1.044-.556-.36-.525-.33-.557.058-.309.285.168.483.117.506-.126.02-.208.112-.304.18-.157.071.112.414-.03.72-.35.818-.795 8.91-1.618 8.839-.89-.017.173-.275.288-.547.261-.299-.029-.638.078-.74.278-.129.198.292.379 1.026.45.68.066 1.268-.052 1.284-.225.021-.208-.156-.365-.374-.386-.217-.021-.394-.179-.377-.352.064-.658 6.414-.496 11.079.342zm-8.426-.259c-1.389.18-1.358.708.055.845 1.387.135 2.423-.079 2.463-.495.034-.347-1.023-.485-2.518-.35z" fill="#fff"/><path d="M377.915 156.386c-.251.045-.686.003-.951-.093-.234-.127-.01-.175.506-.125.517.05.727.14.445.218zM560.575 175.534c-.17.054-.496.022-.68-.066-.153-.119-.01-.175.371-.138.38.037.51.119.309.204zM540.402 175.043a.492.492 0 01-.19.541c-.146.091-.269-.061-.242-.338.061-.624.234-.712.432-.203zM549.167 176.629c.299.309.292.378-.17.333-.299-.029-.717-.244-.918-.439-.299-.309-.292-.378.17-.333.299.029.717.245.918.439zM427.76 165.253c.762.634.782.706.313 1.01-.587.398-.937.329-.679-.066.129-.198.084-.587-.052-.88-.347-.663-.265-.655.418-.064zM426.871 165.657c.055.285.014.421-.112.303-.126-.117-.323-.066-.451.131-.099.166-.496.302-.877.265-.407-.039-.611-.199-.479-.431.129-.198.38-.243.587-.118.208.125.378.072.391-.067.054-.554.829-.619.941-.083zM507.554 174.545c-.111.304-.223.608-.23.677-.007.069-.258.115-.557.086-.68-.066-.653-.623.074-1.042.781-.414.968-.361.713.279zM505.99 174.778c-.023.242-.343.421-.696.387-.353-.034-.741-.282-.88-.54-.211-.371-.038-.459.696-.388.571.056.907.264.88.541zM290.939 153.533c.52.295.334.802-.231.677-.299-.029-.442-.253-.334-.522.106-.235.207-.435.231-.397 0 0 .181.122.334.242zM288.758 153.986c-.037.381-.129.477-.184.192-.058-.251 0-.56.092-.656.094-.131.156.085.092.464zM287.995 153.7c.299.309.238.373-.252.325-.353-.034-.53-.191-.428-.391.23-.398.203-.4.68.066zM286.407 153.616c.251.234.245.304-.054.274-.218-.021-.32.179-.241.502.068.426.01.456-.374.173-.302-.274-.578-.266-.822-.01-.214.225-.35.211-.306.041.18-.717.071-1.008-.19-.579-.163.265-.727.42-1.274.401-.982-.06-1.251-.401-.595-.652.285-.112.292-.182.02-.208-.214-.056-.462.235-.58.608-.194.576-.279.603-.673.145-.548-.578-1.927-.502-1.739.111.061.215-.038.101-.225-.232-.252-.514-.384-.562-.717-.245-.214.224-.295.217-.193.017.132-.232-.13-.363-.816-.36-.547-.018-1.002.148-.995.358.034.214-.092.376-.228.363-.163-.016-.244-.303-.211-.65.024-.522-.004-.525-.414.03-.255.36-.458.48-.442.307.027-.278-.482-.397-1.695-.34-.112.024-.499.336-.866.72-.428.449-.57.505-.428.169.183-.472.078-.517-.656-.309-.475.094-.971.116-1.07.001-.126-.117-.248.011-.272.254-.026.277-.111.303-.227.082-.089-.218-.371-.42-.639-.482-.35-.069-.476.094-.377.489.089.498.058.53-.176.122-.337-.487-1.547-.745-1.591-.294-.013.139-.536.158-1.155.028l-1.128-.25.812-.446c.754-.416 1.922-.583 3.431-.576.353.034.638-.078.652-.216.01-.104.567-.19 1.219-.127 1.091.071 1.726.028 3.455-.259.36-.035 1.118.074 1.672.303.554.228 1.043.276 1.114.108.068-.133 1.067-.246 2.246-.237 1.505.042 2.072.132 1.909.396-.159.229-.081.272.184.088.526-.334 4.257-.042 4.655.382zM514.11 175.987c-.02.208-.519.264-1.117.206-.598-.058-.993-.236-.894-.402.23-.397 2.052-.22 2.011.196zM482.153 173.336c.153.4-.23.957-.611.92-.19-.018-.149-.154.116-.338.383-.278.387-.313.037-.382a3.957 3.957 0 00-.897-.087c-.248.011-.452-.149-.432-.357.04-.415 1.637-.19 1.787.244zM480.094 173.066c-.016.173-.169.333-.305.32-.163-.016-.255-.2-.239-.373.021-.208.143-.336.306-.32.136.013.259.165.238.373zM567.097 182.429c.092.463.004.525-.469.304-.343-.138-1.067-.314-1.638-.369-.625-.061-.965-.234-.836-.431.102-.2.795-.273 1.529-.201.951.092 1.345.27 1.414.697zM484.98 174.416c-.19.541-.948.432-.894-.122.023-.243.285-.392.554-.331.272.026.442.253.34.453zM483.77 174.193c-.075.203-.319.459-.489.512-.197.051-.265-.095-.123-.431.251-.606.836-.689.612-.081zM482.733 174.162c-.03.312-.19.541-.326.528-.163-.016-.258-.165-.241-.338.02-.208.152-.44.326-.528.146-.091.268.061.241.338zM486.618 174.819c.506.434.443 1.373-.101 1.32-.245-.024-.653-.344-.915-.754-.455-.674-.452-.708.051-.8.309-.074.737.037.965.234z" fill="#fff"/><path d="M274.347 154.053c.041.144-.02.488-.21.749-.231.398-.279.323-.218-.301.077-.797.23-.957.428-.448zM489.134 176.009c-.017.173-.227.363-.459.48-.255.08-.408-.04-.377-.352.027-.277.241-.501.458-.48.218.021.395.179.378.352zM462.67 173.367c-.095.131-.489.233-.822.27-.469.025-.52-.015-.167-.261.499-.336 1.325-.361.989-.009zM460.977 173.238c.198.509.225.512-1.059.457-.962.012-1.213-.223-.785-.671.091-.096.468-.024.778.181.414.25.662.239.771-.03.081-.272.163-.264.295.063zM458.529 173.035c.065.182-.173.368-.56.401-.836.128-.877-.016-.123-.432.319-.179.618-.15.683.031zM456.501 173.012c-.044.45-.353.525-1.495.414-.764-.039-3.516-.236-6.054-.378-2.565-.144-4.519-.369-4.397-.497.306-.32.893-.438 2.568-.45 1.621-.018 7.057.51 8.019.779.373.106.846.047 1.029-.145.268-.219.37-.139.33.277zM367.867 164.611c.224.231.238.373.047.354-.163-.016-.391-.213-.456-.394-.177-.437-.068-.426.409.04zM266.343 156.214c-.02.208-.108.27-.207.155-.068-.146-.32-.101-.561.121-.326.248-.35.21-.17-.227.251-.605.999-.672.938-.049zM265.286 155.832c-.01.104-.394.382-.859.651-.605.291-1.019.321-1.461.068-.54-.367-.537-.402-.041-.424.302-.005.741.002.955.058.217.021.611-.08.9-.227.288-.147.513-.195.506-.126zM396.544 168.797c.13.922.052 1.439-.162 1.104-.143-.224-.164-.576-.055-.845.105-.235.2-.366.217-.259zM406.003 170.345c-.013.138-.272.253-.574.259-.303.005-.483-.117-.381-.317.227-.363.992-.324.955.058zM403.687 170.189c.065.181-.006.349-.142.336-.164-.016-.283-.203-.266-.376.02-.208.088-.341.142-.336.082.008.205.16.266.376zM400.961 169.959c.951.373.863.434-.533.403-.632.009-.999-.167-.976-.409.044-.451.346-.457 1.509.006zM398.744 169.605c.357.559.058.81-.839.723-.652-.063-.934-.266-.9-.612.06-.624.502-.651.635-.043.075.357.129.362.163.015.071-.447.682-.528.941-.083zM255.221 157.163c-.047.485-.118.653-.176.402-.035-.213.006-.629.084-.866.101-.2.139-.022.092.464zM321.502 171.649c-.098.165-.251.325-.333.317-.054-.005-.091-.184-.075-.357.021-.208.17-.333.333-.318.136.014.177.158.075.358zM254.249 167.423c-.037.381-.129.477-.183.192-.058-.251-.001-.56.091-.656.095-.131.156.085.092.464zM63.843 129.19c-.147.098-.329.055-.385-.052-.077-.108.05-.207.273-.162.223.01.28.117.112.214zM41.795 134.478c-.247.058-.613.042-.814-.036-.178-.113.029-.173.474-.119.448.02.607.097.34.155zM26.381 103.12c-.308.055-.755.035-1.016-.046-.241-.08.006-.139.575-.113.55.024.77.104.441.159zM4.215 108.753c-.147.098-.329.055-.385-.052-.077-.108.05-.207.272-.162.224.01.28.117.113.214zM255.198 122.507c.837.42.003.383-1.019-.011-.68-.274-.697-.345-.189-.322.325.014.868.178 1.208.333zM263.364 124.475c-.052 1.148-.145 1.422-.43 1.41-.834-.038-1.064.091-1.086.578-.031.696.967 1.159 1.219.543.136-.308.172.251.115 1.538-.084 1.879-.109 1.982-.55 1.823-.24-.115-.966-.287-1.611-.455-.666-.135-1.305-.442-1.435-.727-.131-.249-1.091-.676-2.138-.966-2.316-.627-3.372-1.162-3.352-1.614.009-.209-.069-.282-.175-.182-.108.135-.41.051-.667-.134-.316-.224.197-.305 1.64-.206 1.137.086 2.078.023 2.084-.116.006-.139.188-.096.382.122.488.475 1.221.507 1.241.055a.341.341 0 00-.33-.363c-.631-.028-.084-.422.715-.491.428-.016.859-.066.962-.096.328-.055-.226-.882-.896-1.4l-.632-.446.664.204c.363.086.629.063.574-.079-.053-.177.192-.201.535-.116.382.122.568.061.516-.151-.07-.247.382-.331 1.296-.256l1.422.099-.063 1.426zm-2.472 1.946c-.05.207.105.388.329.398.223.01.416-.191.428-.469.024-.522-.631-.481-.757.071zm-1.988-.228c-.065.101.317.223.806.21.509.023.922-.098.93-.272.014-.313-1.598-.281-1.736.062zm-1.177 1.271c-.024.522.477.719 2.907 1.071 1.62.247 2.334.244 2.346-.034.016-.348-.465-.544-2.199-.97-1.393-.306-3.04-.38-3.054-.067zM254.717 124.123c.219.114.474.335.568.513.095.144-.128.134-.507-.057-.378-.191-.857-.422-1.078-.501-.299-.153-.277-.187.11-.17.284.013.688.101.907.215z" fill="#fff"/><path d="M257.459 125.291c-.125.064-.369.054-.509-.022-.117-.11-.012-.175.273-.162.285.013.383.087.236.184zM245.726 131.075c.118.075.211.289.203.462-.012.279-1.796.06-1.965-.262-.094-.178 1.503-.351 1.762-.2zM237.805 130.896c1.335.234 2.44.597 2.611.883.151.251.424.542.582.653.158.112-.757.071-2.034-.09-1.623-.178-2.428-.423-2.636-.78-.15-.286-.588-.515-.934-.53-.366-.016-.645-.168-.639-.307.016-.348.28-.336 3.05.171zM247.355 131.566c-.257.267-.219.338.186.391.285.013.892.11 1.357.2.486.057.876.005.884-.169.008-.174.095-.31.217-.304.102.004.191.287.174.67-.036.8-.92.969-3.807.806-1.709-.077-1.789-.115-.563-.165 1.45-.075 1.915-.437 1.121-.926-.576-.339-.449-.891.182-.863.447.02.505.092.249.36zM262.968 132.995c-.016.801-.081.902-.502.744-.321-.119-.452-.369-.357-.678.148-.586.496-.605.491-.048-.011.244.075.143.194-.235.191-.619.209-.583.174.217zM219.045 131.94c-.147.098-.329.055-.385-.052-.077-.108.05-.207.272-.162.224.01.281.117.113.214zM216.309 132.096c-.243.407-2.029.711-2.135.357-.055-.141.134-.272.398-.261.285.013.818-.068 1.189-.156.393-.121.635-.076.548.06zM240.409 133.661c.054.177-.037.382-.206.514-.167.097-.307.021-.299-.153.02-.452.4-.749.505-.361zM239.046 133.566c.563.165.576.793.016 1.012-.229.094-.421.295-.429.469-.008.173-.216.269-.476.153-.461-.16-1.35.567-1.059.893.155.181 1.623.63 3.038.903.666.134 1.23.752 1.205 1.308-.008.174-.152.203-.31.091-.156-.146-.303-.048-.314.195-.009.209-.095.309-.193.2-.095-.143-.244-.01-.294.196-.095.31-.176.306-.289.092-.072-.212-.553-.408-1.039-.465-.487-.056-1.069-.256-1.304-.476-.235-.22-.734-.451-1.117-.538-.666-.169-.666-.169.15-.167 1.081-.022 1.352-.602.428-.922-.521-.198-.654-.413-.556-.792.099-.379.063-.485-.145-.39-.168.097-.28.336-.269.546.011.21-.484.327-1.177.331-.936-.042-1.216-.159-1.199-.542.019-.417.121-.413.556-.114.355.259.601.236.754-.001.153-.238.117-.344-.147-.356-.183-.008-.277-.186-.208-.357.07-.206.503-.326.951-.306.915.04 1.047-.616.211-1.071-.457-.265 2.311-.176 3.216.108zM213.88 132.512c-.008.174-.364.402-.796.487-.413.121-1.055.336-1.387.461-1.6.695-4.057.934-6.55.613-4.621-.589-9.009-1.378-9.566-1.682-.656-.377 5.497.141 7.879.666.95.182 2.166.341 2.739.297 3.251-.238 3.988-.31 4.913-.478.554-.08 1.189-.156 1.393-.147.202.044.615-.077.887-.239.314-.195.497-.187.488.022zM173.065 131.246c2.471.807 7.866 1.885 9.88 1.975.996.044 1.744.182 1.679.284-.068.136-.6.182-1.168.122-.651-.029-1.023.094-1.034.337-.009.209-.073.276-.15.168-.055-.142-.268.057-.449.467-.227.513-.261.825-.111 1.111.094.178 1.72.739 3.578 1.135 4.014.946 4.314 1.064 4.146 1.649-.15.621.363 1.446.761 1.219.167-.097.347-.019.397.227.047.316.089.283.103-.03.033-.277.138-.342.274-.197.136.146.881.353 1.673.423.77.104 1.986.263 2.674.364.95.182 1.32.128 1.521-.281.222-.408.229-.547-.005-.802-.366-.469-2.048-1.137-2.842-1.172-.366-.017-.785-.21-.939-.425-.347-.434 5.072.087 6.495.638.5.197.965.287 1.05.221.106-.1.162.008.155.181-.01.209.125.389.308.398.163.007.252-.163.199-.34-.198-.601.078-.38.452.369.299.606.839.839 3.465 1.374 1.717.356 3.11.662 3.13.663 0 0 .011.209-.002.488-.021.487-.309.544-.696.073-.116-.144-.28-.117-.347.02-.138.342-.484.326-5.163-.336-2.391-.316-2.881-.303-2.898.08-.036.347-.075.31-.199-.113-.108-.319-.342-.539-.549-.478-.185.027-.505-.092-.681-.274-.274-.257-.317-.189-.238.303.176 1.088.251 1.231.433.821.114-.274.236-.269.422.123.171.286.431.403.681.274.23-.129.555-.114.712.032.332.329 1.66.702 3.723 1.073.77.104 1.434.308 1.471.379.19.322-.929.725-1.616.59-.385-.052-1.618-.281-2.712-.435-1.114-.154-2.083-.372-2.18-.481-.077-.108-1.393-.306-2.917-.409-2.07-.197-2.817-.369-2.923-.723-.124-.424-.165-.425-.184-.008-.018.417-.079.415-.248.094-.32-.607-.77-.558-.654.04.062.421-.042.486-.463.328-.301-.118-.62-.272-.717-.381-.077-.108-.161-.042-.171.167-.008.174-.51.465-1.109.647-1.197.33-3.416.266-3.399-.117.006-.139-.216-.183-.505-.092-.288.057-.509-.023-.5-.231.019-.418.523-.744 1.174-.715.346.016.454-.119.389-.505-.069-.282-.241-.533-.404-.541-.203-.009-.27-.326-.174-1.123.078-.833.033-1.183-.229-1.265-.32-.119-.785 1.15-.558 1.544.055.142.124-.03.139-.377.014-.313.124-.483.221-.374.155.181.125.389-.053.73-.355.646-.557.602-.643-.203-.057-.561-.256-.674-1.353-.758-.712-.032-1.942-.331-2.702-.643-3.845-1.531-4.587-1.808-5.238-1.838-.407-.018-.665-.169-.598-.305.069-.171-.091-.248-.337-.224-.245.024-.452.084-.453.119-.002.035-.168.097-.374.158-.187.061-.345-.051-.335-.259.007-.174-.14-.076-.335.194-.177.306-.513.534-.737.524-.224-.01-.371.088-.318.265.071.247-3.146.173-5.272-.166l-1.012-.149 1.396-.217c2.195-.32 2.2-.878.04-1.357-1.191-.263-1.005-.324 1.399-.286 4.259.016 4.907.114 5.411.694.155.182.26.117.269-.092.01-.209.115-.274.23-.129.118.11.306.013.418-.226.138-.342.2-.374.186-.061-.011.243.082.457.204.462.102.005.15-.167.097-.344-.052-.211.036-.347.239-.338.285.013.308-.056.088-.588-.149-.321-.162-.496-.046-.351.31.362.608-.844.299-1.206a2.843 2.843 0 00-.353-.33c-.2-.078-.923-.32-1.587-.524-.381-.121-1.798-.359-3.115-.522-2.698-.295-3.435-.677-1.177-.576.773.035 1.549 0 1.715-.062.145-.064.992.148 1.876.432zm8.098 5.798c.486.545 4.52 1.039 4.257.539-.243-.499-1.028-.708-3.02-.832-1.301-.093-1.548-.034-1.237.293zm5.723 3.323c-.082-.004-.013-.175.157-.341.171-.167.219-.339.119-.379-.122-.005-.383-.086-.626-.132-.363-.086-.386-.017-.234.687.103.422.254.708.338.642.106-.1.16.077.147.355-.014.313.057.56.179.566.102.004.152-.203.103-.484-.049-.281.086-.553.335-.647.477-.188.544.129.15.739-.416.643-.083.484.418-.226.844-1.112.462-2.14-.454-1.24-.257.268-.551.464-.632.46zm10.088.939c-.004.104.069.281.187.391.097.109.202.044.209-.13.01-.208-.084-.387-.186-.391-.122-.006-.207.06-.21.13zm-8.091.893c-.07.206.009.244.177.147.377-.227.449-.468.164-.48-.122-.006-.271.127-.341.333zM163.156 130.489c-.186.062-.471.049-.61-.027-.118-.11.028-.173.374-.157.326.014.445.089.236.184zM194.775 132.25c-.147.098-.328.055-.385-.052-.077-.108.05-.207.273-.162.223.01.28.117.112.214zM167.191 131.367a3.024 3.024 0 01-1.118-.05c-.302-.083-.035-.141.575-.113.61.027.872.108.543.163zM262.785 136.612c-.025.556-.075.763-.12.413a4.543 4.543 0 01.047-1.044c.07-.206.099.039.073.631zM221.331 134.551c-.009.209-.261.372-.588.392-2.322-.034-2.939.078-3.264.516-.282.371-.898.483-2.18.426-.976-.044-1.765-.184-1.757-.357.006-.14.092-.24.214-.235.102.005.213-.199.225-.478.013-.278.186-.514.368-.471.203.009 1.856-.022 3.674-.115 2.449-.065 3.322.009 3.308.322zM254.184 136.575c-.094.728-.373 1.064-.344.403.014-.313.11-.622.216-.722.108-.135.161.042.128.319zM233.117 135.322c-.288.057-.845.207-1.236.294-.659.145-.682.213-.375.645.364.504.549.478-5.38.422-1.855-.013-2.997-.447-3.326-1.299-.183-.461-.264-.464-.609-.062-.215.27-.32.335-.228.095.091-.205.042-.486-.075-.596-.138-.111 1.023-.094 2.585.081 1.563.139 2.923.27 3.045.275 4.688 0 6.011.059 5.599.145zm-8.826-.01c.14.076.424.088.611.027.208-.095.089-.17-.237-.185-.346-.015-.491.048-.374.158zM257.402 136.929c.72.311.656.378-.489.466-.573.045-.854-.038-.803-.279.124-.483.534-.534 1.292-.187zM255.801 136.858c.052.211-.004.557-.136.76-.174.271-.231.164-.206-.392.037-.835.145-.97.342-.368zM254.737 136.845c-.114.273-.055.311.175.182.209-.095.35-.054.342.12-.01.208-.199.339-.423.329-.224-.01-.396-.261-.384-.54.013-.278.126-.517.248-.511.101.004.134.18.042.42zM194.647 134.126c2.036.509 2.268.798.387.47-.831-.107-3.061-.381-4.95-.535-1.868-.153-3.469-.364-3.525-.471-.149-.32 6.394.146 8.088.536zM248.874 137.107c.463.125.598.305.5.684-.072.241-.182.41-.258.302-.079-.073-.867-.213-1.761-.288-1.787-.149-2.369-.349-2.189-.725.161-.411 1.134-.298 1.117.085-.011.244.07.247.242.046.323-.369 1.196-.295 1.584.14.175.182.218.149.127-.099-.071-.247-.105-.388-.066-.351.041.002.341.12.704.206zM234.783 136.929c.256.185.27.326.087.317-.162-.007-.481-.161-.697-.344-.257-.186-.271-.326-.088-.318.163.007.482.161.698.345zM198.364 135.303c.314.258.332.328.047.315-.185.027-.401-.157-.454-.334-.126-.388-.126-.388.407.019zM207.848 136.529c.099.527.32.606 1.953.54 1-.025 1.831.082 1.827.186-.007.139-.997.409-2.227.563-4.472.636-8.557-.104-8.815-1.614-.066-.351 0-.453.258-.302.714.45 2.834.893 2.745.611-.053-.177.152-.203.45-.05.32.154.702.275.886.249.678-.11 2.301.068 2.457.214.077.108.188-.096.242-.407.088-.589.108-.588.224.01zM200.168 136.046c.051.212-.094.275-.335.194-.601-.236-.729-.555-.201-.531.224.01.462.16.536.337zM117.556 132.774c.599.271.599.271-.111.204-.407-.018-.838.067-.987.2-.148.133-.252.163-.247.059.02-.453.807-.731 1.345-.463zM115.507 132.996c.053.176-.036.347-.199.339-.183-.008-.318-.188-.31-.362.009-.209.097-.344.199-.34.122.006.258.151.31.363zM148.715 137.895c.057.107.542.199 3.069.66.789.14.262.535-1.031.721-1.436.215-5.852.052-6.776-.268a28.1 28.1 0 00-2.322-.487c-1.718-.321-2.313-.696-1.706-1.052.189-.131.329-.055.319.154-.009.208.091.248.241.08.255-.233 8.075-.058 8.206.192zM217.807 141.399c1.17.261 1.926.678 3.122 1.743.881.806 1.579 1.604 1.568 1.847-.01.244-.157.342-.377.227-.217-.149-.164.028.14.529.268.396.578.758.7.763.122.006.214.219.202.497-.027.592-1.096.335-2.138-.513-.866-.701-.766-.662-1.545-1.01-.36-.156-.613-.411-.546-.548.069-.171-.31-.362-.855-.491-.524-.128-1.308-.372-1.751-.496a8.43 8.43 0 00-1.371-.34c-.305-.014-.544-.129-.54-.234.005-.104-.458-.229-1.008-.254-.569-.025-1.009-.219-.981-.392.03-.208.116-.309.214-.234.101.039.187-.062.194-.236.008-.174-.288-.396-.627-.551-.501-.196-.73-.102-.933.342-.269.546-.289.545-.264-.012.014-.313-.094-.631-.237-.638-.12-.04.089-.17.481-.257.992-.304 4.674-.14 6.552.258zm-.915 1.318c-.027.592.487.963 1.58 1.116 1.886.224.775-.906-1.324-1.383-.122-.006-.249.093-.256.267zM112.047 136.535c.019.036 1.579.245 3.487.435 4.219.467 5.616.669 9.624 1.301 1.721.251 4.034.494 5.115.472 1.102-.02 1.994.089 1.988.228-.006.14-.214.235-.479.223-.264-.012-1.4.321-2.539.723-1.823.65-2.499.725-6.22.524-4.983-.258-7.737-.659-9.618-1.441-.221-.079-1.129-.294-2.019-.438-3.743-.621-4.532-.76-6.163-1.217-1.975-.506-2.482-1.017-1.056-.988.549.025 2.546.044 4.419.093 1.895.015 3.441.084 3.461.085zM210.323 141.414c-.069.171-.178.34-.239.338-.041-.002-.074-.178-.066-.352.009-.208.117-.343.239-.338.101.005.136.146.066.352zM209.201 141.502c-.012.278-.147.551-.314.648-.21.13-.245-.011-.162-.495.157-.76.509-.884.476-.153zM101.468 136.586c-.069.171-.299.3-.523.29-.203-.009-.38-.156-.372-.33.008-.174.237-.303.522-.29.265.011.441.159.373.33zM100.361 136.642c-.011.243-.835.45-.906.203-.054-.142.135-.273.421-.295.266-.023.488.022.485.092zM93.584 136.442c.298.188.31.816.046.804-.102-.005-.213-.254-.282-.536-.049-.281-.058-.525-.04-.489.021.001.159.111.276.221zM94.437 136.935c-.008.174-.117.343-.239.337-.101-.004-.134-.18-.066-.351.07-.206.178-.341.24-.338.04.002.074.143.065.352zM92.462 136.985c.065.352 0 .453-.177.306a.43.43 0 01-.16-.495c.16-.411.24-.373.337.189zM91.475 137.149c.053.177.005.349-.096.344-.122-.005-.216-.184-.208-.358.009-.208.056-.346.096-.344.061.003.157.147.208.358zM251.049 144.766c.378.191.749.556.823.733.091.248.152.251.166-.062.014-.313.117-.343.35-.089.196.183.913.564 1.615.804.941.391 1.235.648 1.177 1.029-.114.726-.613.948-.582.253.033-.731-.3-1.025-.724-.66-.193.2-.539.185-.756.036-.238-.15-.933-.565-1.568-.942-.615-.376-1.126-.817-1.12-.956.008-.174-.112-.214-.28-.117-.167.097-.347.02-.399-.192-.144-.425.343-.368 1.298.163zM90.44 137.452c-.068.171-.177.341-.238.338-.04-.002-.074-.178-.066-.351.01-.209.117-.344.239-.338.102.004.136.145.066.351zM89.93 137.43c-.009.208-.157.341-.32.334-.163-.008-.302-.083-.3-.153.004-.07.153-.202.322-.334.167-.097.307-.021.299.153zM88.41 137.361c.054.177.005.349-.096.345-.122-.006-.216-.184-.208-.358.01-.209.056-.346.097-.344.06.002.156.146.208.357zM3.221 135.543c-.147.098-.328.055-.385-.052-.077-.108.05-.207.272-.162.224.01.28.117.113.214zM2.13 135.808c-.018.382-.083.484-.132.203-.05-.246-.015-.558.05-.66.067-.136.119.075.081.457zM257.371 147.801c.409.436.366.469-.491.501-.815-.002-.874-.039-.59-.48.374-.61.516-.604 1.081-.021zM164.113 143.776c.039.036.646.133 1.377.2 1.178.088 1.336.2 1.801 1.196.279.605.434 1.239.365 1.411-.069.171-.925.167-1.978.016-1.011-.185-2.529-.427-3.358-.568-.829-.142-1.998-.438-2.56-.638-.581-.235-1.147-.33-1.254-.23-.108.135-.247.059-.3-.118-.055-.142-.7-.31-1.434-.308-.732-.033-1.319-.128-1.311-.302.006-.14-.132-.25-.294-.258-.306-.013-.419-.68-.131-.737.737-.072 7.15.11 6.717.23-.618.147-.761.593-.266.929.493.371 1.901.329 1.918-.053.01-.209-.187-.357-.432-.368-.65-.029-.2-.532.493-.536.326.015.629.063.647.134zM95.283 140.875c.218.149.4.192.406.053.004-.104.16.042.333.294.17.286.27.325.199.113-.105-.388.83-.346 2.907.165 1.512.381 1.492.38 1.637.77.202.497.165.879-.1.867-.101-.005-.133-.215-.04-.455.114-.274.051-.242-.187.061-.258.303-1.328.534-3.268.621-3.005.18-3.917.069-1.803-.255 1.272-.187 1.76-.618 1.145-.994-.934-.53-5.036-.434-7.59.184-1.381.321-5.083.609-4.928.337.151-.202 1.713-.481 2.852-.43.693-.004.86-.101.778-.523-.066-.351.021-.487.303-.405.22.08.438.229.515.337.056.107.409-.017.768-.314 1.35-1.02 1.413-1.052 1.398-.704-.011.243.11.283.384.052.235-.234.622-.217 1.02.01.337.19.622.202.63.028.015-.347 2.087-.185 2.641.188zM154.666 143.947c-.015.347-.305.439-1.015.373-1.178-.088-1.1-.468.153-.691.657-.11.878-.03.862.318zM223.895 147.806c.185.426.437.717.543.617.084-.066.327-.02.504.127s.476.3.657.343c.202.044.474.335.664.657.244.464.404.541.743.242.233-.199.377-.227.287-.022-.069.171.244.464.726.625.462.16.739.347.613.411-.126.099-.774 0-1.416-.238-.643-.203-1.213-.228-1.261-.056-.097.344-.928-.216-1.363-.967a24.98 24.98 0 00-.802-1.221c-.249-.36-.413-.785-.363-.992.05-.207.264.012.468.474z" fill="#fff"/><path d="M92.595 142.671c-.125.064-.37.053-.509-.023-.117-.109-.012-.174.273-.162.285.013.383.087.236.185zM83.274 142.744c.296.222.212.288-.378.262-.408.016-.75-.069-.748-.138.014-.313.771-.384 1.126-.124z" fill="#fff"/><path d="M73.506 142.273c.992.149 3.308.322 5.118.403 1.831.082 3.312.252 3.306.392-.008.174-.216.269-.482.292-.734.002-1.643.275-1.983.573-1.018.896 5.232 1.071 9.242.274 3.374-.686 3.732-.496.698.345-.62.181-2.946.704-3.808.84-5.632 1.038-8 1.107-8.676.275-.27-.326-.848-.63-1.314-.686-.467-.056-.91-.18-1.007-.289-.796-.872-6.998-1.219-9.23-.517-.29.092-1.217.294-2.058.431-.844.171-1.955.401-2.471.552-.662.214-1.006.164-1.197-.123-.23-.324-.25-.325-.143-.007.088.318-.02.452-.347.473-.266.023-.696.073-.962.096-.287.022-.643-.203-.794-.488-.283-.501-.261-.535.035-.313.217.15.363.086.373-.157.01-.209.076-.31.13-.169.057.107.309-.056.528-.394.588-.845 6.6-2.18 6.567-1.45-.008.174-.197.305-.4.296-.225-.01-.475.118-.545.324-.09.205.228.359.778.384.508.022.943-.132.95-.306.01-.209-.126-.355-.289-.362a.312.312 0 01-.29-.326c.029-.661 4.769-.903 8.27-.363zm-6.29.277c-1.032.267-.994.792.064.839 1.037.046 1.804-.233 1.822-.65.016-.348-.776-.418-1.887-.189z" fill="#fff"/><path d="M92.85 143.729c-.187.061-.512.046-.712-.032-.179-.113-.013-.175.373-.158.387.018.547.094.339.19zM229.596 151.232c-.125.064-.369.053-.508-.023-.118-.11-.013-.175.272-.162.285.013.384.087.236.185zM214.538 152.022a.608.608 0 01-.127.552c-.106.1-.201-.044-.189-.322.028-.626.155-.725.316-.23zM221.12 153.048c.232.289.229.359-.117.343-.224-.01-.541-.198-.696-.38-.232-.289-.228-.358.117-.343.224.01.541.199.696.38zM130.268 149.408c.585.584.602.655.262.988-.427.434-.69.387-.509-.023.091-.205.047-.59-.063-.874-.277-.64-.216-.637.31-.091zM129.615 149.868c.049.281.022.419-.075.31-.097-.109-.242-.046-.333.159-.069.171-.361.333-.646.32-.305-.014-.461-.16-.369-.4.09-.205.277-.266.435-.155.158.112.283.048.289-.091.025-.557.6-.671.699-.143zM190.03 153.611c-.075.31-.15.621-.153.69-.003.07-.189.131-.413.121-.508-.023-.504-.58.026-1.044.571-.463.712-.422.54.233zM188.867 153.943c-.01.243-.243.442-.508.43-.264-.012-.56-.234-.671-.483-.167-.356-.041-.455.508-.43.427.019.684.205.671.483zM27.908 146.405c.396.262.27.779-.154.69-.223-.01-.336-.224-.263-.499.072-.241.143-.447.161-.411 0 0 .138.11.256.22zM26.298 146.995c-.017.383-.083.484-.131.203-.05-.246-.016-.558.05-.66.067-.136.118.075.08.457zM25.717 146.758c.232.29.188.357-.178.341-.265-.012-.401-.157-.33-.363.16-.411.14-.412.508.022zM24.53 146.776c.195.218.192.287-.032.277-.163-.007-.233.199-.166.516.063.421.02.454-.274.196-.233-.254-.438-.228-.613.043-.153.237-.255.232-.227.059.114-.726.025-1.009-.158-.564-.114.273-.53.464-.939.48-.734.003-.944-.32-.462-.613.21-.13.213-.199.01-.208-.162-.042-.338.263-.416.643-.128.587-.191.619-.498.187-.424-.542-1.45-.378-1.294.221.052.212-.025.104-.174-.217-.202-.497-.302-.536-.541-.198-.153.237-.214.234-.144.028.092-.24-.107-.353-.618-.306-.409.016-.744.211-.733.42.032.211-.057.381-.159.376-.122-.005-.191-.287-.175-.635.002-.522-.018-.523-.309.056-.18.376-.328.508-.32.334.012-.278-.371-.365-1.274-.231-.083.031-.363.367-.626.774-.306.474-.411.539-.314.195.123-.482.043-.521-.498-.266-.352.123-.722.177-.798.069-.097-.109-.185.026-.196.27-.012.278-.075.31-.167.097a.722.722 0 00-.49-.44c-.263-.047-.352.123-.268.511.08.491.059.525-.128.133-.264-.465-1.174-.645-1.194-.192-.006.139-.396.191-.86.1l-.849-.177.593-.496c.551-.463 1.418-.704 2.543-.793.264.012.474-.118.48-.257.005-.104.418-.225.906-.204.816.002 1.288-.081 2.57-.477.267-.058.835.002 1.255.195.419.193.785.21.834.037.047-.137.788-.313 1.668-.378 1.123-.054 1.549-.001 1.435.273-.113.239-.053.277.139.076.383-.366 3.173-.311 3.482.086zM194.956 154.633c-.01.209-.38.297-.828.277-.447-.02-.746-.173-.677-.344.161-.411 1.523-.35 1.505.067zM171.053 154.018c.126.389-.145.969-.429.957-.143-.007-.116-.145.076-.345.278-.302.28-.336.017-.383a2.16 2.16 0 00-.671-.03c-.184.027-.341-.12-.332-.328.019-.418 1.216-.295 1.339.129zM169.51 153.879c-.008.174-.117.344-.219.339-.121-.005-.195-.183-.187-.357.009-.208.097-.344.218-.338.102.004.197.148.188.356zM234.648 157.695c.082.456.018.523-.34.333-.26-.116-.805-.245-1.232-.264-.467-.021-.725-.172-.635-.377.071-.206.585-.322 1.134-.298.712.032 1.011.185 1.073.606zM173.19 154.916c-.127.552-.695.491-.67-.065.011-.244.202-.409.404-.366.203.01.336.225.266.431zM172.28 154.77c-.05.207-.225.478-.351.542-.145.064-.2-.078-.103-.423.17-.619.604-.739.454-.119zM171.51 154.805c-.014.313-.126.552-.228.548-.121-.006-.196-.149-.189-.323.01-.208.102-.448.228-.547.106-.1.202.044.189.322zM174.421 155.214c.39.401.368 1.341-.038 1.323-.183-.009-.496-.301-.703-.694-.358-.643-.357-.678.015-.801.229-.094.551-.01.726.172z" fill="#fff"/><path d="M15.549 147.977c.034.141-.002.488-.136.761-.16.411-.198.34-.17-.286.035-.8.145-.97.306-.475zM176.334 156.241c-.008.174-.16.376-.329.508-.188.096-.305-.013-.291-.326.012-.279.166-.516.328-.509a.314.314 0 01.292.327zM156.522 155.286c-.067.137-.358.263-.605.322-.349.054-.388.017-.132-.25.363-.367.978-.444.737-.072zM155.256 155.265c.161.495.181.496-.777.523-.717.073-.911-.145-.604-.619.065-.102.348-.055.585.13.316.223.5.197.574-.079.053-.276.114-.273.222.045zM153.427 155.218c.053.177-.119.378-.407.435-.619.181-.654.04-.103-.423.233-.199.456-.189.51-.012zM151.913 155.323c-.02.452-.248.547-1.103.509-.571.009-2.628-.013-4.525.007-1.917.019-3.38-.082-3.293-.217.219-.339.654-.494 1.903-.612 1.208-.121 5.277.061 6.001.268.282.082.633-.007.764-.21.194-.235.272-.162.253.255zM85.582 152.571c.174.217.189.357.046.351-.122-.006-.297-.188-.35-.365-.145-.424-.064-.421.304.014zM9.64 150.642c-.01.208-.074.275-.15.167-.055-.142-.242-.08-.415.156-.237.268-.255.233-.134-.215.17-.62.727-.734.699-.108zM8.842 150.328c-.005.104-.283.405-.622.704-.443.329-.751.385-1.087.16-.413-.332-.412-.366-.043-.42.225-.024.552-.045.713-.003.163.008.454-.119.665-.284.211-.165.377-.227.374-.157zM107.086 154.926c.122.912.078 1.432-.091 1.111-.112-.214-.137-.564-.064-.839.072-.241.139-.377.155-.272zM114.181 155.869c-.006.139-.196.27-.421.295-.226.025-.363-.086-.293-.292.16-.376.731-.385.714-.003zM112.453 155.861c.053.176.004.349-.097.344-.122-.005-.216-.184-.208-.358.009-.208.056-.346.097-.344.061.003.156.146.208.358zM110.412 155.805c.719.311.655.378-.386.436-.471.049-.75-.103-.739-.347.02-.452.246-.477 1.125-.089zM108.748 155.592c.282.536.066.805-.605.775-.488-.022-.704-.206-.688-.554.028-.626.356-.681.472-.083.066.351.106.353.122.005.04-.451.494-.57.699-.143zM1.371 152.294c-.022.487-.07.659-.12.413a3.14 3.14 0 01.04-.87c.07-.206.102-.03.08.457zM51.203 162.535c-.069.172-.178.341-.24.338-.04-.002-.073-.177-.065-.351.01-.209.117-.343.24-.338.1.005.135.145.065.351zM.93 162.59c-.017.383-.083.484-.13.203-.05-.246-.017-.558.049-.659.067-.137.118.075.081.456z" fill="#fff"/></svg>