<svg width="1920" height="183" fill="none" xmlns="http://www.w3.org/2000/svg"><path d="M1921 127.352h-80.08c-80.09 0-400.42 6.07-400.42 6.07s-320.33 18.326-480.5 21.163c-160.167 2.837-320.333-2.837-480.5-24.226-160.167-21.163-320.333-57.474-400.417-75.63L-1 36.576V.264h1922v127.088z" fill="#fff"/><path d="M1831.36 126.248c3.35.344 5.22.647 4.06.64-2.97.015-5.36.552-5.36 1.169 0 .422-.2.453-.91.157-.7-.329-1.28-.332-2.38-.047-.82.215-.84-.353-1.67-.494-.77-.129-2.12-.29-4.39-.548-2.12-.24-4.12-.544-4.51-.709-.32-.131-1.74-.269-3.15-.278-4.97-.03-1.94-.271 5.09-.391 5.29-.066 8.64.051 13.22.501zM1778.93 125.512c-.58.061-1.48.056-1.93-.012-.39-.099.07-.161 1.16-.155 1.03.006 1.42.074.77.167zM1763.14 125.742c-.39.062-1.16.058-1.61-.01-.39-.099-.07-.162.83-.157.91.005 1.23.072.78.167zM1840.83 127.181c-.58.061-1.61.055-2.26-.014-.58-.101-.06-.162 1.16-.155 1.23.007 1.75.075 1.1.169zM1893.25 127.884c-.28.02-.29.436 0 .46l.32.028c4 .349 4.96.484 3.03.505-.84.028-1.36.154-1.17.318.2.163 3.23.473 6.64.688 9.99.612 10.57.713 4.06.511-3.35-.085-12.64-.302-20.63-.448-8-.145-14.83-.316-15.15-.382-.39-.068 3.87-.107 9.35-.107 7.8.047 9.74-.039 8.71-.337-1.23-.364-1.23-.364 0-.616.97-.189.58-.256-1.29-.268-1.93-.044-2.32-.143-1.61-.366.52-.159 3.16-.273 5.81-.225 4.19.058 4.45.092 1.93.239zM1872.1 128.017c-.45.094-1.03.058-1.22-.04-.26-.099.13-.194.84-.157.71.004.9.103.38.197zM1869.65 128.035c.19.163-1.29.316-3.29.337-2.26.023-2.24-.342.02-.427 1.56-.059 3.11-.043 3.27.09zM1099.59 127.286c-.45.094-1.03.059-1.23-.04-.25-.099.13-.194.84-.157.71.004.9.103.39.197zM1895.47 134.419c2.71.373.07.357-3.22.013-2.19-.24-2.26-.305-.64-.296 1.03.006 2.77.147 3.86.283zM1921.58 136.068c-.01 1.07-.27 1.328-1.17 1.323-2.65-.016-3.36.11-3.36.564 0 .649 3.22 1.058 3.93.478.39-.29.58.23.57 1.431-.01 1.752-.07 1.849-1.49 1.711-.77-.102-3.09-.246-5.16-.388-2.12-.11-4.18-.382-4.63-.644-.45-.23-3.55-.606-6.9-.853-7.41-.531-10.83-1.006-10.82-1.427 0-.195-.26-.262-.58-.166-.33.128-1.29.057-2.13-.11-1.03-.201.58-.289 5.16-.229 3.61.054 6.58-.025 6.58-.155s.58-.094 1.22.104c1.61.432 3.93.446 3.94.024 0-.195-.52-.328-1.1-.331-2-.012-.32-.391 2.2-.474 1.35-.024 2.71-.081 3.03-.111 1.03-.059-.84-.816-3.03-1.284l-2.06-.401 2.13.175c1.16.071 2 .044 1.81-.087-.2-.163.58-.191 1.67-.12 1.23.105 1.81.043 1.62-.152-.26-.229 1.16-.318 4.06-.268l3.18.042c.74.01 1.33.611 1.33 1.348zm-7.56 1.869c-.13.194.39.359 1.09.363.71.005 1.3-.187 1.3-.446 0-.487-2.06-.434-2.39.083zm-3.7-.441c-1.76.04-1.8.477-.04.451 1.61.01 2.9-.112 2.9-.275.01-.156-1.44-.209-2.86-.176zm-6.17 1.485c0 .487 1.61.659 9.34.932 5.16.193 7.42.174 7.42-.085 0-.325-1.55-.496-7.09-.854-4.45-.254-9.67-.285-9.67.007zM1894.17 135.936c.71.102 1.54.302 1.87.466.32.131-.39.127-1.62-.042-1.22-.17-2.77-.374-3.48-.443-.96-.136-.9-.168.33-.16.9.005 2.19.078 2.9.179z" fill="#fff"/><path d="M1903 136.963c-.39.062-1.16.057-1.61-.01-.39-.1-.07-.163.84-.157.9.005 1.22.072.77.167zM1866.66 142.618c.39.067.71.264.71.426 0 .259-5.68.096-6.26-.2-.32-.164 4.71-.361 5.55-.226zM1841.58 142.63c4.26.188 7.8.501 8.38.764.51.23 1.41.495 1.93.596.52.1-2.39.083-6.45-.039-5.16-.128-7.73-.338-8.44-.667-.52-.263-1.93-.466-3.03-.472-1.16-.007-2.06-.143-2.06-.272 0-.325.84-.32 9.67.09zM1871.88 143.038c-.78.255-.65.321.64.361.91.006 2.84.082 4.32.156 1.55.041 2.78-.016 2.78-.178 0-.163.26-.291.64-.288.33.001.65.263.64.62 0 .746-2.77.924-11.93.837-5.42-.032-5.67-.066-1.81-.141 4.58-.102 6-.45 3.43-.888-1.87-.303-1.55-.82.45-.808 1.42.008 1.62.074.84.329zM1921.47 144.017c.06.746-.14.842-1.49.705-1.03-.104-1.48-.334-1.22-.624.39-.549 1.48-.575 1.55-.056-.01.227.25.131.58-.224.52-.58.58-.548.58.199zM1782.37 144.028c-.45.094-1.03.058-1.22-.04-.26-.099.13-.194.84-.157.71.004.9.103.38.197zM1773.73 144.235c-.71.386-6.32.709-6.71.382-.19-.131.39-.257 1.23-.252.9.005 2.58-.082 3.74-.172 1.23-.123 2-.086 1.74.042zM1850.2 145.147c.2.164-.06.357-.58.484-.52.094-.97.026-.97-.136.01-.422 1.17-.707 1.55-.348zM1845.88 145.089c1.81.141 1.93.726.19.942-.71.093-1.29.285-1.29.447 0 .162-.65.256-1.49.153-1.48-.138-4.19.559-3.23.857.52.165 5.22.55 9.74.772 2.12.11 3.99.673 3.99 1.192 0 .162-.46.192-.97.092-.52-.133-.97-.039-.97.189 0 .194-.26.29-.58.191-.32-.132-.77-.005-.9.189-.45.496-1.22-.053-1.87-.142-.65-.087-1.52-.152-2.39-.175-1.55-.042-3.42-.216-4.19-.415-.77-.199-2.38-.404-3.61-.476-2.12-.142-2.12-.142.46-.159 3.41-.045 4.19-.592 1.23-.869-1.68-.172-2.13-.37-1.87-.725.26-.355.13-.454-.51-.36-.52.094-.84.319-.78.514.06.196-1.48.316-3.68.335-2.96-.017-3.87-.12-3.86-.477 0-.389.32-.387 1.74-.119 1.16.234 1.93.206 2.38-.019.46-.224.33-.322-.51-.327-.58-.004-.9-.168-.71-.329.2-.193 1.55-.315 2.97-.307 2.9.018 3.23-.597.52-1.002-1.48-.236 7.29-.216 10.19.028zM1766.12 144.677c0 .162-1.1.383-2.46.472a212.3 212.3 0 00-4.32.461c-4.97.684-12.71.962-20.64.72-14.7-.445-28.69-1.081-30.49-1.351-2.13-.337 17.41.007 25.02.442 3.02.148 6.89.268 8.7.214 10.25-.295 12.58-.379 15.48-.556 1.74-.087 3.74-.172 4.38-.168.65.036 1.94-.086 2.78-.243.97-.189 1.55-.186 1.55.009zM1636.83 144.422c7.93.696 25.14 1.578 31.52 1.616 3.16.019 5.55.131 5.35.227-.19.128-1.87.183-3.67.14-2.07-.012-3.23.11-3.23.338 0 .383-.65.073-1.01.19-.25.08-.54.224-.8.415-.65.483-.71.775-.2 1.037.32.165 5.54.65 11.47.978 12.83.79 13.8.893 13.34 1.442-.39.582 1.35 1.339 2.58 1.119.51-.094 1.09-.026 1.28.202.22.329.41-.304.8-.286.11.005.23.027.37.066.45.133 2.83.309 5.35.357 2.45.079 6.31.2 8.51.278 3.03.148 4.19.09 4.77-.296.65-.386.65-.516-.13-.747-1.22-.429-6.63-1.013-9.15-1.028-1.16-.007-2.51-.178-3.02-.376-1.16-.396 16.05-.033 20.63.448 1.61.172 3.09.246 3.35.183.32-.096.52.003.51.165 0 .195.45.36 1.03.363.52.003.78-.157.59-.321-.71-.556.19-.356 1.48.334 1.03.557 2.77.762 11.15 1.202 4.47.239 8.25.452 9.53.522.27.015.52.204.52.479 0 .454-.91.514-2.19.084-.39-.132-.91-.102-1.1.026-.39.322-1.48.316-16.38-.195-4.89-.155-7.28-.2-8.36-.118-.59.045-1 .544-1.44.156-.38-.294-1.16-.493-1.8-.432-.58.029-1.61-.075-2.19-.24-.9-.233-1.03-.169-.71.287.7 1.01.96 1.142 1.47.756.33-.258.72-.256 1.36.105.58.263 1.41.365 2.19.24.71-.125 1.74-.119 2.26.014 1.09.298 5.34.616 11.92.915 2.45.079 4.58.254 4.71.32.64.296-2.85.697-5.04.586-1.22-.039-5.16-.225-8.64-.343-3.54-.119-6.64-.3-6.96-.399-.26-.099-4.45-.254-9.28-.315-6.58-.137-8.96-.281-9.35-.608-.45-.392-.58-.393-.58-.003 0 .389-.19.388-.77.092-1.1-.558-2.52-.501-2.07.053.26.391-.06.454-1.42.316-.96-.103-2-.239-2.32-.338-.25-.099-.51-.036-.51.159 0 .162-1.55.445-3.43.628-3.74.335-10.77.325-10.76-.032 0-.13-.71-.166-1.62-.074-.9.059-1.61-.01-1.61-.205.01-.389 1.56-.704 3.62-.692h.1c.98-.001.69-.969-.29-.974-.64-.004-.9-.298-.7-1.043.13-.778-.06-1.103-.9-1.173-.69-.07-1.49.44-1.72.893-.21.397.55.648.55.203.01-.292.33-.452.65-.353.52.165.45.359-.07.681-1.03.61-1.68.574-2.06-.175-.25-.52-.9-.622-4.38-.675-2.26-.013-6.19-.264-8.64-.538-12.37-1.34-14.75-1.581-16.82-1.594-1.29-.007-2.13-.142-1.93-.271.19-.161-.32-.229-1.1-.201-.77.028-1.42.089-1.42.121 0 .033-.51.094-1.16.155-.58.062-1.09-.039-1.09-.233 0-.162-.45-.068-1.04.188-.51.289-1.55.51-2.26.506-.7-.004-1.16.09-.96.254.25.228-9.94.232-16.7-.035l-3.23-.117 4.39-.233c6.9-.348 6.84-.868-.06-1.266-3.8-.218-3.22-.279 4.39-.298 13.48-.082 15.54-.005 17.21.525.52.165.84.102.84-.093 0-.194.32-.257.71-.125.39.099.97.005 1.29-.22.39-.322.58-.353.58-.061 0 .227.32.424.71.426.32.002.45-.16.26-.323-.19-.196.07-.324.71-.32.9.005.97-.059.2-.551-.52-.295-.58-.457-.19-.325 1.03.33 1.81-.801.78-1.131-.45-.133-.97-.266-1.16-.299-.65-.069-2.97-.278-5.09-.453-1.23-.104-5.74-.293-9.93-.416-8.58-.213-10.96-.552-3.8-.509 2.45.014 4.9-.036 5.41-.098.46-.062 3.16.117 6 .361zm26.41 5.22c1.6.496 14.43.865 13.53.405-.83-.459-3.34-.636-9.66-.707-4.13-.057-4.9.003-3.87.302zm18.55 2.966c-.26-.002-.06-.163.45-.322.52-.159.65-.32.33-.355-.39-.002-1.23-.072-2-.109-1.16-.072-1.23-.007-.65.645.38.392.9.654 1.16.591.32-.095.51.068.51.328 0 .292.26.52.64.523.33.001.46-.192.26-.453-.19-.261.2-.518.97-.611 1.49-.186 1.74.108.58.685-1.23.609-.2.453 1.29-.219 2.52-1.056 1.17-2.005-1.6-1.146-.78.255-1.68.445-1.94.443zm32.04.646c0 .097.26.261.65.361.32.099.64.036.64-.126 0-.195-.32-.359-.64-.361-.39-.002-.65.061-.65.126zm-25.47 1.016c-.2.193.06.227.58.133 1.16-.22 1.35-.446.45-.452-.39-.002-.84.125-1.03.319zM1605.36 143.941c-.58.062-1.48.056-1.93-.011-.39-.1.06-.162 1.16-.155 1.03.006 1.42.073.77.166zM1705.63 144.866c-.45.095-1.03.059-1.22-.039-.26-.099.13-.194.84-.157.7.004.9.102.38.196zM1618.26 144.668c-.97.059-2.52.049-3.55-.022-.97-.07-.13-.13 1.81-.118 1.93.011 2.77.081 1.74.14zM1789.97 146.409c0 .195-.78.353-1.81.379-7.35.021-9.28.139-10.25.555-.84.352-2.78.47-6.84.446-3.1-.019-5.61-.131-5.61-.293 0-.13.26-.226.65-.224.32.002.64-.19.64-.45s.52-.484 1.1-.448c.65.004 5.87-.062 11.61-.19 7.74-.116 10.51-.067 10.51.225zM1894.16 147.552c-.19.68-1.03 1-1.03.383 0-.292.26-.582.58-.678.33-.127.52.036.45.295zM1827.37 146.86c-.91.06-2.65.212-3.87.302-2.07.15-2.13.214-1.1.61 1.22.461 1.8.432-16.97.515-5.86.029-9.54-.35-10.69-1.135-.65-.426-.9-.427-1.94-.044-.64.255-.97.318-.71.093.26-.193.07-.454-.32-.554-.45-.1 3.23-.11 8.19.017 4.97.095 9.29.185 9.67.188 14.84-.106 19.03-.081 17.74.008zm-27.93.19c.46.068 1.36.073 1.94.012.64-.094.26-.161-.77-.167-1.1-.007-1.55.056-1.17.155zM1904.42 147.808c2.32.274 2.13.337-1.49.446-1.8.054-2.7-.017-2.57-.243.32-.452 1.61-.509 4.06-.203zM1899.33 147.778c.19.196.06.519-.33.712-.52.256-.71.158-.71-.361.01-.779.33-.907 1.04-.351zM1895.97 147.79c-.33.258-.13.291.58.166.64-.094 1.09-.059 1.09.104 0 .194-.58.321-1.29.316-.71-.004-1.29-.234-1.29-.494.01-.26.33-.485.72-.482.32.001.45.165.19.39zM1705.49 146.618c6.51.428 7.28.692 1.29.429-2.64-.081-9.74-.285-15.73-.386-5.94-.101-11.03-.261-11.22-.359-.52-.295 20.25-.009 25.66.316zM1877.46 148.166c1.49.106 1.94.271 1.68.627-.2.226-.52.386-.78.287-.26-.066-2.77-.179-5.61-.228-5.67-.099-7.54-.272-7.02-.626.45-.387 3.55-.303 3.54.053 0 .228.26.229.78.038.97-.352 3.74-.303 5.03.095.58.165.7.134.38-.095-.25-.223-.08-.316.25-.286.42.037 1.05.092 1.75.135zM1832.84 148.321c.83.167.9.297.32.294-.52-.003-1.55-.139-2.26-.306-.83-.167-.9-.297-.32-.294.52.003 1.55.139 2.26.306zM1717.42 147.63c1.03.233 1.09.298.19.293-.58.029-1.29-.137-1.48-.301-.45-.359-.45-.359 1.29.008zM1747.59 148.557c.38.489 1.09.558 6.25.459 3.16-.046 5.8.035 5.8.132 0 .13-3.1.403-6.97.575-14.06.695-27.08.097-28.1-1.304-.26-.326-.06-.422.77-.287 2.32.403 9.09.768 8.77.506-.19-.163.45-.192 1.42-.056 1.03.136 2.25.241 2.83.212 2.13-.117 7.29.011 7.81.144.25.099.58-.094.71-.385.19-.551.26-.55.71.004zM1722.03 148.007c.81.075.96.535.15.463-1.93-.207-2.38-.501-.7-.491.18.001.37.011.55.028zM1461.42 147.103c1.93.239 1.93.239-.33.193-1.28-.008-2.64.082-3.09.209-.45.127-.78.157-.78.06.01-.422 2.46-.699 4.2-.462zM1454.97 147.357c.19.163-.07.324-.58.321-.58-.004-1.03-.169-1.03-.331 0-.195.26-.323.58-.321.39.002.84.135 1.03.331zM1560.7 151.169c.19.099 1.74.173 9.79.546 2.52.112.9.492-3.16.695-4.51.232-18.51.181-21.47-.097-1.1-.071-4.38-.285-7.41-.401-5.48-.26-7.42-.596-5.54-.942.58-.126 1.03-.058 1.03.136-.01.195.32.229.77.07.77-.223 25.54-.237 25.99-.007zM1779.74 152.87c3.74.217 6.19.589 10.12 1.553 2.89.731 5.21 1.459 5.21 1.686 0 .227-.46.322-1.16.22-.71-.134-.52.03.51.49.9.362 1.93.693 2.32.695.38.003.7.199.7.459 0 .552-3.42.336-6.83-.43-2.83-.634-2.51-.599-5.02-.907-1.16-.136-2-.368-1.81-.497.2-.161-1.03-.331-2.77-.438-1.67-.108-4.19-.318-5.6-.423a85.15 85.15 0 00-4.39-.286c-.96-.006-1.74-.108-1.74-.205 0-.098-1.48-.204-3.22-.214-1.81-.011-3.22-.182-3.16-.344.07-.194.33-.29.65-.223.32.034.58-.061.58-.224 0-.162-.97-.362-2.06-.499-1.61-.171-2.32-.078-2.9.34-.78.514-.85.514-.84-.005 0-.292-.39-.586-.84-.589-.38-.035.26-.161 1.49-.251 3.09-.306 14.77-.236 20.76.092zm-2.72 1.249c0 .552 1.68.886 5.16 1.004 5.99.166 2.32-.862-4.38-1.259-.39-.002-.77.093-.78.255zM1433.54 150.733c7.21-.035 14.71.164 21.92.323l.13.003c13.41.34 17.86.497 30.62.995 5.48.195 12.83.369 16.25.324 3.48-.044 6.32.038 6.32.168s-.65.223-1.48.218c-.84-.005-4.39.331-7.94.731-5.68.648-7.81.732-19.61.629-15.8-.127-24.56-.439-30.62-1.124-.71-.069-3.61-.249-6.45-.363-11.92-.493-14.44-.606-19.66-.994-6.32-.427-7.99-.891-3.48-.897 1.75.011 8.07-.016 14-.013zM1756.08 153.053c-.2.161-.52.321-.72.32-.13-.001-.25-.164-.25-.326 0-.194.32-.322.71-.32.32.002.45.133.26.326zM1752.53 153.161c0 .26-.39.517-.91.611-.65.126-.77-.004-.58-.457.39-.712 1.49-.835 1.49-.154zM1411.03 151.02c-.19.161-.9.286-1.61.282-.64-.004-1.22-.137-1.22-.299 0-.162.71-.288 1.61-.283.84.005 1.42.139 1.22.3zM1407.55 151.096c0 .227-2.58.439-2.84.21-.19-.131.39-.257 1.3-.284.83-.027 1.54.009 1.54.074zM1386.07 151.065c.97.168 1.09.753.26.748-.29-.002-.63-.184-.88-.408a1.378 1.378 0 01-.2-.256c-.13-.234.06-.265.32-.205.16.035.34.078.5.121zM1388.85 151.504c0 .162-.33.322-.71.32-.32-.002-.45-.165-.26-.326.2-.194.52-.322.71-.32.13 0 .26.131.26.326zM1382.59 151.596c.26.326.06.422-.51.289-.52-.101-.78-.297-.58-.458.45-.387.71-.353 1.09.169zM1379.49 151.772c.2.163.07.325-.26.323-.38-.003-.71-.167-.7-.329 0-.195.13-.324.26-.323.19.001.51.133.7.329zM1885.35 155.255c1.23.169 2.45.501 2.71.665.32.229.51.23.51-.062 0-.292.33-.323 1.1-.091.64.166 2.96.505 5.22.713 3.03.342 3.99.575 3.86.931-.26.68-1.81.898-1.81.249.01-.681-1.09-.947-2.38-.598-.58.191-1.68.185-2.38.05-.78-.134-3.03-.504-5.09-.841-2-.337-3.67-.736-3.67-.866 0-.162-.39-.197-.91-.103-.87.16-1.15-.472-.26-.418.72.043 1.77.166 3.1.371zM1376.27 152.077c-.2.161-.52.321-.71.32-.13-.001-.26-.164-.26-.326 0-.194.32-.322.71-.32.32.002.45.132.26.326zM1374.65 152.067c0 .195-.45.322-.97.319-.51-.003-.96-.071-.96-.136 0-.065.45-.192.97-.318.51-.095.96-.027.96.135zM1369.82 152.038c.19.164.06.325-.26.323-.39-.002-.71-.166-.71-.328.01-.195.13-.324.26-.323.2.001.52.133.71.328zM1100.08 152.273c-.45.095-1.03.059-1.23-.04-.25-.098.13-.193.84-.157.71.005.91.103.39.197zM1096.35 152.115c.39-.239.19.991-.08.622-.19-.228-.13-.52.07-.616 0-.002 0-.004.01-.006zM1905.77 157.94c1.35.398 1.23.429-1.48.478-2.58.017-2.78-.017-1.93-.433 1.09-.578 1.55-.575 3.41-.045zM1608.13 156.191c1.35.008 2.78.163 4.13.206.67.022 1.47.042 2.32.059 3.74.055 4.25.156 5.86 1.074.96.557 1.54 1.145 1.34 1.306-.19.161-2.9.177-6.25.06-3.22-.149-8.06-.341-10.7-.454-2.65-.113-6.38-.363-8.19-.536-1.87-.205-3.67-.281-4-.186-.32.128-.77.061-.96-.103-.2-.131-2.26-.273-4.58-.254-2.32-.014-4.19-.09-4.19-.253 0-.129-.45-.229-.97-.233-.96-.005-1.41-.624-.51-.684 2.32-.083 22.64-.059 21.28.063-1.93.15-2.32.57-.71.871 1.61.334 6.06.264 6.06-.093 0-.195-.64-.328-1.42-.333-2.06-.012-.7-.491 1.49-.51zM1392.05 155.157c.71.134 1.29.17 1.29.04 0-.097.52.036 1.09.266.58.263.91.298.65.101-.39-.359 2.58-.341 9.22.088 4.83.321 4.77.321 5.28.681.71.458.64.815-.2.81-.32-.002-.45-.198-.19-.423.33-.258.13-.227-.58.061-.77.287-4.13.527-10.25.652-9.48.236-12.39.153-5.74-.196 4-.203 5.48-.616 3.49-.953-3.03-.472-15.99-.29-23.99.343-4.33.331-16 .683-15.55.427.46-.192 5.36-.488 8.97-.466 2.19-.019 2.71-.113 2.39-.505-.26-.326 0-.454.9-.384.71.069 1.42.203 1.68.302.19.099 1.29-.024 2.39-.31 4.13-.981 4.32-1.012 4.32-.688 0 .227.39.262 1.22.04.72-.223 1.94-.216 3.23-.013 1.09.169 2 .174 2 .012 0-.325 6.58-.22 8.38.115zM1580.33 156.673c0 .325-.91.417-3.16.371-3.74-.055-3.55-.411.39-.647 2.06-.117 2.77-.048 2.77.276zM1799.89 158.701c.64.394 1.48.658 1.8.563.26-.063 1.03-.026 1.61.107.58.133 1.55.269 2.13.305.64.036 1.55.301 2.19.597.83.427 1.35.495 2.38.209.71-.191 1.17-.22.91-.027-.2.161.83.427 2.38.566 1.48.138 2.38.306 2 .368-.39.095-2.45.018-4.52-.189-2.06-.174-3.87-.185-3.99-.024-.26.323-2.97-.18-4.45-.87-.64-.296-1.86-.79-2.7-1.119-.84-.33-1.42-.723-1.28-.917.13-.194.83.005 1.54.431z" fill="#fff"/><path d="M1383.79 156.892c-.39.062-1.16.058-1.62-.01-.38-.099-.06-.162.84-.157.91.006 1.23.072.78.167zM1354.32 157.17c.96.2.71.263-1.16.252-1.29.025-2.39-.046-2.39-.111 0-.292 2.39-.375 3.55-.141z" fill="#fff"/><path d="M1323.36 156.952c3.16.116 10.51.225 16.25.259 5.8.035 10.51.161 10.51.29 0 .163-.65.256-1.49.283-2.32.019-5.16.294-6.19.58-3.1.857 16.7.879 29.27.045 10.58-.715 11.74-.546 2.26.306-1.94.183-9.23.723-11.94.869-17.67 1.095-25.15 1.213-27.4.453-.9-.298-2.77-.568-4.26-.61-1.48-.041-2.9-.147-3.22-.246-2.64-.795-22.3-.977-29.27-.273-.91.092-3.81.302-6.45.448-2.65.179-6.13.418-7.75.571-2.06.214-3.16.175-3.8-.088-.77-.297-.84-.297-.45-.003.32.294 0 .422-1.04.448-.83.028-2.19.084-3.03.112-.9.027-2.06-.175-2.57-.437-.97-.46-.9-.492.06-.292.71.134 1.16.072 1.16-.155.01-.195.2-.291.39-.16.2.098.97-.059 1.62-.38 1.74-.801 20.58-2.18 20.58-1.499 0 .162-.59.288-1.23.285-1.15-.007-1.26.587-.11.633.28.012.6.018.94.021 1.62.009 2.97-.145 2.97-.307 0-.195-.45-.327-.96-.33-.52-.003-.97-.136-.97-.298 0-.617 14.97-.949 26.12-.525zm-19.86.4c-3.23.273-3.04.761.31.781 3.29.019 5.68-.258 5.68-.648 0-.324-2.51-.372-5.99-.133z" fill="#fff"/><path d="M1384.75 157.871c-.59.061-1.62.055-2.26-.014-.58-.1-.07-.162 1.16-.155 1.22.008 1.74.075 1.1.169zM1818.38 161.765c-.39.062-1.16.058-1.61-.01-.39-.099-.07-.162.84-.157.9.006 1.22.072.77.167zM1770.84 162.843c.2.164.07.39-.32.517-.32.096-.65-.036-.64-.295 0-.584.39-.68.96-.222zM1791.8 163.65c.77.264.77.329-.33.323-.71-.005-1.74-.173-2.25-.338-.77-.265-.77-.33.32-.323.71.004 1.74.173 2.26.338zM1503.89 162.316c1.93.53 1.99.596.96.914-1.3.414-2.13.377-1.62-.01.26-.193.07-.551-.31-.813-.97-.59-.77-.588.97-.091zM1501.88 162.758c.2.261.13.39-.19.291-.32-.1-.77-.037-1.03.156-.2.161-1.1.318-2 .312-.97-.006-1.49-.138-1.23-.364.26-.193.84-.255 1.36-.154.51.1.9.038.9-.092 0-.519 1.81-.638 2.19-.149zM1693.52 164.879c-.2.291-.39.581-.39.646 0 .065-.58.127-1.29.122-1.61-.009-1.67-.529-.06-.973 1.74-.444 2.2-.409 1.74.205zM1689.9 165.214c0 .227-.71.418-1.55.413-.83-.005-1.8-.206-2.19-.435-.57-.328-.19-.423 1.55-.413 1.36.008 2.2.175 2.19.435zM1179.66 161.835c1.29.235.97.72-.39.647-.71-.005-1.09-.202-.9-.46.27-.307.66-.344 1.05-.248l.24.061zM1174.32 161.992c.39-.239.19.991-.08.622-.19-.229-.12-.52.07-.616 0-.002.01-.004.01-.006zM1172.76 162.215c.77.265.64.329-.52.322-.84-.005-1.29-.138-1.09-.331.45-.387.39-.387 1.61.009zM1169.02 162.258c.64.198.64.263-.07.259-.51-.003-.71.19-.45.484.25.391.12.423-.84.19-.77-.232-1.42-.203-1.94.053-.45.224-.77.222-.71.061.27-.68-.06-.942-.57-.523-.33.258-1.62.445-2.91.469-2.32.019-3.03-.277-1.54-.56.64-.126.64-.191 0-.195-.52-.036-1.03.253-1.23.609-.33.55-.52.581-1.55.185-1.41-.495-4.64-.319-4.06.236.19.195-.07.097-.58-.199-.71-.458-1.03-.492-1.74-.172-.45.224-.65.223-.45.03.26-.226-.39-.327-2-.272-.65.012-1.23.066-1.65.142-.46.084-.6.623-1.06.621-.39-.003-.65-.264-.65-.588-.06-.487-.12-.488-.96.059-.52.354-.97.481-.97.318 0-.259-1.23-.331-4.06-.186-.26.031-1.1.35-1.88.735-.9.449-1.23.512-.97.189.33-.452.07-.486-1.61-.237-1.09.123-2.25.181-2.51.082-.32-.099-.58.029-.58.256-.01.26-.2.291-.52.095-.26-.197-.97-.363-1.61-.399-.84-.038-1.1.123-.78.482.32.456.26.488-.38.127-.9-.427-3.81-.574-3.81-.152 0 .129-1.22.187-2.71.113l-.84-.045c-.33-.018-.38-.492-.06-.577 1.68-.444 4.39-.687 7.94-.796.84.005 1.48-.121 1.48-.25.01-.098 1.3-.22 2.84-.211 2.58-.017 4.07-.105 8.07-.503.84-.06 2.64-.017 3.99.154 1.36.17 2.52.177 2.65.016.13-.129 2.45-.31 5.22-.391 3.55-.076 4.9-.035 4.58.222-.32.225-.13.259.45.068 1.16-.35 10-.362 11.03.001zM1709.25 165.719c0 .195-1.16.285-2.58.277-1.42-.009-2.39-.144-2.19-.305.45-.387 4.77-.361 4.77.028zM1633.54 165.688c.45.359-.33.906-1.23.901-.45-.003-.39-.132.2-.323.84-.287.84-.32 0-.357a22.98 22.98 0 00-2.13-.013c-.58.029-1.1-.104-1.09-.299 0-.389 3.8-.301 4.25.091zM1628.64 165.594c0 .162-.32.322-.64.32-.39-.002-.65-.166-.65-.328 0-.195.26-.323.65-.321.32.002.64.134.64.329zM1835.23 167.674c.32.423.13.487-1.03.318-.84-.102-2.58-.21-3.93-.218-1.5-.009-1.34-.57.15-.622.42-.015.87-.021 1.33-.018 2.26.013 3.23.149 3.48.54zM1639.54 166.081c.77.004.61.741-.15.76-.54.014-1.08-.128-1.08-.411 0-.227.59-.385 1.23-.349zM1637.54 166.36c-.13.194-.65.451-1.04.513-.45.063-.64-.068-.38-.391.45-.582 1.81-.703 1.42-.122zM1635.08 166.411c0 .292-.32.517-.64.515-.39-.002-.65-.133-.65-.296 0-.194.26-.42.65-.515.32-.095.65.036.64.296zM1644.37 166.726c1.29.365 1.35 1.241.06 1.233-.58-.003-1.61-.269-2.32-.63-1.22-.592-1.22-.624-.06-.747.71-.093 1.74-.022 2.32.144z" fill="#fff"/><path d="M1140.77 163.581c.13.131.06.455-.33.712-.45.387-.58.321-.58-.263.01-.746.33-.906.91-.449zM1650.55 167.639c0 .162-.45.354-.97.481-.58.094-.96-.006-.96-.298 0-.26.45-.484.97-.481.51.003.96.136.96.298zM1587.75 167.198c-.2.129-1.1.253-1.87.313-1.1.059-1.23.026-.45-.229 1.09-.351 3.03-.436 2.32-.084zM1583.75 167.207c.58.458.64.458-2.39.505-2.26.083-2.9-.115-1.99-.564.19-.096 1.09-.058 1.87.109.4.079.74.122 1.01.13.56.016 1.05-.524 1.5-.18zM1577.95 167.205c.19.163-.33.355-1.23.414-1.94.183-2.06.053-.39-.392.71-.19 1.42-.186 1.62-.022zM1573.17 167.338c0 .422-.71.515-3.42.499-1.8.021-8.32.047-14.31.109-6.07.061-10.71.001-10.45-.128.65-.32 2-.474 5.94-.613 3.8-.14 16.7-.062 19.02.114.9.07 2-.021 2.39-.213.58-.224.83-.157.83.232zM1362.96 166.274c.58.199.64.329.19.326-.38-.002-.96-.168-1.16-.331-.51-.393-.25-.391.97.005zM1122.44 166.197c0 .383-.64.058-1.02.109-.22.03-.48.1-.72.205-.71.255-.78.223-.45-.197.45-.582 2.19-.701 2.19-.117zM1119.86 165.922c0 .097-.84.384-1.87.67-1.36.317-2.33.376-3.42.175-1.35-.301-1.35-.333-.19-.391.71-.028 1.74-.054 2.25-.019.52.003 1.42-.121 2.07-.28.65-.158 1.16-.22 1.16-.155zM1431.31 167.981c.51.847.44 1.333-.14 1.038-.38-.197-.51-.522-.31-.781.19-.226.38-.354.45-.257zM1453.87 168.701c0 .129-.58.256-1.29.284-.71.028-1.16-.072-.96-.265.45-.355 2.25-.376 2.25-.019zM1448.39 168.733c.19.163.06.324-.26.323-.39-.003-.71-.167-.71-.329.01-.195.13-.324.26-.323.2.001.52.133.71.329zM1441.94 168.726c2.32.274 2.13.338-1.16.415-1.48.056-2.38-.079-2.38-.306 0-.422.71-.45 3.54-.109zM1436.66 168.565c.96.492.31.748-1.81.735-1.55-.009-2.26-.175-2.26-.5.01-.584 1.04-.643 1.49-.088.27.352.49-.245.93-.336.49-.102 1.21-.056 1.65.189zM1096.51 167.924c-.01.454-.14.615-.33.387a.271.271 0 01-.04-.088c-.18-.462.37-.793.37-.299zM1255.54 176.339c-.19.161-.52.321-.71.32-.13-.001-.26-.164-.26-.326 0-.195.33-.322.71-.32.33.002.45.132.26.326zM1096.2 177.099c.39-.239.19.991-.08.622-.19-.228-.13-.52.07-.616 0-.002 0-.004.01-.006z" fill="#fff"/></svg>