<svg width="1920" height="50" fill="none" xmlns="http://www.w3.org/2000/svg"><path d="M1709.16.528c7.79.287 12.14.545 9.44.545-6.9.029-12.44.516-12.44 1.06 0 .373-.45.402-2.1.144-1.65-.287-3-.287-5.55-.029-2.25.23-2.84.258-2.25.029 1.2-.344.75-.401-11.84-.917-4.94-.201-9.59-.459-10.49-.602-.75-.115-4.05-.23-7.34-.23-11.55 0-4.5-.229 11.84-.372 12.29-.086 20.08 0 30.73.372zM1587.28.156c-1.35.058-3.45.058-4.5 0-.89-.086.15-.143 2.7-.143 2.4 0 3.3.057 1.8.143zM1550.57.443c-.9.057-2.7.057-3.75 0-.9-.086-.15-.143 1.95-.143s2.85.057 1.8.143zM1731.19 1.303c-1.35.057-3.75.057-5.25 0-1.35-.086-.15-.144 2.7-.144s4.04.058 2.55.144zM1853.04 1.646l-6.74.2 7.49.23c9.29.287 11.54.401 7.05.43-1.95.029-3.15.143-2.7.286.45.144 7.49.402 15.44.574 23.23.487 24.58.573 9.44.43-7.79-.058-29.38-.201-47.97-.287-18.58-.086-34.47-.2-35.22-.258-.9-.057 8.99-.115 21.73-.143 18.14 0 22.64-.086 20.24-.344-2.85-.315-2.85-.315 0-.545 2.25-.172 1.35-.23-3-.23-4.49-.028-5.39-.114-3.75-.314 1.2-.144 7.35-.258 13.5-.23 9.74.029 10.34.058 4.49.201zM1803.89 1.875c-1.05.086-2.4.058-2.85-.028-.6-.086.3-.172 1.95-.143 1.65 0 2.1.086.9.171zM1798.19 1.904c.45.143-3 .287-7.65.315-4.65.03-8.24 0-7.79-.057 1.5-.286 14.69-.487 15.44-.258zM8.15 5.314c-1.05.086-2.399.057-2.848-.028-.6-.086.3-.172 1.948-.144 1.65 0 2.099.086.9.172zM1858.3 7.406c6.3.315.15.315-7.49.028-5.1-.2-5.25-.257-1.5-.257 2.4 0 6.44.114 8.99.229zM1919 8.724c0 .945-.6 1.175-2.7 1.175-6.14 0-7.79.114-7.79.515 0 .574 7.5.917 9.14.402.9-.258 1.35.2 1.35 1.26 0 1.548-.15 1.634-3.44 1.519-1.8-.086-7.2-.2-12-.315-4.94-.086-9.74-.315-10.79-.545-1.05-.2-8.24-.515-16.04-.716-17.24-.43-25.18-.831-25.18-1.203 0-.172-.6-.23-1.35-.144-.75.115-3 .058-4.95-.086-2.39-.172 1.35-.258 12-.229 8.39.029 15.29-.057 15.29-.172 0-.114 1.34-.086 2.84.086 3.75.373 9.15.373 9.15 0 0-.172-1.2-.286-2.55-.286-4.65 0-.75-.344 5.1-.43 3.14-.029 6.29-.086 7.04-.115 2.4-.057-1.95-.716-7.04-1.117l-4.8-.344 4.95.143c2.69.057 4.64.029 4.19-.086-.45-.143 1.35-.172 3.9-.114 2.85.085 4.2.028 3.75-.144-.6-.2 2.7-.286 9.44-.258l9.32.026c.65.002 1.17.528 1.17 1.178zm-17.53 1.69c-.3.172.89.316 2.54.316s3-.172 3-.402c0-.43-4.8-.372-5.54.086zm-14.69-.114c-.45.086 2.39.172 5.99.143 3.75 0 6.75-.115 6.75-.258 0-.258-11.85-.172-12.74.115zm-8.25 1.089c0 .43 3.75.573 21.74.773 11.99.143 17.23.115 17.23-.114 0-.287-3.59-.43-16.48-.717-10.35-.2-22.49-.2-22.49.058zM1855.29 8.752c1.65.086 3.6.258 4.35.402.75.114-.9.114-3.75-.029-2.85-.143-6.44-.315-8.09-.373-2.25-.114-2.1-.143.75-.143 2.1 0 5.09.058 6.74.143z" fill="#fff"/><path d="M1875.84 9.612c-.9.057-2.7.057-3.75 0-.9-.086-.15-.143 1.95-.143s2.85.057 1.8.143zM1791.44 14.798c.9.057 1.65.23 1.65.373 0 .229-13.19.114-14.54-.144-.75-.143 10.95-.343 12.89-.229zM1733.15 14.941c9.89.144 18.13.402 19.48.631 1.2.2 3.3.43 4.5.516 1.2.086-5.55.086-14.99 0-11.99-.086-17.99-.258-19.64-.545-1.19-.229-4.49-.401-7.04-.401-2.7 0-4.8-.115-4.8-.23 0-.286 1.95-.286 22.49.03zM1803.58 15.142c-1.8.23-1.5.286 1.5.315 2.1 0 6.59.057 10.04.115 3.6.028 6.45-.029 6.45-.172 0-.144.6-.258 1.5-.258.75 0 1.5.23 1.5.544 0 .66-6.45.831-27.73.803-12.6 0-13.2-.029-4.2-.115 10.64-.114 13.94-.43 7.94-.802-4.34-.258-3.59-.717 1.05-.717 3.3 0 3.75.057 1.95.287zM1917.51 15.572c1.11-.478 1.18.824-.03.843-.51.008-1.18-.008-2.07-.04-2.39-.087-3.44-.287-2.84-.545.48-.26 1.43-.39 2.23-.384.96.007 1.83.498 2.71.126zM1595.54 16.489c-1.05.086-2.4.057-2.85-.029-.6-.085.3-.171 1.95-.143 1.65 0 2.1.086.9.172zM1575.45 16.718c-1.65.344-14.69.66-15.59.373-.45-.115.9-.23 2.85-.23 2.1 0 5.99-.086 8.69-.172 2.85-.114 4.65-.086 4.05.029zM1753.22 17.119c.45.143-.15.315-1.34.43-1.2.086-2.25.029-2.25-.115 0-.372 2.7-.63 3.59-.315zM1743.17 17.09c4.2.115 4.5.631.45.832-1.64.086-2.99.258-2.99.4 0 .144-1.5.23-3.45.144-3.45-.114-9.74.516-7.5.774 1.2.143 12.15.458 22.64.63 4.94.086 9.29.573 9.29 1.032 0 .143-1.05.172-2.25.086-1.2-.115-2.25-.029-2.25.172 0 .171-.59.258-1.34.171-.75-.114-1.8 0-2.1.172-.6.258-1.2.258-2.1.086-.6-.171-4.2-.315-7.8-.343-3.59-.03-7.94-.172-9.74-.344-1.8-.172-5.55-.344-8.39-.401-4.95-.115-4.95-.115 1.05-.144 7.94-.057 9.74-.544 2.84-.773-3.89-.144-4.94-.316-4.34-.63.6-.316.3-.402-1.2-.316-1.2.086-1.95.287-1.8.458.15.172-3.45.287-8.54.316-6.9 0-9-.086-9-.401 0-.344.75-.344 4.05-.115 2.7.2 4.5.172 5.54-.029 1.05-.2.75-.286-1.19-.286-1.35 0-2.1-.143-1.65-.287.45-.172 3.59-.286 6.89-.286 6.75 0 7.5-.545 1.2-.889-3.45-.2 16.94-.229 23.68-.028zM1557.75 17.148c0 .143-2.55.343-5.69.43-3 .114-7.65.315-10.05.43-11.54.63-29.52.917-47.96.745-34.18-.316-66.71-.803-70.9-1.032-4.95-.287 40.47-.086 58.16.258 7.04.114 16.04.2 20.23.143 23.84-.315 29.23-.401 35.98-.573 4.04-.086 8.69-.172 10.19-.172 1.5.029 4.5-.086 6.45-.23 2.24-.171 3.59-.171 3.59 0zM1257.22 17.607c18.43.573 58.45 1.26 73.29 1.26 7.35 0 12.9.086 12.45.172-.45.115-4.35.172-8.55.144-4.8 0-7.49.114-7.49.315 0 .172-.45.229-1.05.143-.45-.115-1.95.057-3.15.401-1.5.43-1.65.688-.45.917.75.143 12.89.545 26.68.802 29.83.63 32.08.717 31.03 1.204-.9.516 3.15 1.175 6 .974 1.19-.086 2.54-.029 2.99.172.52.295 1.02-.238 1.61-.256.3-.009.67.01 1.09.055 1.05.115 6.6.258 12.44.287 5.7.057 14.69.143 19.79.2 7.04.115 9.74.058 11.09-.286 1.5-.344 1.5-.458-.3-.659-2.85-.373-15.44-.86-21.28-.86-2.7 0-5.85-.143-7.05-.315-2.7-.344 37.32-.114 47.97.287 3.74.143 7.19.2 7.79.143.75-.086 1.2 0 1.2.143 0 .172 1.05.316 2.4.316 1.2 0 1.8-.144 1.35-.287-1.65-.487.45-.315 3.45.287 2.39.487 6.44.659 25.93 1.002 11.3.204 20.71.384 22.8.423.28.005.58.131.58.408 0 .401-2.1.459-5.1.086-.89-.114-2.09-.086-2.54.029-.9.286-3.45.286-38.08-.086-11.83-.115-17.36-.14-19.72-.05-1.06.04-2.05.466-3.06.136-.9-.258-2.7-.43-4.2-.373-1.35.03-3.75-.057-5.09-.2-2.1-.2-2.4-.143-1.65.258 1.65.888 2.25 1.003 3.44.659.75-.23 1.65-.23 3.15.086 1.35.229 3.3.315 5.1.2 1.65-.114 4.05-.114 5.25 0 2.54.258 12.44.516 27.73.745 5.69.058 10.64.2 10.94.258 1.5.258-6.6.63-11.69.545-2.85-.03-12-.172-20.09-.258-8.24-.086-15.44-.23-16.19-.316-.6-.085-10.34-.2-21.58-.229-15.29-.086-20.84-.2-21.74-.487-1.05-.344-1.35-.344-1.35 0s-.45.344-1.8.086c-2.54-.487-5.84-.43-4.79.057.6.344-.15.402-3.3.287-2.25-.086-4.65-.2-5.4-.287-.6-.085-1.2-.028-1.2.144 0 .143-3.59.4-7.94.573-8.69.315-25.03.344-25.03.028 0-.114-1.65-.143-3.75-.057-2.1.057-3.75 0-3.75-.172 0-.344 3.6-.63 8.4-.63 2.55 0 3.29-.115 2.7-.43-.6-.23-1.95-.43-3.15-.43-1.61 0-1.75-1.849-3.36-1.933a15.86 15.86 0 00-.39-.015c-2.4-.086-5.4.974-3.6 1.29.45.114.9-.03.9-.316 0-.258.75-.401 1.5-.315 1.2.143 1.05.315-.15.601-2.4.545-3.9.516-4.8-.143-.6-.458-2.09-.544-10.19-.573-5.24 0-14.39-.2-20.08-.43-28.78-1.117-34.33-1.318-39.13-1.318-2.99 0-4.94-.114-4.49-.229.45-.143-.75-.2-2.55-.172-1.8.029-3.3.086-3.3.115 0 .028-1.2.086-2.7.143-1.35.057-2.55-.029-2.55-.2 0-.144-1.04-.058-2.39.171-1.2.258-3.6.459-5.25.459s-2.7.086-2.25.23c.6.2-23.08.257-38.82.056l-7.5-.086 10.2-.229c16.04-.344 15.89-.802-.15-1.117-8.85-.172-7.5-.23 10.19-.287 31.33-.143 36.12-.086 40.02.373 1.2.143 1.95.086 1.95-.086s.75-.23 1.65-.115c.9.086 2.25 0 3-.2.9-.287 1.35-.316 1.35-.058 0 .2.75.373 1.64.373.75 0 1.05-.144.6-.287-.45-.172.15-.286 1.65-.286 2.1 0 2.25-.058.45-.488-1.2-.257-1.35-.4-.45-.286 2.4.287 4.2-.716 1.8-1.003-1.05-.114-2.25-.23-2.7-.258-1.5-.057-6.89-.229-11.84-.372-2.85-.086-13.34-.23-23.08-.316-19.94-.143-25.48-.43-8.85-.43 5.7 0 11.4-.057 12.6-.114 1.04-.057 7.34.086 13.94.287zm61.45 4.47c3.75.43 33.58.687 31.48.286-1.95-.401-7.79-.544-22.48-.573-9.6-.029-11.4.029-9 .287zm43.17 2.521c-.6 0-.15-.143 1.05-.286 1.2-.144 1.5-.287.75-.316-.9 0-2.85-.057-4.65-.085-2.69-.058-2.84 0-1.49.572.89.344 2.09.574 2.69.516.75-.086 1.2.058 1.2.287 0 .258.6.458 1.5.458.75 0 1.05-.172.6-.4-.45-.23.45-.46 2.25-.545 3.45-.172 4.05.086 1.35.601-2.85.545-.45.402 3-.2 5.84-.946 2.69-1.777-3.75-1.003-1.8.23-3.9.401-4.5.401zm74.5.401c0 .086.6.23 1.5.316.75.085 1.5.028 1.5-.115 0-.172-.75-.315-1.5-.315-.9 0-1.5.057-1.5.114zm-59.21 1.032c-.45.172.15.2 1.35.114 2.7-.2 3.15-.4 1.05-.4-.9 0-1.95.114-2.4.286zM1184.06 17.348c-1.35.058-3.45.058-4.5 0-.9-.086.15-.143 2.7-.143 2.4 0 3.3.057 1.8.143zM1417.15 17.635c-1.05.086-2.39.058-2.84-.028-.6-.086.3-.172 1.94-.143 1.65 0 2.1.085.9.171zM1214.05 17.922c-2.25.057-5.84.057-8.24 0-2.25-.058-.3-.115 4.19-.115 4.5 0 6.45.057 4.05.115zM1918.71 18.724c0 .32-.14.501-.38.483-.26-.02-.53-.23-.58-.485-.08-.4.49-.745.8-.473.1.096.16.257.16.475zM1613.22 18.552c0 .172-1.79.315-4.19.344-17.09.057-21.59.172-23.84.544-1.94.316-6.44.43-15.88.43-7.2 0-13.04-.086-13.04-.23 0-.114.59-.2 1.49-.2.75 0 1.5-.172 1.5-.401 0-.23 1.2-.43 2.55-.401 1.5 0 13.64-.086 26.98-.23 17.99-.143 24.43-.114 24.43.144zM1855.44 19.01c-.45.602-2.4.889-2.4.344 0-.258.6-.516 1.35-.602.75-.114 1.2.029 1.05.258zM1700.16 18.752c-2.09.057-6.14.2-8.99.287-4.8.143-4.95.2-2.55.544 2.85.402 4.2.373-39.42.545-13.64.057-22.18-.258-24.88-.946-1.5-.373-2.1-.373-4.5-.029-1.5.23-2.25.287-1.65.086.6-.172.15-.401-.75-.487-1.05-.086 7.5-.115 19.04-.029 11.54.058 21.58.115 22.48.115 34.48-.172 44.22-.172 41.22-.086zm-64.9.315c1.05.058 3.15.058 4.5 0 1.5-.086.6-.143-1.8-.143-2.55 0-3.6.057-2.7.143zM1879.29 19.182c5.39.23 4.94.287-3.45.401-4.2.058-6.3 0-6-.2.75-.402 3.75-.459 9.45-.201zM1867.44 19.182c.45.172.15.459-.74.63-1.2.23-1.65.144-1.65-.314 0-.688.75-.803 2.39-.316zM1859.64 19.21c-.75.23-.3.259 1.35.144 1.5-.086 2.55-.057 2.55.086 0 .172-1.35.287-3 .287s-3-.201-3-.43c0-.23.75-.43 1.65-.43.75 0 1.05.143.45.344zM1416.85 19.182c15.14.344 16.94.573 3 .373-6.14-.058-22.63-.2-36.57-.258-13.79-.058-25.63-.172-26.08-.258-1.2-.258 47.06-.115 59.65.143zM1816.63 19.64c3.45.087 4.5.23 3.9.545-.45.2-1.2.344-1.8.258-.6-.057-6.45-.143-13.04-.172-13.19-.057-17.54-.2-16.34-.516 1.05-.344 8.24-.286 8.24.029 0 .2.6.2 1.8.029 2.25-.316 8.7-.287 11.69.057 1.35.143 1.65.114.9-.086-.6-.2-.9-.315-.6-.287.3 0 2.55.086 5.25.143zM1712.9 20.013c1.95.144 2.1.258.75.258-1.2 0-3.6-.114-5.25-.258-1.95-.143-2.1-.258-.75-.258 1.2 0 3.6.115 5.25.258zM1444.59 20.013c2.4.2 2.55.258.45.258-1.35.029-3-.115-3.45-.258-1.05-.315-1.05-.315 3 0zM1514.73 20.672c.9.43 2.55.487 14.54.372 7.35-.057 13.5 0 13.5.087 0 .114-7.2.372-16.19.544-32.68.688-62.96.23-65.36-1.003-.6-.287-.15-.373 1.8-.258 5.4.344 21.14.63 20.39.401-.45-.143 1.05-.172 3.29-.057 2.4.114 5.25.2 6.6.172 4.95-.115 16.94-.029 18.14.086.6.086 1.35-.086 1.65-.344.45-.487.6-.487 1.64 0zM1458.08 20.558c.45.172-.6.229-2.4.172-4.5-.172-5.55-.43-1.65-.43 1.65 0 3.45.114 4.05.258zM849.512 20.901c4.496.201 4.496.201-.75.172-2.998 0-6.146.086-7.195.201-1.049.115-1.799.143-1.799.057 0-.372 5.696-.63 9.744-.43zM834.522 21.16c.449.143-.15.286-1.349.286-1.35 0-2.399-.143-2.399-.287 0-.171.6-.286 1.349-.286.9 0 1.949.114 2.399.286zM1080.34 23.967c.45.086 4.05.143 22.78.43 5.85.086 2.1.43-7.34.63-10.49.23-43.02.259-49.92.03-2.54-.058-10.19-.23-17.23-.316-12.75-.2-17.24-.487-12.9-.802 1.35-.115 2.4-.058 2.4.114 0 .172.75.2 1.8.057 1.8-.2 59.36-.343 60.41-.143zM1589.54 24.311c8.69.172 14.39.487 23.53 1.318 6.74.63 12.14 1.26 12.14 1.461 0 .201-1.05.287-2.7.201-1.65-.114-1.2.029 1.2.43 2.1.315 4.5.602 5.4.602.9 0 1.65.171 1.65.4 0 .488-7.95.316-15.89-.343-6.6-.544-5.85-.516-11.69-.774-2.7-.114-4.65-.315-4.2-.43.45-.143-2.4-.286-6.45-.372-3.89-.086-9.74-.258-13.04-.344-3.29-.114-7.79-.2-10.19-.23-2.25 0-4.05-.085-4.05-.171 0-.086-3.44-.172-7.49-.172-4.2 0-7.5-.143-7.35-.287.15-.171.75-.257 1.5-.2.75.029 1.35-.057 1.35-.2 0-.144-2.25-.316-4.8-.43-3.74-.144-5.39-.058-6.74.315-1.8.458-1.95.458-1.95 0 0-.258-.9-.516-1.95-.516-.9-.029.6-.143 3.45-.23 7.19-.286 34.33-.286 48.27-.028zm-6.3 1.118c0 .487 3.9.773 11.99.86 13.94.114 5.4-.774-10.19-1.09-.9 0-1.8.086-1.8.23zM805.502 24.2c3.151-.004 6.313.029 9.464.06 4.68.049 12.383.112 21.05.165 31.178.23 41.521.344 71.2.717 12.741.143 29.829.258 37.773.2 8.094-.057 14.69 0 14.69.115s-1.499.2-3.448.2c-1.948 0-10.193.316-18.437.689-13.191.601-18.137.687-45.568.659-36.724-.029-57.11-.258-71.2-.831-1.648-.058-8.394-.201-14.989-.287-27.731-.373-33.576-.459-45.718-.774-14.69-.344-18.587-.745-8.094-.774 4.047 0 18.737-.057 32.527-.086 8.539-.035 16.121-.049 20.75-.054zM1534.53 24.598c-.45.143-1.2.286-1.65.286-.3 0-.6-.143-.6-.286 0-.172.75-.287 1.65-.287.75 0 1.05.115.6.287zM1526.28 24.712c0 .23-.9.459-2.1.545-1.5.114-1.8 0-1.35-.402.9-.63 3.45-.745 3.45-.143zM732.443 24.626c-.449.144-2.098.258-3.747.258-1.499 0-2.848-.114-2.848-.258 0-.143 1.649-.258 3.747-.258 1.949 0 3.298.115 2.848.258zM724.354 24.712c0 .201-5.995.402-6.595.201-.45-.114.899-.23 2.998-.258 1.949-.029 3.597 0 3.597.057zM674.424 24.799c2.248.143 2.548.659.599.659-.749 0-1.649-.2-2.248-.43-.423-.215-.212-.39.261-.352.403.032.916.077 1.388.123zM680.882 25.171c0 .143-.75.287-1.649.287-.749 0-1.049-.143-.6-.287.45-.172 1.2-.287 1.649-.287.3 0 .6.115.6.287zM666.34 25.286c.6.286.15.372-1.199.258-1.199-.086-1.799-.258-1.349-.402 1.049-.343 1.649-.315 2.548.144zM659.138 25.457c.45.144.15.287-.599.287-.9 0-1.649-.143-1.649-.287 0-.172.3-.286.599-.286.45 0 1.2.114 1.649.286zM1835.06 25.858c2.85.143 5.7.43 6.3.573.75.2 1.2.2 1.2-.057 0-.258.75-.287 2.55-.086 1.5.143 6.89.43 12.14.602 7.04.286 9.29.487 8.99.802-.6.602-4.19.803-4.19.23 0-.602-2.55-.832-5.55-.517-1.35.172-3.9.172-5.55.058-1.8-.115-7.04-.43-11.84-.717-4.65-.286-8.54-.63-8.54-.745 0-.143-.9-.172-2.1-.086-1.2.086-2.55.029-3-.143-1.2-.344 2.4-.316 9.59.086zM651.643 25.744c-.449.143-1.199.287-1.649.287-.299 0-.599-.144-.599-.287 0-.172.749-.287 1.649-.287.749 0 1.049.115.599.287zM647.898 25.744c0 .172-1.05.287-2.249.287s-2.248-.058-2.248-.115c0-.058 1.049-.172 2.248-.287 1.199-.086 2.249-.028 2.249.115zM636.659 25.744c.45.143.15.287-.6.287-.899 0-1.649-.144-1.649-.287 0-.172.3-.287.6-.287.45 0 1.199.115 1.649.287zM9.642 27.377c-1.05.086-2.398.058-2.848-.028-.6-.086.3-.172 1.949-.144 1.648 0 2.098.086.899.172zM.937 27.262c.665-.169.507.856-.113.563a1.24 1.24 0 01-.037-.018c-.45-.2-.3-.459.15-.545zM1882.57 28.122c3.15.344 2.85.373-3.44.43-6 .03-6.45 0-4.5-.372 2.55-.516 3.6-.516 7.94-.058zM1190.67 28.15c3.18 0 6.41.13 9.59.16 1.57.016 3.42.03 5.4.04 8.69.03 9.89.115 13.64.918 2.24.487 3.59 1.003 3.14 1.146-.45.144-6.74.172-14.54.086-7.49-.114-18.73-.258-24.88-.343-6.14-.087-14.84-.287-19.04-.43-4.34-.172-8.54-.23-9.29-.144-.75.115-1.8.058-2.25-.086-.45-.114-5.24-.229-10.64-.2-5.4 0-9.74-.058-9.74-.2 0-.116-1.05-.202-2.25-.202-2.25 0-3.3-.544-1.2-.601 5.4-.086 52.61-.172 49.46-.058-4.49.143-5.39.516-1.64.774 3.74.287 14.09.2 14.09-.115 0-.171-1.5-.286-3.3-.286-4.8 0-1.65-.43 3.45-.459zM688.371 28.38c1.649.114 2.998.143 2.998.028 0-.086 1.2.029 2.549.23 1.349.229 2.098.257 1.499.086-.9-.316 5.995-.316 21.434.028 11.243.258 11.093.258 12.292.574 1.649.4 1.499.716-.45.716-.749 0-1.049-.172-.45-.373.75-.229.3-.2-1.349.058-1.798.258-9.593.487-23.833.63-22.034.258-28.78.2-13.34-.143 9.293-.2 12.741-.573 8.094-.86-7.045-.401-37.174-.172-55.761.43-10.043.315-37.174.688-36.125.459 1.05-.172 12.442-.459 20.836-.459 5.096-.029 6.295-.115 5.546-.458-.6-.287 0-.402 2.098-.345 1.649.058 3.298.172 3.898.258.449.087 2.998-.028 5.546-.286 9.593-.889 10.043-.917 10.043-.63 0 .2.899.229 2.848.028 1.649-.2 4.497-.2 7.494-.029 2.549.144 4.647.144 4.647 0 0-.286 15.289-.229 19.486.058zM1126.05 28.724c0 .287-2.09.372-7.34.344-8.7-.029-8.25-.344.9-.573 4.79-.115 6.44-.058 6.44.229zM1636.46 29.354c1.5.344 3.45.573 4.19.487.6-.058 2.4-.029 3.75.086 1.35.114 3.6.23 4.95.258 1.5.029 3.6.258 5.09.516 1.95.372 3.15.43 5.55.172 1.65-.172 2.7-.201 2.1-.029-.45.143 1.95.373 5.55.487 3.44.115 5.54.258 4.64.316-.9.086-5.69.028-10.49-.144-4.8-.143-8.99-.143-9.29 0-.6.287-6.9-.143-10.35-.745-1.5-.258-4.34-.688-6.29-.974-1.95-.287-3.3-.631-3-.803.3-.172 1.95 0 3.6.373z" fill="#fff"/><path d="M669.188 29.956c-.899.057-2.698.057-3.747 0-.899-.086-.15-.143 1.949-.143 2.098 0 2.848.057 1.798.143zM600.687 30.357c2.249.172 1.649.23-2.698.23-2.998.028-5.546-.03-5.546-.087 0-.258 5.546-.343 8.244-.143z" fill="#fff"/><path d="M528.726 30.328c7.345.085 24.433.143 37.773.143 13.491 0 24.433.086 24.433.2 0 .144-1.499.23-3.448.258-5.396.03-11.991.287-14.39.545-7.194.774 38.823.688 68.053-.115 24.582-.688 27.28-.544 5.246.258-4.497.172-21.435.688-27.731.832-41.071 1.06-58.458 1.203-63.705.544-2.098-.258-6.445-.487-9.893-.516-3.447-.028-6.745-.114-7.495-.2-6.145-.688-51.863-.746-68.052-.087-2.098.087-8.843.287-14.989.43-6.146.172-14.24.402-17.987.545-4.797.2-7.345.172-8.844-.057-1.799-.258-1.949-.258-1.049 0 .749.258 0 .372-2.399.4-1.948.03-5.096.087-7.045.116-2.098.028-4.796-.144-5.996-.373-2.248-.401-2.098-.43.15-.258 1.649.115 2.698.057 2.698-.143 0-.172.45-.258.9-.144.449.086 2.248-.057 3.747-.344 4.047-.716 47.816-2.035 47.816-1.433 0 .144-1.349.258-2.848.258-1.648 0-3.447.115-3.897.287-.599.172 1.799.287 5.846.287 3.747 0 6.895-.144 6.895-.287 0-.172-1.049-.287-2.248-.287-1.199 0-2.249-.114-2.249-.258 0-.544 34.776-.917 60.708-.601zm-46.168.458c-7.495.258-7.045.688.75.688 7.644 0 13.19-.258 13.19-.602 0-.287-5.846-.315-13.94-.086z" fill="#fff"/><path d="M671.425 30.815a80.033 80.033 0 01-5.246 0c-1.349-.085-.15-.143 2.698-.143s4.047.058 2.548.143zM1679.48 31.962c-.9.057-2.7.057-3.75 0-.9-.086-.15-.143 1.95-.143s2.85.057 1.8.143zM1569 33.165c.45.144.15.344-.75.459-.75.086-1.5-.029-1.5-.258 0-.516.9-.602 2.25-.2zM1617.72 33.767c1.79.23 1.79.287-.75.287-1.65 0-4.05-.144-5.25-.287-1.8-.23-1.8-.287.75-.287 1.65 0 4.05.144 5.25.287zM948.436 34.11c4.497.46 4.647.517 2.249.803-2.998.373-4.947.344-3.748 0 .6-.172.15-.487-.749-.716-2.249-.516-1.799-.516 2.248-.086zM943.79 34.512c.449.229.3.343-.45.258-.749-.086-1.799-.03-2.398.143-.45.143-2.548.287-4.647.287-2.248 0-3.448-.115-2.848-.316.6-.172 1.949-.23 3.148-.143 1.199.086 2.098.029 2.098-.086 0-.459 4.197-.573 5.097-.143zM1389.28 35.372c-.45.258-.9.516-.9.573 0 .057-1.35.115-2.99.115-3.75 0-3.9-.459-.15-.86 4.04-.402 5.09-.373 4.04.172zM1380.88 35.687c0 .2-1.65.372-3.6.372-1.94 0-4.19-.172-5.09-.372-1.35-.287-.45-.373 3.59-.373 3.15 0 5.1.143 5.1.373zM194.771 35.4c2.998.2 2.248.63-.899.573-1.649 0-2.549-.172-2.099-.401.676-.302 1.419-.315 2.157-.25.271.025.563.051.841.078zM182.325 35.572c.665-.17.507.856-.113.563l-.037-.018c-.45-.2-.3-.459.15-.545zM178.732 35.773c1.799.229 1.499.286-1.199.286-1.948 0-2.998-.114-2.548-.286 1.049-.344.899-.344 3.747 0zM170.026 35.83c1.499.172 1.499.229-.15.229-1.199 0-1.649.172-1.049.43.599.344.299.372-1.949.172-1.799-.2-3.298-.172-4.497.057-1.049.2-1.799.2-1.649.057.6-.602-.15-.83-1.349-.458-.749.23-3.747.401-6.745.43-5.396.028-7.045-.23-3.598-.487 1.499-.115 1.499-.172 0-.172-1.199-.03-2.398.229-2.848.544-.749.487-1.199.516-3.597.172-3.298-.43-10.792-.258-9.443.23.449.171-.15.085-1.349-.173-1.649-.4-2.399-.43-4.048-.143-1.049.2-1.499.2-1.049.029.6-.2-.899-.287-4.647-.23-1.6.016-3.029.072-3.992.147-.864.068-1.436.541-2.303.541-1.116 0-1.922-.897-3.007-.64-.213.05-.458.111-.74.182-1.2.315-2.249.43-2.249.286 0-.229-2.848-.286-9.443-.143-.6.029-2.549.315-4.347.66-2.099.4-2.848.458-2.249.171.75-.401.15-.43-3.747-.2-2.548.114-5.246.172-5.846.086-.75-.086-1.349.028-1.349.229 0 .23-.45.258-1.2.086-.599-.172-2.248-.315-3.746-.344-1.95-.029-2.549.115-1.8.43.75.401.6.43-.898.114-2.1-.372-8.844-.487-8.844-.114 0 .114-2.848.172-6.296.114l-6.295-.114 4.197-.43c3.897-.401 10.192-.63 18.437-.745 1.948 0 3.447-.115 3.447-.23 0-.086 2.998-.2 6.596-.2 5.995-.029 9.443-.115 18.736-.487 1.949-.058 6.146-.03 9.294.114 3.148.143 5.846.143 6.146 0 .299-.114 5.695-.286 12.141-.372 8.244-.086 11.392-.058 10.642.172-.749.2-.299.229 1.05.057 2.698-.315 23.233-.373 25.632-.057zM1425.85 36.03c0 .172-2.69.258-5.99.258-3.3 0-5.55-.114-5.1-.258 1.05-.344 11.09-.344 11.09 0zM1249.87 36.403c1.05.315-.75.803-2.85.803-1.05 0-.9-.115.45-.287 1.95-.258 1.95-.287 0-.315-1.2-.029-3.45-.029-4.94 0-1.35.028-2.55-.086-2.55-.258 0-.344 8.84-.287 9.89.057zM1238.49 36.346c0 .143-.75.286-1.5.286-.9 0-1.5-.143-1.5-.286 0-.172.6-.287 1.5-.287.75 0 1.5.115 1.5.287zM1718.73 37.09c.75.373.3.43-2.4.287-1.94-.086-5.99-.172-9.14-.172-3.45 0-5.39-.114-4.8-.286.45-.172 4.2-.287 8.25-.287 5.25 0 7.49.115 8.09.459zM1263.82 36.718c1.59 0 1.34.645-.25.672-1.29.022-2.59-.1-2.59-.356 0-.2 1.34-.344 2.84-.316zM1259.17 36.976c-.3.172-1.5.401-2.4.459-1.05.057-1.5-.058-.9-.344 1.05-.516 4.2-.63 3.3-.115zM1253.47 37.033c0 .258-.75.459-1.5.459-.9 0-1.5-.115-1.5-.258 0-.172.6-.373 1.5-.459.75-.086 1.5.03 1.5.258zM1275.06 37.262c3 .316 3.15 1.09.15 1.09-1.35 0-3.75-.23-5.4-.545-2.84-.516-2.84-.545-.15-.66 1.65-.085 4.05-.028 5.4.115z" fill="#fff"/><path d="M104.386 37.148c.3.115.15.401-.75.63-1.049.345-1.349.287-1.349-.229 0-.659.75-.802 2.099-.401zM1289.44 38.036c0 .144-1.04.316-2.24.43-1.35.086-2.25 0-2.25-.258 0-.23 1.05-.43 2.25-.43s2.24.115 2.24.258zM1143.44 37.98c-.45.114-2.54.229-4.34.286-2.55.057-2.85.029-1.05-.2 2.55-.316 7.04-.402 5.39-.087zM1134.16 38.008c1.35.401 1.5.401-5.55.458-5.24.086-6.74-.086-4.64-.487.45-.086 2.54-.057 4.34.086 1.03.074 1.86.11 2.52.11 1.13 0 2.24-.48 3.33-.167zM1120.66 38.036c.45.144-.75.316-2.85.373-4.5.172-4.8.057-.9-.344 1.65-.172 3.3-.172 3.75-.029zM1109.57 38.18c0 .372-1.65.458-7.95.458-4.19.029-19.33.086-33.27.172-14.09.086-24.88.057-24.28-.057 1.49-.287 4.64-.43 13.79-.573 8.84-.144 38.82-.144 44.21 0 2.1.057 4.65-.03 5.55-.201 1.35-.2 1.95-.143 1.95.2zM620.908 38.352c1.349.172 1.499.286.449.286-.899 0-2.248-.143-2.698-.286-1.199-.344-.599-.344 2.249 0zM61.812 39.555c0 .172-.45.23-1.05.143-.45-.114-1.798-.057-2.998.144-1.649.229-1.798.2-1.049-.172 1.05-.516 5.096-.631 5.096-.115zM55.815 39.326c0 .086-1.949.343-4.347.602-3.148.286-5.396.343-7.945.171-3.147-.257-3.147-.286-.45-.343 1.65-.03 4.048-.058 5.247-.03 1.2 0 3.298-.114 4.797-.257 1.498-.143 2.698-.2 2.698-.143zM779.812 39.498c1.199.745 1.049 1.175-.3.917-.899-.172-1.199-.459-.749-.688.449-.2.899-.316 1.049-.23zM832.268 40.013c0 .115-1.349.23-2.998.258-1.649.029-2.698-.057-2.249-.229 1.05-.315 5.247-.344 5.247-.029zM819.526 40.07c.45.144.15.287-.6.287-.899 0-1.648-.143-1.648-.286 0-.172.299-.287.599-.287.45 0 1.199.115 1.649.287zM804.546 40.1c5.397.229 4.947.286-2.698.372-3.447.057-5.546-.057-5.546-.258 0-.373 1.649-.401 8.244-.115zM792.249 39.984c2.248.43.749.66-4.198.66-3.597 0-5.246-.144-5.246-.43 0-.516 2.398-.574 3.448-.086.637.304 1.206-.204 1.909-.278 1.143-.12 2.984-.096 4.087.134zM1.553 41.217c0 .4-.3.544-.75.344-.51-.293.595-1.066.733-.495a.642.642 0 01.017.15zM371.35 47.807c-.45.143-1.199.286-1.649.286-.3 0-.599-.143-.599-.286 0-.172.749-.287 1.649-.287.749 0 1.049.115.599.287zM.941 49.326c.665-.17.507.855-.113.562a1.553 1.553 0 01-.037-.017c-.45-.201-.3-.46.15-.545z" fill="#fff"/></svg>