<svg width="1920" height="183" viewBox="0 0 1920 183" fill="none" xmlns="http://www.w3.org/2000/svg">
<path d="M1921 127.352L1840.92 127.352C1760.83 127.352 1440.5 133.422 1440.5 133.422C1440.5 133.422 1120.17 151.748 960 154.585C799.833 157.422 639.667 151.748 479.5 130.359C319.333 109.196 159.167 72.8853 79.0834 54.7299L-0.999969 36.5745V0.263672H79.0834C159.167 0.263672 319.333 0.263672 479.5 0.263672C639.667 0.263672 799.833 0.263672 960 0.263672C1120.17 0.263672 1440.5 0.263672 1440.5 0.263672C1440.5 0.263672 1760.83 0.263672 1840.92 0.263672H1921V127.352Z" fill="white"/>
<path d="M1831.36 126.248C1834.71 126.592 1836.58 126.895 1835.42 126.888C1832.45 126.903 1830.06 127.44 1830.06 128.057C1830.06 128.479 1829.86 128.51 1829.15 128.214C1828.45 127.885 1827.87 127.882 1826.77 128.167V128.167C1825.95 128.382 1825.93 127.814 1825.1 127.673C1824.33 127.544 1822.98 127.383 1820.71 127.125C1818.59 126.885 1816.59 126.581 1816.2 126.416C1815.88 126.285 1814.46 126.147 1813.05 126.138C1808.08 126.108 1811.11 125.867 1818.14 125.747C1823.43 125.681 1826.78 125.798 1831.36 126.248Z" fill="white"/>
<path d="M1778.93 125.512C1778.35 125.573 1777.45 125.568 1777 125.5C1776.61 125.401 1777.07 125.339 1778.16 125.345C1779.19 125.351 1779.58 125.419 1778.93 125.512Z" fill="white"/>
<path d="M1763.14 125.742C1762.75 125.804 1761.98 125.8 1761.53 125.732C1761.14 125.633 1761.46 125.57 1762.36 125.575C1763.27 125.58 1763.59 125.647 1763.14 125.742Z" fill="white"/>
<path d="M1840.83 127.181C1840.25 127.242 1839.22 127.236 1838.57 127.167C1837.99 127.066 1838.51 127.005 1839.73 127.012C1840.96 127.019 1841.48 127.087 1840.83 127.181Z" fill="white"/>
<path d="M1893.25 127.884V127.884C1892.97 127.904 1892.96 128.32 1893.25 128.344L1893.57 128.372C1897.57 128.721 1898.53 128.856 1896.6 128.877C1895.76 128.905 1895.24 129.031 1895.43 129.195C1895.63 129.358 1898.66 129.668 1902.07 129.883C1912.06 130.495 1912.64 130.596 1906.13 130.394C1902.78 130.309 1893.49 130.092 1885.5 129.946C1877.5 129.801 1870.67 129.63 1870.35 129.564C1869.96 129.496 1874.22 129.457 1879.7 129.457C1887.5 129.504 1889.44 129.418 1888.41 129.12C1887.18 128.756 1887.18 128.756 1888.41 128.504C1889.38 128.315 1888.99 128.248 1887.12 128.236C1885.19 128.192 1884.8 128.093 1885.51 127.87C1886.03 127.711 1888.67 127.597 1891.32 127.645C1895.51 127.703 1895.77 127.737 1893.25 127.884Z" fill="white"/>
<path d="M1872.1 128.017C1871.65 128.111 1871.07 128.075 1870.88 127.977C1870.62 127.878 1871.01 127.783 1871.72 127.82C1872.43 127.824 1872.62 127.923 1872.1 128.017Z" fill="white"/>
<path d="M1869.65 128.035C1869.84 128.198 1868.36 128.351 1866.36 128.372V128.372C1864.1 128.395 1864.12 128.03 1866.38 127.945C1867.94 127.886 1869.49 127.902 1869.65 128.035Z" fill="white"/>
<path d="M1099.59 127.286C1099.14 127.38 1098.56 127.345 1098.36 127.246C1098.11 127.147 1098.49 127.052 1099.2 127.089C1099.91 127.093 1100.1 127.192 1099.59 127.286Z" fill="white"/>
<path d="M1895.47 134.419C1898.18 134.792 1895.54 134.776 1892.25 134.432C1890.06 134.192 1889.99 134.127 1891.61 134.136C1892.64 134.142 1894.38 134.283 1895.47 134.419Z" fill="white"/>
<path d="M1921.58 136.068C1921.57 137.138 1921.31 137.396 1920.41 137.391C1917.76 137.375 1917.05 137.501 1917.05 137.955C1917.05 138.604 1920.27 139.013 1920.98 138.433C1921.37 138.143 1921.56 138.663 1921.55 139.864C1921.54 141.616 1921.48 141.713 1920.06 141.575C1919.29 141.473 1916.97 141.329 1914.9 141.187C1912.78 141.077 1910.72 140.805 1910.27 140.543C1909.82 140.313 1906.72 139.937 1903.37 139.69C1895.96 139.159 1892.54 138.684 1892.55 138.263C1892.55 138.068 1892.29 138.001 1891.97 138.097C1891.64 138.225 1890.68 138.154 1889.84 137.987C1888.81 137.786 1890.42 137.698 1895 137.758C1898.61 137.812 1901.58 137.733 1901.58 137.603C1901.58 137.473 1902.16 137.509 1902.8 137.707C1904.41 138.139 1906.73 138.153 1906.74 137.731C1906.74 137.536 1906.22 137.403 1905.64 137.4C1903.64 137.388 1905.32 137.009 1907.84 136.926C1909.19 136.902 1910.55 136.845 1910.87 136.815C1911.9 136.756 1910.03 135.999 1907.84 135.531L1905.78 135.13L1907.91 135.305C1909.07 135.376 1909.91 135.349 1909.72 135.218C1909.52 135.055 1910.3 135.027 1911.39 135.098C1912.62 135.203 1913.2 135.141 1913.01 134.946C1912.75 134.717 1914.17 134.628 1917.07 134.678L1920.25 134.72C1920.99 134.73 1921.58 135.331 1921.58 136.068V136.068ZM1914.02 137.937C1913.89 138.131 1914.41 138.296 1915.11 138.3C1915.82 138.305 1916.41 138.113 1916.41 137.854C1916.41 137.367 1914.35 137.42 1914.02 137.937ZM1910.32 137.496C1908.56 137.536 1908.52 137.973 1910.28 137.947V137.947C1911.89 137.957 1913.18 137.835 1913.18 137.672C1913.19 137.516 1911.74 137.463 1910.32 137.496ZM1904.15 138.981C1904.15 139.468 1905.76 139.64 1913.49 139.913C1918.65 140.106 1920.91 140.087 1920.91 139.828C1920.91 139.503 1919.36 139.332 1913.82 138.974C1909.37 138.72 1904.15 138.689 1904.15 138.981Z" fill="white"/>
<path d="M1894.17 135.936C1894.88 136.038 1895.71 136.238 1896.04 136.402C1896.36 136.533 1895.65 136.529 1894.42 136.36C1893.2 136.19 1891.65 135.986 1890.94 135.917C1889.98 135.781 1890.04 135.749 1891.27 135.757C1892.17 135.762 1893.46 135.835 1894.17 135.936Z" fill="white"/>
<path d="M1903 136.963C1902.61 137.025 1901.84 137.02 1901.39 136.953C1901 136.853 1901.32 136.79 1902.23 136.796C1903.13 136.801 1903.45 136.868 1903 136.963Z" fill="white"/>
<path d="M1866.66 142.618C1867.05 142.685 1867.37 142.882 1867.37 143.044C1867.37 143.303 1861.69 143.14 1861.11 142.844C1860.79 142.68 1865.82 142.483 1866.66 142.618Z" fill="white"/>
<path d="M1841.58 142.63C1845.84 142.818 1849.38 143.131 1849.96 143.394C1850.47 143.624 1851.37 143.889 1851.89 143.99C1852.41 144.09 1849.5 144.073 1845.44 143.951C1840.28 143.823 1837.71 143.613 1837 143.284C1836.48 143.021 1835.07 142.818 1833.97 142.812C1832.81 142.805 1831.91 142.669 1831.91 142.54C1831.91 142.215 1832.75 142.22 1841.58 142.63Z" fill="white"/>
<path d="M1871.88 143.038C1871.1 143.293 1871.23 143.359 1872.52 143.399C1873.43 143.405 1875.36 143.481 1876.84 143.555C1878.39 143.596 1879.62 143.539 1879.62 143.377C1879.62 143.214 1879.88 143.086 1880.26 143.089C1880.59 143.09 1880.91 143.352 1880.9 143.709C1880.9 144.455 1878.13 144.633 1868.97 144.546C1863.55 144.514 1863.3 144.48 1867.16 144.405C1871.74 144.303 1873.16 143.955 1870.59 143.517C1868.72 143.214 1869.04 142.697 1871.04 142.709C1872.46 142.717 1872.66 142.783 1871.88 143.038Z" fill="white"/>
<path d="M1921.47 144.017C1921.53 144.763 1921.33 144.859 1919.98 144.722C1918.95 144.618 1918.5 144.388 1918.76 144.098C1919.15 143.549 1920.24 143.523 1920.31 144.042C1920.3 144.269 1920.56 144.173 1920.89 143.818C1921.41 143.238 1921.47 143.27 1921.47 144.017Z" fill="white"/>
<path d="M1782.37 144.028C1781.92 144.122 1781.34 144.086 1781.15 143.988C1780.89 143.889 1781.28 143.794 1781.99 143.831C1782.7 143.835 1782.89 143.934 1782.37 144.028Z" fill="white"/>
<path d="M1773.73 144.235C1773.02 144.621 1767.41 144.944 1767.02 144.617C1766.83 144.486 1767.41 144.36 1768.25 144.365C1769.15 144.37 1770.83 144.283 1771.99 144.193C1773.22 144.07 1773.99 144.107 1773.73 144.235Z" fill="white"/>
<path d="M1850.2 145.147C1850.4 145.311 1850.14 145.504 1849.62 145.631C1849.1 145.725 1848.65 145.657 1848.65 145.495C1848.66 145.073 1849.82 144.788 1850.2 145.147Z" fill="white"/>
<path d="M1845.88 145.089C1847.69 145.23 1847.81 145.815 1846.07 146.031C1845.36 146.124 1844.78 146.316 1844.78 146.478C1844.78 146.64 1844.13 146.734 1843.29 146.631C1841.81 146.493 1839.1 147.19 1840.06 147.488C1840.58 147.653 1845.28 148.038 1849.8 148.26C1851.92 148.37 1853.79 148.933 1853.79 149.452C1853.79 149.614 1853.33 149.644 1852.82 149.544C1852.3 149.411 1851.85 149.505 1851.85 149.733C1851.85 149.927 1851.59 150.023 1851.27 149.924C1850.95 149.792 1850.5 149.919 1850.37 150.113V150.113C1849.92 150.609 1849.15 150.06 1848.5 149.971C1847.85 149.884 1846.98 149.819 1846.11 149.796C1844.56 149.754 1842.69 149.58 1841.92 149.381C1841.15 149.182 1839.54 148.977 1838.31 148.905C1836.19 148.763 1836.19 148.763 1838.77 148.746C1842.18 148.701 1842.96 148.154 1840 147.877C1838.32 147.705 1837.87 147.507 1838.13 147.152C1838.39 146.797 1838.26 146.698 1837.62 146.792C1837.1 146.886 1836.78 147.111 1836.84 147.306C1836.9 147.502 1835.36 147.622 1833.16 147.641C1830.2 147.624 1829.29 147.521 1829.3 147.164C1829.3 146.775 1829.62 146.777 1831.04 147.045C1832.2 147.279 1832.97 147.251 1833.42 147.026C1833.88 146.802 1833.75 146.704 1832.91 146.699C1832.33 146.695 1832.01 146.531 1832.2 146.37C1832.4 146.177 1833.75 146.055 1835.17 146.063C1838.07 146.081 1838.4 145.466 1835.69 145.061C1834.21 144.825 1842.98 144.845 1845.88 145.089Z" fill="white"/>
<path d="M1766.12 144.677C1766.12 144.839 1765.02 145.06 1763.66 145.149C1762.37 145.271 1760.37 145.486 1759.34 145.61C1754.37 146.294 1746.63 146.572 1738.7 146.33C1724 145.885 1710.01 145.249 1708.21 144.979C1706.08 144.642 1725.62 144.986 1733.23 145.421C1736.25 145.569 1740.12 145.689 1741.93 145.635C1752.18 145.34 1754.51 145.256 1757.41 145.079C1759.15 144.992 1761.15 144.907 1761.79 144.911C1762.44 144.947 1763.73 144.825 1764.57 144.668C1765.54 144.479 1766.12 144.482 1766.12 144.677Z" fill="white"/>
<path d="M1636.83 144.422C1644.76 145.118 1661.97 146 1668.35 146.038C1671.51 146.057 1673.9 146.169 1673.7 146.265C1673.51 146.393 1671.83 146.448 1670.03 146.405C1667.96 146.393 1666.8 146.515 1666.8 146.743V146.743C1666.8 147.126 1666.15 146.816 1665.79 146.933C1665.54 147.013 1665.25 147.157 1664.99 147.348C1664.34 147.831 1664.28 148.123 1664.79 148.385C1665.11 148.55 1670.33 149.035 1676.26 149.363C1689.09 150.153 1690.06 150.256 1689.6 150.805C1689.21 151.387 1690.95 152.144 1692.18 151.924C1692.69 151.83 1693.27 151.898 1693.46 152.126V152.126C1693.68 152.455 1693.87 151.822 1694.26 151.84C1694.37 151.845 1694.49 151.867 1694.63 151.906C1695.08 152.039 1697.46 152.215 1699.98 152.263C1702.43 152.342 1706.29 152.463 1708.49 152.541C1711.52 152.689 1712.68 152.631 1713.26 152.245C1713.91 151.859 1713.91 151.729 1713.13 151.498C1711.91 151.069 1706.5 150.485 1703.98 150.47C1702.82 150.463 1701.47 150.292 1700.96 150.094C1699.8 149.698 1717.01 150.061 1721.59 150.542C1723.2 150.714 1724.68 150.788 1724.94 150.725C1725.26 150.629 1725.46 150.728 1725.45 150.89C1725.45 151.085 1725.9 151.25 1726.48 151.253C1727 151.256 1727.26 151.096 1727.07 150.932C1726.36 150.376 1727.26 150.576 1728.55 151.266C1729.58 151.823 1731.32 152.028 1739.7 152.468C1744.17 152.707 1747.95 152.92 1749.23 152.99C1749.5 153.005 1749.75 153.194 1749.75 153.469V153.469C1749.75 153.923 1748.84 153.983 1747.56 153.553C1747.17 153.421 1746.65 153.451 1746.46 153.579C1746.07 153.901 1744.98 153.895 1730.08 153.384C1725.19 153.229 1722.8 153.184 1721.72 153.266C1721.13 153.311 1720.72 153.81 1720.28 153.422V153.422C1719.9 153.128 1719.12 152.929 1718.48 152.99C1717.9 153.019 1716.87 152.915 1716.29 152.75C1715.39 152.517 1715.26 152.581 1715.58 153.037C1716.28 154.047 1716.54 154.179 1717.05 153.793C1717.38 153.535 1717.77 153.537 1718.41 153.898C1718.99 154.161 1719.82 154.263 1720.6 154.138C1721.31 154.013 1722.34 154.019 1722.86 154.152C1723.95 154.45 1728.2 154.768 1734.78 155.067C1737.23 155.146 1739.36 155.321 1739.49 155.387C1740.13 155.683 1736.64 156.084 1734.45 155.973C1733.23 155.934 1729.29 155.748 1725.81 155.63C1722.27 155.511 1719.17 155.33 1718.85 155.231C1718.59 155.132 1714.4 154.977 1709.57 154.916C1702.99 154.779 1700.61 154.635 1700.22 154.308C1699.77 153.916 1699.64 153.915 1699.64 154.305C1699.64 154.694 1699.45 154.693 1698.87 154.397C1697.77 153.839 1696.35 153.896 1696.8 154.45C1697.06 154.841 1696.74 154.904 1695.38 154.766C1694.42 154.663 1693.38 154.527 1693.06 154.428C1692.81 154.329 1692.55 154.392 1692.55 154.587C1692.55 154.749 1691 155.032 1689.12 155.215C1685.38 155.55 1678.35 155.54 1678.36 155.183C1678.36 155.053 1677.65 155.017 1676.74 155.109C1675.84 155.168 1675.13 155.099 1675.13 154.904C1675.14 154.515 1676.69 154.2 1678.75 154.212C1678.78 154.212 1678.82 154.212 1678.85 154.212C1679.83 154.211 1679.54 153.243 1678.56 153.238V153.238C1677.92 153.234 1677.66 152.94 1677.86 152.195C1677.99 151.417 1677.8 151.092 1676.96 151.022C1676.27 150.952 1675.47 151.462 1675.24 151.915C1675.03 152.312 1675.79 152.563 1675.79 152.118V152.118C1675.8 151.826 1676.12 151.666 1676.44 151.765C1676.96 151.93 1676.89 152.124 1676.37 152.446C1675.34 153.056 1674.69 153.02 1674.31 152.271C1674.06 151.751 1673.41 151.649 1669.93 151.596C1667.67 151.583 1663.74 151.332 1661.29 151.058C1648.92 149.718 1646.54 149.477 1644.47 149.464C1643.18 149.457 1642.34 149.322 1642.54 149.193C1642.73 149.032 1642.22 148.964 1641.44 148.992C1640.67 149.02 1640.02 149.081 1640.02 149.113C1640.02 149.146 1639.51 149.207 1638.86 149.268C1638.28 149.33 1637.77 149.229 1637.77 149.035C1637.77 148.873 1637.32 148.967 1636.73 149.223C1636.22 149.512 1635.18 149.733 1634.47 149.729C1633.77 149.725 1633.31 149.819 1633.51 149.983C1633.76 150.211 1623.57 150.215 1616.81 149.948L1613.58 149.831L1617.97 149.598C1624.87 149.25 1624.81 148.73 1617.91 148.332C1614.11 148.114 1614.69 148.053 1622.3 148.034C1635.78 147.952 1637.84 148.029 1639.51 148.559C1640.03 148.724 1640.35 148.661 1640.35 148.466C1640.35 148.272 1640.67 148.209 1641.06 148.341C1641.45 148.44 1642.03 148.346 1642.35 148.121C1642.74 147.799 1642.93 147.768 1642.93 148.06C1642.93 148.287 1643.25 148.484 1643.64 148.486C1643.96 148.488 1644.09 148.326 1643.9 148.163C1643.71 147.967 1643.97 147.839 1644.61 147.843C1645.51 147.848 1645.58 147.784 1644.81 147.292C1644.29 146.997 1644.23 146.835 1644.62 146.967C1645.65 147.297 1646.43 146.166 1645.4 145.836C1644.95 145.703 1644.43 145.57 1644.24 145.537C1643.59 145.468 1641.27 145.259 1639.15 145.084C1637.92 144.98 1633.41 144.791 1629.22 144.668C1620.64 144.455 1618.26 144.116 1625.42 144.159C1627.87 144.173 1630.32 144.123 1630.83 144.061C1631.29 143.999 1633.99 144.178 1636.83 144.422ZM1663.24 149.642C1664.84 150.138 1677.67 150.507 1676.77 150.047C1675.94 149.588 1673.43 149.411 1667.11 149.34C1662.98 149.283 1662.21 149.343 1663.24 149.642ZM1681.79 152.608C1681.53 152.606 1681.73 152.445 1682.24 152.286C1682.76 152.127 1682.89 151.966 1682.57 151.931C1682.18 151.929 1681.34 151.859 1680.57 151.822C1679.41 151.75 1679.34 151.815 1679.92 152.467C1680.3 152.859 1680.82 153.121 1681.08 153.058C1681.4 152.963 1681.59 153.126 1681.59 153.386C1681.59 153.678 1681.85 153.906 1682.23 153.909C1682.56 153.91 1682.69 153.717 1682.49 153.456C1682.3 153.195 1682.69 152.938 1683.46 152.845C1684.95 152.659 1685.2 152.953 1684.04 153.53C1682.81 154.139 1683.84 153.983 1685.33 153.311C1687.85 152.255 1686.5 151.306 1683.73 152.165C1682.95 152.42 1682.05 152.61 1681.79 152.608ZM1713.83 153.254C1713.83 153.351 1714.09 153.515 1714.48 153.615C1714.8 153.714 1715.12 153.651 1715.12 153.489C1715.12 153.294 1714.8 153.13 1714.48 153.128C1714.09 153.126 1713.83 153.189 1713.83 153.254ZM1688.36 154.27C1688.16 154.463 1688.42 154.497 1688.94 154.403C1690.1 154.183 1690.29 153.957 1689.39 153.951C1689 153.949 1688.55 154.076 1688.36 154.27Z" fill="white"/>
<path d="M1605.36 143.941C1604.78 144.003 1603.88 143.997 1603.43 143.93C1603.04 143.83 1603.49 143.768 1604.59 143.775C1605.62 143.781 1606.01 143.848 1605.36 143.941Z" fill="white"/>
<path d="M1705.63 144.866C1705.18 144.961 1704.6 144.925 1704.41 144.827C1704.15 144.728 1704.54 144.633 1705.25 144.67C1705.95 144.674 1706.15 144.772 1705.63 144.866Z" fill="white"/>
<path d="M1618.26 144.668C1617.29 144.727 1615.74 144.717 1614.71 144.646C1613.74 144.576 1614.58 144.516 1616.52 144.528C1618.45 144.539 1619.29 144.609 1618.26 144.668Z" fill="white"/>
<path d="M1789.97 146.409C1789.97 146.604 1789.19 146.762 1788.16 146.788C1780.81 146.809 1778.88 146.927 1777.91 147.343C1777.07 147.695 1775.13 147.813 1771.07 147.789C1767.97 147.77 1765.46 147.658 1765.46 147.496C1765.46 147.366 1765.72 147.27 1766.11 147.272C1766.43 147.274 1766.75 147.082 1766.75 146.822C1766.75 146.562 1767.27 146.338 1767.85 146.374C1768.5 146.378 1773.72 146.312 1779.46 146.184C1787.2 146.068 1789.97 146.117 1789.97 146.409Z" fill="white"/>
<path d="M1894.16 147.552C1893.97 148.232 1893.13 148.552 1893.13 147.935C1893.13 147.643 1893.39 147.353 1893.71 147.257C1894.04 147.13 1894.23 147.293 1894.16 147.552Z" fill="white"/>
<path d="M1827.37 146.86C1826.46 146.92 1824.72 147.072 1823.5 147.162C1821.43 147.312 1821.37 147.376 1822.4 147.772C1823.62 148.233 1824.2 148.204 1805.43 148.287C1799.57 148.316 1795.89 147.937 1794.74 147.152C1794.09 146.726 1793.84 146.725 1792.8 147.108C1792.16 147.363 1791.83 147.426 1792.09 147.201C1792.35 147.008 1792.16 146.747 1791.77 146.647C1791.32 146.547 1795 146.537 1799.96 146.664C1804.93 146.759 1809.25 146.849 1809.63 146.852C1824.47 146.746 1828.66 146.771 1827.37 146.86ZM1799.44 147.05C1799.9 147.118 1800.8 147.123 1801.38 147.062C1802.02 146.968 1801.64 146.901 1800.61 146.895C1799.51 146.888 1799.06 146.951 1799.44 147.05Z" fill="white"/>
<path d="M1904.42 147.808C1906.74 148.082 1906.55 148.145 1902.93 148.254C1901.13 148.308 1900.23 148.237 1900.36 148.011C1900.68 147.559 1901.97 147.502 1904.42 147.808Z" fill="white"/>
<path d="M1899.33 147.778C1899.52 147.974 1899.39 148.297 1899 148.49C1898.48 148.746 1898.29 148.648 1898.29 148.129C1898.3 147.35 1898.62 147.222 1899.33 147.778Z" fill="white"/>
<path d="M1895.97 147.79C1895.64 148.048 1895.84 148.081 1896.55 147.956C1897.19 147.862 1897.64 147.897 1897.64 148.06C1897.64 148.254 1897.06 148.381 1896.35 148.376C1895.64 148.372 1895.06 148.142 1895.06 147.882C1895.07 147.622 1895.39 147.397 1895.78 147.4C1896.1 147.401 1896.23 147.565 1895.97 147.79Z" fill="white"/>
<path d="M1705.49 146.618C1712 147.046 1712.77 147.31 1706.78 147.047C1704.14 146.966 1697.04 146.762 1691.05 146.661C1685.11 146.56 1680.02 146.4 1679.83 146.302C1679.31 146.007 1700.08 146.293 1705.49 146.618Z" fill="white"/>
<path d="M1877.46 148.166C1878.95 148.272 1879.4 148.437 1879.14 148.793C1878.94 149.019 1878.62 149.179 1878.36 149.08C1878.1 149.014 1875.59 148.901 1872.75 148.852C1867.08 148.753 1865.21 148.58 1865.73 148.226C1866.18 147.839 1869.28 147.923 1869.27 148.279C1869.27 148.507 1869.53 148.508 1870.05 148.317C1871.02 147.965 1873.79 148.014 1875.08 148.412C1875.66 148.577 1875.78 148.546 1875.46 148.317V148.317C1875.21 148.094 1875.38 148.001 1875.71 148.031C1876.13 148.068 1876.76 148.123 1877.46 148.166Z" fill="white"/>
<path d="M1832.84 148.321C1833.67 148.488 1833.74 148.618 1833.16 148.615C1832.64 148.612 1831.61 148.476 1830.9 148.309C1830.07 148.142 1830 148.012 1830.58 148.015C1831.1 148.018 1832.13 148.154 1832.84 148.321Z" fill="white"/>
<path d="M1717.42 147.63C1718.45 147.863 1718.51 147.928 1717.61 147.923C1717.03 147.952 1716.32 147.786 1716.13 147.622C1715.68 147.263 1715.68 147.263 1717.42 147.63Z" fill="white"/>
<path d="M1747.59 148.557C1747.97 149.046 1748.68 149.115 1753.84 149.016C1757 148.97 1759.64 149.051 1759.64 149.148C1759.64 149.278 1756.54 149.551 1752.67 149.723C1738.61 150.418 1725.59 149.82 1724.57 148.419C1724.31 148.093 1724.51 147.997 1725.34 148.132C1727.66 148.535 1734.43 148.9 1734.11 148.638C1733.92 148.475 1734.56 148.446 1735.53 148.582C1736.56 148.718 1737.78 148.823 1738.36 148.794C1740.49 148.677 1745.65 148.805 1746.17 148.938C1746.42 149.037 1746.75 148.844 1746.88 148.553C1747.07 148.002 1747.14 148.003 1747.59 148.557Z" fill="white"/>
<path d="M1722.03 148.007C1722.84 148.082 1722.99 148.542 1722.18 148.47V148.47C1720.25 148.263 1719.8 147.969 1721.48 147.979C1721.66 147.98 1721.85 147.99 1722.03 148.007Z" fill="white"/>
<path d="M1461.42 147.103C1463.35 147.342 1463.35 147.342 1461.09 147.296C1459.81 147.288 1458.45 147.378 1458 147.505C1457.55 147.632 1457.22 147.662 1457.22 147.565C1457.23 147.143 1459.68 146.866 1461.42 147.103Z" fill="white"/>
<path d="M1454.97 147.357C1455.16 147.52 1454.9 147.681 1454.39 147.678C1453.81 147.674 1453.36 147.509 1453.36 147.347C1453.36 147.152 1453.62 147.024 1453.94 147.026C1454.33 147.028 1454.78 147.161 1454.97 147.357Z" fill="white"/>
<path d="M1560.7 151.169C1560.89 151.268 1562.44 151.342 1570.49 151.715C1573.01 151.827 1571.39 152.207 1567.33 152.41C1562.82 152.642 1548.82 152.591 1545.86 152.313C1544.76 152.242 1541.48 152.028 1538.45 151.912C1532.97 151.652 1531.03 151.316 1532.91 150.97C1533.49 150.844 1533.94 150.912 1533.94 151.106C1533.93 151.301 1534.26 151.335 1534.71 151.176C1535.48 150.953 1560.25 150.939 1560.7 151.169Z" fill="white"/>
<path d="M1779.74 152.87C1783.48 153.087 1785.93 153.459 1789.86 154.423C1792.75 155.154 1795.07 155.882 1795.07 156.109C1795.07 156.336 1794.61 156.431 1793.91 156.329C1793.2 156.195 1793.39 156.359 1794.42 156.819C1795.32 157.181 1796.35 157.512 1796.74 157.514C1797.12 157.517 1797.44 157.713 1797.44 157.973C1797.44 158.525 1794.02 158.309 1790.61 157.543C1787.78 156.909 1788.1 156.944 1785.59 156.636C1784.43 156.5 1783.59 156.268 1783.78 156.139C1783.98 155.978 1782.75 155.808 1781.01 155.701C1779.34 155.593 1776.82 155.383 1775.41 155.278C1773.99 155.139 1772.05 155.03 1771.02 154.992C1770.06 154.986 1769.28 154.884 1769.28 154.787C1769.28 154.689 1767.8 154.583 1766.06 154.573C1764.25 154.562 1762.84 154.391 1762.9 154.229C1762.97 154.035 1763.23 153.939 1763.55 154.006C1763.87 154.04 1764.13 153.945 1764.13 153.782C1764.13 153.62 1763.16 153.42 1762.07 153.283C1760.46 153.112 1759.75 153.205 1759.17 153.623C1758.39 154.137 1758.32 154.137 1758.33 153.618C1758.33 153.326 1757.94 153.032 1757.49 153.029C1757.11 152.994 1757.75 152.868 1758.98 152.778C1762.07 152.472 1773.75 152.542 1779.74 152.87ZM1777.02 154.119C1777.02 154.671 1778.7 155.005 1782.18 155.123C1788.17 155.289 1784.5 154.261 1777.8 153.864C1777.41 153.862 1777.03 153.957 1777.02 154.119Z" fill="white"/>
<path d="M1433.54 150.733C1440.75 150.698 1448.25 150.897 1455.46 151.056C1455.5 151.057 1455.55 151.058 1455.59 151.059C1469 151.399 1473.45 151.556 1486.21 152.054C1491.69 152.249 1499.04 152.423 1502.46 152.378C1505.94 152.334 1508.78 152.416 1508.78 152.546C1508.78 152.676 1508.13 152.769 1507.3 152.764C1506.46 152.759 1502.91 153.095 1499.36 153.495C1493.68 154.143 1491.55 154.227 1479.75 154.124C1463.95 153.997 1455.19 153.685 1449.13 153C1448.42 152.931 1445.52 152.751 1442.68 152.637C1430.76 152.144 1428.24 152.031 1423.02 151.643C1416.7 151.216 1415.03 150.752 1419.54 150.746C1421.29 150.757 1427.61 150.73 1433.54 150.733V150.733Z" fill="white"/>
<path d="M1756.08 153.053C1755.88 153.214 1755.56 153.374 1755.36 153.373C1755.23 153.372 1755.11 153.209 1755.11 153.047C1755.11 152.853 1755.43 152.725 1755.82 152.727C1756.14 152.729 1756.27 152.86 1756.08 153.053Z" fill="white"/>
<path d="M1752.53 153.161C1752.53 153.421 1752.14 153.678 1751.62 153.772C1750.97 153.898 1750.85 153.768 1751.04 153.315C1751.43 152.603 1752.53 152.48 1752.53 153.161Z" fill="white"/>
<path d="M1411.03 151.02C1410.84 151.181 1410.13 151.306 1409.42 151.302C1408.78 151.298 1408.2 151.165 1408.2 151.003C1408.2 150.841 1408.91 150.715 1409.81 150.72C1410.65 150.725 1411.23 150.859 1411.03 151.02Z" fill="white"/>
<path d="M1407.55 151.096C1407.55 151.323 1404.97 151.535 1404.71 151.306C1404.52 151.175 1405.1 151.049 1406.01 151.022C1406.84 150.995 1407.55 151.031 1407.55 151.096Z" fill="white"/>
<path d="M1386.07 151.065C1387.04 151.233 1387.16 151.818 1386.33 151.813C1386.04 151.811 1385.7 151.629 1385.45 151.405C1385.39 151.351 1385.29 151.219 1385.25 151.149V151.149C1385.12 150.915 1385.31 150.884 1385.57 150.944C1385.73 150.979 1385.91 151.022 1386.07 151.065Z" fill="white"/>
<path d="M1388.85 151.504C1388.85 151.666 1388.52 151.826 1388.14 151.824C1387.82 151.822 1387.69 151.659 1387.88 151.498C1388.08 151.304 1388.4 151.176 1388.59 151.178C1388.72 151.178 1388.85 151.309 1388.85 151.504Z" fill="white"/>
<path d="M1382.59 151.596C1382.85 151.922 1382.65 152.018 1382.08 151.885C1381.56 151.784 1381.3 151.588 1381.5 151.427C1381.95 151.04 1382.21 151.074 1382.59 151.596Z" fill="white"/>
<path d="M1379.49 151.772C1379.69 151.935 1379.56 152.097 1379.23 152.095C1378.85 152.092 1378.52 151.928 1378.53 151.766C1378.53 151.571 1378.66 151.442 1378.79 151.443C1378.98 151.444 1379.3 151.576 1379.49 151.772Z" fill="white"/>
<path d="M1885.35 155.255C1886.58 155.424 1887.8 155.756 1888.06 155.92C1888.38 156.149 1888.57 156.15 1888.57 155.858C1888.57 155.566 1888.9 155.535 1889.67 155.767C1890.31 155.933 1892.63 156.272 1894.89 156.48C1897.92 156.822 1898.88 157.055 1898.75 157.411C1898.49 158.091 1896.94 158.309 1896.94 157.66C1896.95 156.979 1895.85 156.713 1894.56 157.062C1893.98 157.253 1892.88 157.247 1892.18 157.112C1891.4 156.978 1889.15 156.608 1887.09 156.271C1885.09 155.934 1883.42 155.535 1883.42 155.405C1883.42 155.243 1883.03 155.208 1882.51 155.302V155.302C1881.64 155.462 1881.36 154.83 1882.25 154.884C1882.97 154.927 1884.02 155.05 1885.35 155.255Z" fill="white"/>
<path d="M1376.27 152.077C1376.07 152.238 1375.75 152.398 1375.56 152.397C1375.43 152.396 1375.3 152.233 1375.3 152.071C1375.3 151.877 1375.62 151.749 1376.01 151.751C1376.33 151.753 1376.46 151.883 1376.27 152.077Z" fill="white"/>
<path d="M1374.65 152.067C1374.65 152.262 1374.2 152.389 1373.68 152.386C1373.17 152.383 1372.72 152.315 1372.72 152.25C1372.72 152.185 1373.17 152.058 1373.69 151.932C1374.2 151.837 1374.65 151.905 1374.65 152.067Z" fill="white"/>
<path d="M1369.82 152.038C1370.01 152.202 1369.88 152.363 1369.56 152.361C1369.17 152.359 1368.85 152.195 1368.85 152.033C1368.86 151.838 1368.98 151.709 1369.11 151.71C1369.31 151.711 1369.63 151.843 1369.82 152.038Z" fill="white"/>
<path d="M1100.08 152.273C1099.63 152.368 1099.05 152.332 1098.85 152.233C1098.6 152.135 1098.98 152.04 1099.69 152.076C1100.4 152.081 1100.6 152.179 1100.08 152.273Z" fill="white"/>
<path d="M1096.35 152.115C1096.74 151.876 1096.54 153.106 1096.27 152.737V152.737C1096.08 152.509 1096.14 152.217 1096.34 152.121C1096.34 152.119 1096.34 152.117 1096.35 152.115Z" fill="white"/>
<path d="M1905.77 157.94C1907.12 158.338 1907 158.369 1904.29 158.418C1901.71 158.435 1901.51 158.401 1902.36 157.985C1903.45 157.407 1903.91 157.41 1905.77 157.94Z" fill="white"/>
<path d="M1608.13 156.191C1609.48 156.199 1610.91 156.354 1612.26 156.397C1612.93 156.419 1613.73 156.439 1614.58 156.456C1618.32 156.511 1618.83 156.612 1620.44 157.53C1621.4 158.087 1621.98 158.675 1621.78 158.836C1621.59 158.997 1618.88 159.013 1615.53 158.896C1612.31 158.747 1607.47 158.555 1604.83 158.442C1602.18 158.329 1598.45 158.079 1596.64 157.906C1594.77 157.701 1592.97 157.625 1592.64 157.72C1592.32 157.848 1591.87 157.781 1591.68 157.617C1591.48 157.486 1589.42 157.344 1587.1 157.363C1584.78 157.349 1582.91 157.273 1582.91 157.11C1582.91 156.981 1582.46 156.881 1581.94 156.877C1580.98 156.872 1580.53 156.253 1581.43 156.193C1583.75 156.11 1604.07 156.134 1602.71 156.256C1600.78 156.406 1600.39 156.826 1602 157.127C1603.61 157.461 1608.06 157.391 1608.06 157.034C1608.06 156.839 1607.42 156.706 1606.64 156.701C1604.58 156.689 1605.94 156.21 1608.13 156.191V156.191Z" fill="white"/>
<path d="M1392.05 155.157C1392.76 155.291 1393.34 155.327 1393.34 155.197C1393.34 155.1 1393.86 155.233 1394.43 155.463C1395.01 155.726 1395.34 155.761 1395.08 155.564C1394.69 155.205 1397.66 155.223 1404.3 155.652C1409.13 155.973 1409.07 155.973 1409.58 156.333C1410.29 156.791 1410.22 157.148 1409.38 157.143C1409.06 157.141 1408.93 156.945 1409.19 156.72C1409.52 156.462 1409.32 156.493 1408.61 156.781C1407.84 157.068 1404.48 157.308 1398.36 157.433C1388.88 157.669 1385.97 157.586 1392.62 157.237C1396.62 157.034 1398.1 156.621 1396.11 156.284C1393.08 155.812 1380.12 155.994 1372.12 156.627C1367.79 156.958 1356.12 157.31 1356.57 157.054C1357.03 156.862 1361.93 156.566 1365.54 156.588C1367.73 156.569 1368.25 156.475 1367.93 156.083C1367.67 155.757 1367.93 155.629 1368.83 155.699C1369.54 155.768 1370.25 155.902 1370.51 156.001C1370.7 156.1 1371.8 155.977 1372.9 155.691C1377.03 154.71 1377.22 154.679 1377.22 155.003C1377.22 155.23 1377.61 155.265 1378.44 155.043C1379.16 154.82 1380.38 154.827 1381.67 155.03C1382.76 155.199 1383.67 155.204 1383.67 155.042C1383.67 154.717 1390.25 154.822 1392.05 155.157Z" fill="white"/>
<path d="M1580.33 156.673C1580.33 156.998 1579.42 157.09 1577.17 157.044C1573.43 156.989 1573.62 156.633 1577.56 156.397C1579.62 156.28 1580.33 156.349 1580.33 156.673Z" fill="white"/>
<path d="M1799.89 158.701C1800.53 159.095 1801.37 159.359 1801.69 159.264C1801.95 159.201 1802.72 159.238 1803.3 159.371C1803.88 159.504 1804.85 159.64 1805.43 159.676C1806.07 159.712 1806.98 159.977 1807.62 160.273C1808.45 160.7 1808.97 160.768 1810 160.482C1810.71 160.291 1811.17 160.262 1810.91 160.455C1810.71 160.616 1811.74 160.882 1813.29 161.021C1814.77 161.159 1815.67 161.327 1815.29 161.389C1814.9 161.484 1812.84 161.407 1810.77 161.2C1808.71 161.026 1806.9 161.015 1806.78 161.176C1806.52 161.499 1803.81 160.996 1802.33 160.306C1801.69 160.01 1800.47 159.516 1799.63 159.187C1798.79 158.857 1798.21 158.464 1798.35 158.27C1798.48 158.076 1799.18 158.275 1799.89 158.701Z" fill="white"/>
<path d="M1383.79 156.892C1383.4 156.954 1382.63 156.95 1382.17 156.882C1381.79 156.783 1382.11 156.72 1383.01 156.725C1383.92 156.731 1384.24 156.797 1383.79 156.892Z" fill="white"/>
<path d="M1354.32 157.17C1355.28 157.37 1355.03 157.433 1353.16 157.422C1351.87 157.447 1350.77 157.376 1350.77 157.311C1350.77 157.019 1353.16 156.936 1354.32 157.17Z" fill="white"/>
<path d="M1323.36 156.952C1326.52 157.068 1333.87 157.177 1339.61 157.211C1345.41 157.246 1350.12 157.372 1350.12 157.501C1350.12 157.664 1349.47 157.757 1348.63 157.784C1346.31 157.803 1343.47 158.078 1342.44 158.364C1339.34 159.221 1359.14 159.243 1371.71 158.409C1382.29 157.694 1383.45 157.863 1373.97 158.715C1372.03 158.898 1364.74 159.438 1362.03 159.584C1344.36 160.679 1336.88 160.797 1334.63 160.037C1333.73 159.739 1331.86 159.469 1330.37 159.427C1328.89 159.386 1327.47 159.28 1327.15 159.181C1324.51 158.386 1304.85 158.204 1297.88 158.908C1296.97 159 1294.07 159.21 1291.43 159.356C1288.78 159.535 1285.3 159.774 1283.68 159.927C1281.62 160.141 1280.52 160.102 1279.88 159.839C1279.11 159.542 1279.04 159.542 1279.43 159.836C1279.75 160.13 1279.43 160.258 1278.39 160.284C1277.56 160.312 1276.2 160.368 1275.36 160.396C1274.46 160.423 1273.3 160.221 1272.79 159.959C1271.82 159.499 1271.89 159.467 1272.85 159.667C1273.56 159.801 1274.01 159.739 1274.01 159.512C1274.02 159.317 1274.21 159.221 1274.4 159.352C1274.6 159.45 1275.37 159.293 1276.02 158.972C1277.76 158.171 1296.6 156.792 1296.6 157.473C1296.6 157.635 1296.01 157.761 1295.37 157.758V157.758C1294.22 157.751 1294.11 158.345 1295.26 158.391C1295.54 158.403 1295.86 158.409 1296.2 158.412C1297.82 158.421 1299.17 158.267 1299.17 158.105C1299.17 157.91 1298.72 157.778 1298.21 157.775C1297.69 157.772 1297.24 157.639 1297.24 157.477C1297.24 156.86 1312.21 156.528 1323.36 156.952ZM1303.5 157.352C1300.27 157.625 1300.46 158.113 1303.81 158.133C1307.1 158.152 1309.49 157.875 1309.49 157.485C1309.49 157.161 1306.98 157.113 1303.5 157.352Z" fill="white"/>
<path d="M1384.75 157.871C1384.16 157.932 1383.13 157.926 1382.49 157.857C1381.91 157.757 1382.42 157.695 1383.65 157.702C1384.87 157.71 1385.39 157.777 1384.75 157.871Z" fill="white"/>
<path d="M1818.38 161.765C1817.99 161.827 1817.22 161.823 1816.77 161.755C1816.38 161.656 1816.7 161.593 1817.61 161.598C1818.51 161.604 1818.83 161.67 1818.38 161.765Z" fill="white"/>
<path d="M1770.84 162.843C1771.04 163.007 1770.91 163.233 1770.52 163.36C1770.2 163.456 1769.87 163.324 1769.88 163.065C1769.88 162.481 1770.27 162.385 1770.84 162.843Z" fill="white"/>
<path d="M1791.8 163.65C1792.57 163.914 1792.57 163.979 1791.47 163.973C1790.76 163.968 1789.73 163.8 1789.22 163.635C1788.45 163.37 1788.45 163.305 1789.54 163.312C1790.25 163.316 1791.28 163.485 1791.8 163.65Z" fill="white"/>
<path d="M1503.89 162.316C1505.82 162.846 1505.88 162.912 1504.85 163.23C1503.55 163.644 1502.72 163.607 1503.23 163.22C1503.49 163.027 1503.3 162.669 1502.92 162.407C1501.95 161.817 1502.15 161.819 1503.89 162.316Z" fill="white"/>
<path d="M1501.88 162.758C1502.08 163.019 1502.01 163.148 1501.69 163.049C1501.37 162.949 1500.92 163.012 1500.66 163.205C1500.46 163.366 1499.56 163.523 1498.66 163.517C1497.69 163.511 1497.17 163.379 1497.43 163.153C1497.69 162.96 1498.27 162.898 1498.79 162.999C1499.3 163.099 1499.69 163.037 1499.69 162.907C1499.69 162.388 1501.5 162.269 1501.88 162.758Z" fill="white"/>
<path d="M1693.52 164.879C1693.32 165.17 1693.13 165.46 1693.13 165.525C1693.13 165.59 1692.55 165.652 1691.84 165.647C1690.23 165.638 1690.17 165.118 1691.78 164.674C1693.52 164.23 1693.98 164.265 1693.52 164.879Z" fill="white"/>
<path d="M1689.9 165.214C1689.9 165.441 1689.19 165.632 1688.35 165.627C1687.52 165.622 1686.55 165.421 1686.16 165.192C1685.59 164.864 1685.97 164.769 1687.71 164.779C1689.07 164.787 1689.91 164.954 1689.9 165.214Z" fill="white"/>
<path d="M1179.66 161.835C1180.95 162.07 1180.63 162.555 1179.27 162.482C1178.56 162.477 1178.18 162.28 1178.37 162.022V162.022C1178.64 161.715 1179.03 161.678 1179.42 161.774C1179.5 161.794 1179.58 161.814 1179.66 161.835Z" fill="white"/>
<path d="M1174.32 161.992C1174.71 161.753 1174.51 162.983 1174.24 162.614V162.614C1174.05 162.385 1174.12 162.094 1174.31 161.998C1174.31 161.996 1174.32 161.994 1174.32 161.992Z" fill="white"/>
<path d="M1172.76 162.215C1173.53 162.48 1173.4 162.544 1172.24 162.537C1171.4 162.532 1170.95 162.399 1171.15 162.206C1171.6 161.819 1171.54 161.819 1172.76 162.215Z" fill="white"/>
<path d="M1169.02 162.258C1169.66 162.456 1169.66 162.521 1168.95 162.517C1168.44 162.514 1168.24 162.707 1168.5 163.001C1168.75 163.392 1168.62 163.424 1167.66 163.191C1166.89 162.959 1166.24 162.988 1165.72 163.244C1165.27 163.468 1164.95 163.466 1165.01 163.305C1165.28 162.625 1164.95 162.363 1164.44 162.782C1164.11 163.04 1162.82 163.227 1161.53 163.251C1159.21 163.27 1158.5 162.974 1159.99 162.691C1160.63 162.565 1160.63 162.5 1159.99 162.496C1159.47 162.46 1158.96 162.749 1158.76 163.105C1158.43 163.655 1158.24 163.686 1157.21 163.29C1155.8 162.795 1152.57 162.971 1153.15 163.526C1153.34 163.721 1153.08 163.623 1152.57 163.327C1151.86 162.869 1151.54 162.835 1150.83 163.155C1150.38 163.379 1150.18 163.378 1150.38 163.185C1150.64 162.959 1149.99 162.858 1148.38 162.913C1147.73 162.925 1147.15 162.979 1146.73 163.055C1146.27 163.139 1146.13 163.678 1145.67 163.676V163.676C1145.28 163.673 1145.02 163.412 1145.02 163.088C1144.96 162.601 1144.9 162.6 1144.06 163.147C1143.54 163.501 1143.09 163.628 1143.09 163.465C1143.09 163.206 1141.86 163.134 1139.03 163.279C1138.77 163.31 1137.93 163.629 1137.15 164.014C1136.25 164.463 1135.92 164.526 1136.18 164.203C1136.51 163.751 1136.25 163.717 1134.57 163.966C1133.48 164.089 1132.32 164.147 1132.06 164.048C1131.74 163.949 1131.48 164.077 1131.48 164.304C1131.47 164.564 1131.28 164.595 1130.96 164.399C1130.7 164.202 1129.99 164.036 1129.35 164C1128.51 163.962 1128.25 164.123 1128.57 164.482C1128.89 164.938 1128.83 164.97 1128.19 164.609C1127.29 164.182 1124.38 164.035 1124.38 164.457C1124.38 164.586 1123.16 164.644 1121.67 164.57L1120.83 164.525C1120.5 164.507 1120.45 164.033 1120.77 163.948V163.948C1122.45 163.504 1125.16 163.261 1128.71 163.152C1129.55 163.157 1130.19 163.031 1130.19 162.902C1130.2 162.804 1131.49 162.682 1133.03 162.691C1135.61 162.674 1137.1 162.586 1141.1 162.188C1141.94 162.128 1143.74 162.171 1145.09 162.342C1146.45 162.512 1147.61 162.519 1147.74 162.358C1147.87 162.229 1150.19 162.048 1152.96 161.967C1156.51 161.891 1157.86 161.932 1157.54 162.189C1157.22 162.414 1157.41 162.448 1157.99 162.257C1159.15 161.907 1167.99 161.895 1169.02 162.258Z" fill="white"/>
<path d="M1709.25 165.719C1709.25 165.914 1708.09 166.004 1706.67 165.996C1705.25 165.987 1704.28 165.852 1704.48 165.691C1704.93 165.304 1709.25 165.33 1709.25 165.719Z" fill="white"/>
<path d="M1633.54 165.688C1633.99 166.047 1633.21 166.594 1632.31 166.589C1631.86 166.586 1631.92 166.457 1632.51 166.266C1633.35 165.979 1633.35 165.946 1632.51 165.909C1631.99 165.873 1631.02 165.867 1630.38 165.896C1629.8 165.925 1629.28 165.792 1629.29 165.597C1629.29 165.208 1633.09 165.296 1633.54 165.688Z" fill="white"/>
<path d="M1628.64 165.594C1628.64 165.756 1628.32 165.916 1628 165.914C1627.61 165.912 1627.35 165.748 1627.35 165.586C1627.35 165.391 1627.61 165.263 1628 165.265C1628.32 165.267 1628.64 165.399 1628.64 165.594Z" fill="white"/>
<path d="M1835.23 167.674C1835.55 168.097 1835.36 168.161 1834.2 167.992C1833.36 167.89 1831.62 167.782 1830.27 167.774V167.774C1828.77 167.765 1828.93 167.204 1830.42 167.152C1830.84 167.137 1831.29 167.131 1831.75 167.134C1834.01 167.147 1834.98 167.283 1835.23 167.674Z" fill="white"/>
<path d="M1639.54 166.081C1640.31 166.085 1640.15 166.822 1639.39 166.841C1638.85 166.855 1638.31 166.713 1638.31 166.43C1638.31 166.203 1638.9 166.045 1639.54 166.081V166.081Z" fill="white"/>
<path d="M1637.54 166.36C1637.41 166.554 1636.89 166.811 1636.5 166.873C1636.05 166.936 1635.86 166.805 1636.12 166.482C1636.57 165.9 1637.93 165.779 1637.54 166.36Z" fill="white"/>
<path d="M1635.08 166.411C1635.08 166.703 1634.76 166.928 1634.44 166.926C1634.05 166.924 1633.79 166.793 1633.79 166.63C1633.79 166.436 1634.05 166.21 1634.44 166.115C1634.76 166.02 1635.09 166.151 1635.08 166.411Z" fill="white"/>
<path d="M1644.37 166.726C1645.66 167.091 1645.72 167.967 1644.43 167.959C1643.85 167.956 1642.82 167.69 1642.11 167.329C1640.89 166.737 1640.89 166.705 1642.05 166.582C1642.76 166.489 1643.79 166.56 1644.37 166.726Z" fill="white"/>
<path d="M1140.77 163.581C1140.9 163.712 1140.83 164.036 1140.44 164.293C1139.99 164.68 1139.86 164.614 1139.86 164.03C1139.87 163.284 1140.19 163.124 1140.77 163.581Z" fill="white"/>
<path d="M1650.55 167.639C1650.55 167.801 1650.1 167.993 1649.58 168.12C1649 168.214 1648.62 168.114 1648.62 167.822C1648.62 167.562 1649.07 167.338 1649.59 167.341C1650.1 167.344 1650.55 167.477 1650.55 167.639Z" fill="white"/>
<path d="M1587.75 167.198C1587.55 167.327 1586.65 167.451 1585.88 167.511C1584.78 167.57 1584.65 167.537 1585.43 167.282C1586.52 166.931 1588.46 166.846 1587.75 167.198Z" fill="white"/>
<path d="M1583.75 167.207C1584.33 167.665 1584.39 167.665 1581.36 167.712C1579.1 167.795 1578.46 167.597 1579.37 167.148C1579.56 167.052 1580.46 167.09 1581.24 167.257C1581.64 167.336 1581.98 167.379 1582.25 167.387C1582.81 167.403 1583.3 166.863 1583.75 167.207V167.207Z" fill="white"/>
<path d="M1577.95 167.205C1578.14 167.368 1577.62 167.56 1576.72 167.619C1574.78 167.802 1574.66 167.672 1576.33 167.227C1577.04 167.037 1577.75 167.041 1577.95 167.205Z" fill="white"/>
<path d="M1573.17 167.338C1573.17 167.76 1572.46 167.853 1569.75 167.837C1567.95 167.858 1561.43 167.884 1555.44 167.946C1549.37 168.007 1544.73 167.947 1544.99 167.818C1545.64 167.498 1546.99 167.344 1550.93 167.205C1554.73 167.065 1567.63 167.143 1569.95 167.319C1570.85 167.389 1571.95 167.298 1572.34 167.106C1572.92 166.882 1573.17 166.949 1573.17 167.338Z" fill="white"/>
<path d="M1362.96 166.274C1363.54 166.473 1363.6 166.603 1363.15 166.6C1362.77 166.598 1362.19 166.432 1361.99 166.269C1361.48 165.876 1361.74 165.878 1362.96 166.274Z" fill="white"/>
<path d="M1122.44 166.197V166.197C1122.44 166.58 1121.8 166.255 1121.42 166.306C1121.2 166.336 1120.94 166.406 1120.7 166.511C1119.99 166.766 1119.92 166.734 1120.25 166.314C1120.7 165.732 1122.44 165.613 1122.44 166.197Z" fill="white"/>
<path d="M1119.86 165.922C1119.86 166.019 1119.02 166.306 1117.99 166.592C1116.63 166.909 1115.66 166.968 1114.57 166.767C1113.22 166.466 1113.22 166.434 1114.38 166.376C1115.09 166.348 1116.12 166.322 1116.63 166.357C1117.15 166.36 1118.05 166.236 1118.7 166.077C1119.35 165.919 1119.86 165.857 1119.86 165.922Z" fill="white"/>
<path d="M1431.31 167.981C1431.82 168.828 1431.75 169.314 1431.17 169.019C1430.79 168.822 1430.66 168.497 1430.86 168.238C1431.05 168.012 1431.24 167.884 1431.31 167.981Z" fill="white"/>
<path d="M1453.87 168.701C1453.87 168.83 1453.29 168.957 1452.58 168.985C1451.87 169.013 1451.42 168.913 1451.62 168.72C1452.07 168.365 1453.87 168.344 1453.87 168.701Z" fill="white"/>
<path d="M1448.39 168.733C1448.58 168.896 1448.45 169.057 1448.13 169.056C1447.74 169.053 1447.42 168.889 1447.42 168.727C1447.43 168.532 1447.55 168.403 1447.68 168.404C1447.88 168.405 1448.2 168.537 1448.39 168.733Z" fill="white"/>
<path d="M1441.94 168.726C1444.26 169 1444.07 169.064 1440.78 169.141C1439.3 169.197 1438.4 169.062 1438.4 168.835C1438.4 168.413 1439.11 168.385 1441.94 168.726Z" fill="white"/>
<path d="M1436.66 168.565C1437.62 169.057 1436.97 169.313 1434.85 169.3C1433.3 169.291 1432.59 169.125 1432.59 168.8C1432.6 168.216 1433.63 168.157 1434.08 168.712V168.712C1434.35 169.064 1434.57 168.467 1435.01 168.376C1435.5 168.274 1436.22 168.32 1436.66 168.565Z" fill="white"/>
<path d="M1096.51 167.924C1096.5 168.378 1096.37 168.539 1096.18 168.311C1096.16 168.285 1096.15 168.255 1096.14 168.223C1095.96 167.761 1096.51 167.43 1096.51 167.924V167.924Z" fill="white"/>
<path d="M1255.54 176.339C1255.35 176.5 1255.02 176.66 1254.83 176.659C1254.7 176.658 1254.57 176.495 1254.57 176.333C1254.57 176.138 1254.9 176.011 1255.28 176.013C1255.61 176.015 1255.73 176.145 1255.54 176.339Z" fill="white"/>
<path d="M1096.2 177.099C1096.59 176.86 1096.39 178.09 1096.12 177.721V177.721C1095.93 177.493 1095.99 177.201 1096.19 177.105C1096.19 177.103 1096.19 177.101 1096.2 177.099Z" fill="white"/>
</svg>
