<svg width="1920" height="50" viewBox="0 0 1920 50" fill="none" xmlns="http://www.w3.org/2000/svg">
<path d="M1709.16 0.528488C1716.95 0.815101 1721.3 1.07305 1718.6 1.07305C1711.7 1.10171 1706.16 1.58896 1706.16 2.13352C1706.16 2.50612 1705.71 2.53478 1704.06 2.27683C1702.41 1.99021 1701.06 1.99021 1698.51 2.24817C1696.26 2.47746 1695.67 2.50612 1696.26 2.27683C1697.46 1.93289 1697.01 1.87557 1684.42 1.35967C1679.48 1.15904 1674.83 0.901085 1673.93 0.757779C1673.18 0.643134 1669.88 0.528488 1666.59 0.528488C1655.04 0.528488 1662.09 0.299198 1678.43 0.155891C1690.72 0.0699077 1698.51 0.155891 1709.16 0.528488Z" fill="white"/>
<path d="M1587.28 0.156392C1585.93 0.213657 1583.83 0.213657 1582.78 0.156392C1581.89 0.0704951 1582.93 0.0132303 1585.48 0.0132303C1587.88 0.0132303 1588.78 0.0704951 1587.28 0.156392Z" fill="white"/>
<path d="M1550.57 0.442891C1549.67 0.500156 1547.87 0.500156 1546.82 0.442891C1545.92 0.356994 1546.67 0.299729 1548.77 0.299729C1550.87 0.299729 1551.62 0.356994 1550.57 0.442891Z" fill="white"/>
<path d="M1731.19 1.30251C1729.84 1.35978 1727.44 1.35978 1725.94 1.30251C1724.59 1.21661 1725.79 1.15935 1728.64 1.15935C1731.49 1.15935 1732.68 1.21661 1731.19 1.30251Z" fill="white"/>
<path d="M1853.04 1.646L1846.3 1.84663L1853.79 2.07592C1863.08 2.36253 1865.33 2.47718 1860.84 2.50584C1858.89 2.5345 1857.69 2.64915 1858.14 2.79245C1858.59 2.93576 1865.63 3.19371 1873.58 3.36568C1896.81 3.85292 1898.16 3.9389 1883.02 3.7956C1875.23 3.73828 1853.64 3.59497 1835.05 3.50898C1816.47 3.423 1800.58 3.30836 1799.83 3.25103C1798.93 3.19371 1808.82 3.13639 1821.56 3.10773C1839.7 3.10773 1844.2 3.02174 1841.8 2.76379C1838.95 2.44852 1838.95 2.44852 1841.8 2.21923C1844.05 2.04726 1843.15 1.98994 1838.8 1.98994C1834.31 1.96127 1833.41 1.87529 1835.05 1.67466C1836.25 1.53136 1842.4 1.41671 1848.55 1.44537C1858.29 1.47403 1858.89 1.50269 1853.04 1.646Z" fill="white"/>
<path d="M1803.89 1.8755C1802.84 1.9614 1801.49 1.93277 1801.04 1.84687C1800.44 1.76097 1801.34 1.67508 1802.99 1.70371C1804.64 1.70371 1805.09 1.78961 1803.89 1.8755Z" fill="white"/>
<path d="M1798.19 1.90419C1798.64 2.0475 1795.19 2.19081 1790.54 2.21947C1785.89 2.24813 1782.3 2.21947 1782.75 2.16215C1784.25 1.87553 1797.44 1.6749 1798.19 1.90419Z" fill="white"/>
<path d="M8.14965 5.31422C7.10039 5.40012 5.75134 5.37149 5.30166 5.28559C4.70208 5.19969 5.60144 5.1138 7.25028 5.14243C8.89912 5.14243 9.34881 5.22833 8.14965 5.31422Z" fill="white"/>
<path d="M1858.3 7.40583C1864.6 7.7211 1858.45 7.7211 1850.81 7.43449C1845.71 7.23386 1845.56 7.17654 1849.31 7.17654C1851.71 7.17654 1855.75 7.29118 1858.3 7.40583Z" fill="white"/>
<path d="M1919 8.72383C1919 9.66941 1918.4 9.89863 1916.3 9.89863C1910.16 9.89863 1908.51 10.0132 1908.51 10.4144C1908.51 10.9875 1916.01 11.3313 1917.65 10.8156C1918.55 10.5577 1919 11.0161 1919 12.0763C1919 13.6236 1918.85 13.7096 1915.56 13.595C1913.76 13.509 1908.36 13.3944 1903.56 13.2798C1898.62 13.1938 1893.82 12.9646 1892.77 12.7353C1891.72 12.5348 1884.53 12.2196 1876.73 12.019C1859.49 11.5892 1851.55 11.188 1851.55 10.8156C1851.55 10.6436 1850.95 10.5863 1850.2 10.6723C1849.45 10.7869 1847.2 10.7296 1845.25 10.5863C1842.86 10.4144 1846.6 10.3284 1857.25 10.3571C1865.64 10.3857 1872.54 10.2998 1872.54 10.1852C1872.54 10.0706 1873.88 10.0992 1875.38 10.2711C1879.13 10.6436 1884.53 10.6436 1884.53 10.2711C1884.53 10.0992 1883.33 9.9846 1881.98 9.9846C1877.33 9.9846 1881.23 9.64075 1887.08 9.55479C1890.22 9.52614 1893.37 9.46883 1894.12 9.44018C1896.52 9.38287 1892.17 8.72383 1887.08 8.32268L1882.28 7.97884L1887.23 8.12211C1889.92 8.17942 1891.87 8.15076 1891.42 8.03615C1890.97 7.89288 1892.77 7.86422 1895.32 7.92153C1898.17 8.00749 1899.52 7.95019 1899.07 7.77826C1898.47 7.57769 1901.77 7.49173 1908.51 7.52038L1917.83 7.54583C1918.48 7.5476 1919 8.07449 1919 8.72383ZM1901.47 10.4144C1901.17 10.5863 1902.36 10.7296 1904.01 10.7296C1905.66 10.7296 1907.01 10.5577 1907.01 10.3284C1907.01 9.89864 1902.21 9.95594 1901.47 10.4144ZM1886.78 10.2998C1886.33 10.3857 1889.17 10.4717 1892.77 10.4431C1896.52 10.4431 1899.52 10.3284 1899.52 10.1852C1899.52 9.92729 1887.67 10.0132 1886.78 10.2998ZM1878.53 11.3886C1878.53 11.8184 1882.28 11.9617 1900.27 12.1623C1912.26 12.3055 1917.5 12.2769 1917.5 12.0477C1917.5 11.7611 1913.91 11.6179 1901.02 11.3313C1890.67 11.1307 1878.53 11.1307 1878.53 11.3886Z" fill="white"/>
<path d="M1855.29 8.75249C1856.94 8.83848 1858.89 9.01044 1859.64 9.15375C1860.39 9.26839 1858.74 9.26839 1855.89 9.12509C1853.04 8.98178 1849.45 8.80981 1847.8 8.75249C1845.55 8.63785 1845.7 8.60919 1848.55 8.60919C1850.65 8.60919 1853.64 8.66651 1855.29 8.75249Z" fill="white"/>
<path d="M1875.84 9.61208C1874.94 9.66935 1873.14 9.66935 1872.09 9.61208C1871.19 9.52618 1871.94 9.46892 1874.04 9.46892C1876.14 9.46892 1876.89 9.52618 1875.84 9.61208Z" fill="white"/>
<path d="M1791.44 14.7982C1792.34 14.8555 1793.09 15.0274 1793.09 15.1708C1793.09 15.4 1779.9 15.2854 1778.55 15.0274C1777.8 14.8841 1789.5 14.6835 1791.44 14.7982Z" fill="white"/>
<path d="M1733.15 14.9414C1743.04 15.0847 1751.28 15.3427 1752.63 15.572C1753.83 15.7726 1755.93 16.0019 1757.13 16.0879C1758.33 16.1738 1751.58 16.1738 1742.14 16.0879C1730.15 16.0019 1724.15 15.8299 1722.5 15.5433C1721.31 15.314 1718.01 15.142 1715.46 15.142C1712.76 15.142 1710.66 15.0274 1710.66 14.9127C1710.66 14.6261 1712.61 14.6261 1733.15 14.9414Z" fill="white"/>
<path d="M1803.58 15.1418C1801.78 15.3711 1802.08 15.4284 1805.08 15.457C1807.18 15.457 1811.67 15.5144 1815.12 15.5717C1818.72 15.6003 1821.57 15.543 1821.57 15.3997C1821.57 15.2564 1822.17 15.1418 1823.07 15.1418C1823.82 15.1418 1824.57 15.3711 1824.57 15.6863C1824.57 16.3455 1818.12 16.5175 1796.84 16.4888C1784.24 16.4888 1783.64 16.4602 1792.64 16.3742C1803.28 16.2596 1806.58 15.9443 1800.58 15.5717C1796.24 15.3137 1796.99 14.8552 1801.63 14.8552C1804.93 14.8552 1805.38 14.9125 1803.58 15.1418Z" fill="white"/>
<path d="M1917.51 15.5718C1918.62 15.0941 1918.69 16.3964 1917.48 16.4152C1916.97 16.423 1916.3 16.4067 1915.41 16.3744C1913.02 16.2884 1911.97 16.0878 1912.57 15.8298C1913.05 15.5697 1914 15.4403 1914.8 15.4459C1915.76 15.4526 1916.63 15.9438 1917.51 15.5718Z" fill="white"/>
<path d="M1595.54 16.489C1594.49 16.5749 1593.14 16.5463 1592.69 16.4604C1592.09 16.3745 1592.99 16.2886 1594.64 16.3172C1596.29 16.3172 1596.74 16.4031 1595.54 16.489Z" fill="white"/>
<path d="M1575.45 16.718C1573.8 17.0619 1560.76 17.3772 1559.86 17.0906C1559.41 16.9759 1560.76 16.8613 1562.71 16.8613C1564.81 16.8613 1568.7 16.7753 1571.4 16.6893C1574.25 16.5747 1576.05 16.6033 1575.45 16.718Z" fill="white"/>
<path d="M1753.22 17.1189C1753.67 17.2622 1753.07 17.4342 1751.88 17.5488C1750.68 17.6348 1749.63 17.5775 1749.63 17.4342C1749.63 17.0616 1752.33 16.8036 1753.22 17.1189Z" fill="white"/>
<path d="M1743.17 17.0908C1747.37 17.2054 1747.67 17.7212 1743.62 17.9217C1741.98 18.0077 1740.63 18.1796 1740.63 18.3229C1740.63 18.4662 1739.13 18.5521 1737.18 18.4662C1733.73 18.3515 1727.44 18.9819 1729.68 19.2398C1730.88 19.3831 1741.83 19.6983 1752.32 19.8702C1757.26 19.9562 1761.61 20.4433 1761.61 20.9017C1761.61 21.045 1760.56 21.0736 1759.36 20.9877C1758.16 20.8731 1757.11 20.959 1757.11 21.1596C1757.11 21.3315 1756.52 21.4175 1755.77 21.3315C1755.02 21.2169 1753.97 21.3315 1753.67 21.5034C1753.07 21.7613 1752.47 21.7613 1751.57 21.5894C1750.97 21.4175 1747.37 21.2742 1743.77 21.2456C1740.18 21.2169 1735.83 21.0736 1734.03 20.9017C1732.23 20.7298 1728.48 20.5579 1725.64 20.5006C1720.69 20.386 1720.69 20.386 1726.69 20.3573C1734.63 20.3 1736.43 19.8129 1729.53 19.5837C1725.64 19.4404 1724.59 19.2685 1725.19 18.9533C1725.79 18.6381 1725.49 18.5521 1723.99 18.6381C1722.79 18.724 1722.04 18.9246 1722.19 19.0965C1722.34 19.2685 1718.74 19.3831 1713.65 19.4117C1706.75 19.4117 1704.65 19.3258 1704.65 19.0106C1704.65 18.6667 1705.4 18.6667 1708.7 18.896C1711.4 19.0965 1713.2 19.0679 1714.24 18.8673C1715.29 18.6667 1714.99 18.5808 1713.05 18.5808C1711.7 18.5808 1710.95 18.4375 1711.4 18.2942C1711.85 18.1223 1714.99 18.0077 1718.29 18.0077C1725.04 18.0077 1725.79 17.4633 1719.49 17.1194C1716.04 16.9189 1736.43 16.8902 1743.17 17.0908Z" fill="white"/>
<path d="M1557.75 17.1476C1557.75 17.2909 1555.2 17.4915 1552.06 17.5775C1549.06 17.6921 1544.41 17.8928 1542.01 18.0074C1530.47 18.638 1512.49 18.9246 1494.05 18.7526C1459.87 18.4373 1427.34 17.9501 1423.15 17.7208C1418.2 17.4342 1463.62 17.6348 1481.31 17.9788C1488.35 18.0934 1497.35 18.1794 1501.54 18.1221C1525.38 17.8068 1530.77 17.7208 1537.52 17.5488C1541.56 17.4629 1546.21 17.3769 1547.71 17.3769C1549.21 17.4055 1552.21 17.2909 1554.16 17.1476C1556.4 16.9756 1557.75 16.9756 1557.75 17.1476Z" fill="white"/>
<path d="M1257.22 17.6067C1275.65 18.1797 1315.67 18.8674 1330.51 18.8674C1337.86 18.8674 1343.41 18.9534 1342.96 19.0393C1342.51 19.154 1338.61 19.2113 1334.41 19.1826C1329.61 19.1826 1326.92 19.2972 1326.92 19.4978C1326.92 19.6697 1326.47 19.727 1325.87 19.6411C1325.42 19.5264 1323.92 19.6984 1322.72 20.0422C1321.22 20.472 1321.07 20.7299 1322.27 20.9591C1323.02 21.1024 1335.16 21.5036 1348.95 21.7614C1378.78 22.3918 1381.03 22.4778 1379.98 22.9649C1379.08 23.4807 1383.13 24.1397 1385.98 23.9391C1387.17 23.8532 1388.52 23.9105 1388.97 24.111C1389.49 24.406 1389.99 23.8728 1390.58 23.8554C1390.88 23.8464 1391.25 23.8648 1391.67 23.9105C1392.72 24.0251 1398.27 24.1683 1404.11 24.197C1409.81 24.2543 1418.8 24.3403 1423.9 24.3976C1430.94 24.5122 1433.64 24.4549 1434.99 24.111C1436.49 23.7672 1436.49 23.6526 1434.69 23.452C1431.84 23.0795 1419.25 22.5924 1413.41 22.5924C1410.71 22.5924 1407.56 22.4491 1406.36 22.2772C1403.66 21.9334 1443.68 22.1626 1454.33 22.5637C1458.07 22.707 1461.52 22.7643 1462.12 22.707C1462.87 22.621 1463.32 22.707 1463.32 22.8503C1463.32 23.0222 1464.37 23.1655 1465.72 23.1655C1466.92 23.1655 1467.52 23.0222 1467.07 22.8789C1465.42 22.3918 1467.52 22.5637 1470.52 23.1655C1472.91 23.6526 1476.96 23.8245 1496.45 24.1683C1507.75 24.3717 1517.16 24.5525 1519.25 24.5907C1519.53 24.5958 1519.83 24.7221 1519.83 24.9993C1519.83 25.4004 1517.73 25.4578 1514.73 25.0853C1513.84 24.9706 1512.64 24.9993 1512.19 25.1139C1511.29 25.4004 1508.74 25.4004 1474.11 25.028C1462.28 24.9129 1456.75 24.8877 1454.39 24.9779C1453.33 25.0184 1452.34 25.4437 1451.33 25.1139C1450.43 24.856 1448.63 24.6841 1447.13 24.7414C1445.78 24.7701 1443.38 24.6841 1442.04 24.5408C1439.94 24.3403 1439.64 24.3976 1440.39 24.7987C1442.04 25.687 1442.64 25.8016 1443.83 25.4578C1444.58 25.2285 1445.48 25.2285 1446.98 25.5437C1448.33 25.7729 1450.28 25.8589 1452.08 25.7443C1453.73 25.6297 1456.13 25.6297 1457.33 25.7443C1459.87 26.0022 1469.77 26.2601 1485.06 26.4893C1490.75 26.5466 1495.7 26.6899 1496 26.7472C1497.5 27.0051 1489.4 27.3776 1484.31 27.2916C1481.46 27.2629 1472.31 27.1197 1464.22 27.0337C1455.98 26.9477 1448.78 26.8045 1448.03 26.7185C1447.43 26.6326 1437.69 26.5179 1426.45 26.4893C1411.16 26.4033 1405.61 26.2887 1404.71 26.0022C1403.66 25.6583 1403.36 25.6583 1403.36 26.0022C1403.36 26.346 1402.91 26.346 1401.56 26.0881C1399.02 25.601 1395.72 25.6583 1396.77 26.1454C1397.37 26.4893 1396.62 26.5466 1393.47 26.432C1391.22 26.346 1388.82 26.2314 1388.07 26.1454C1387.47 26.0595 1386.87 26.1168 1386.87 26.2887C1386.87 26.432 1383.28 26.6899 1378.93 26.8618C1370.24 27.177 1353.9 27.2056 1353.9 26.8904C1353.9 26.7758 1352.25 26.7472 1350.15 26.8331C1348.05 26.8904 1346.4 26.8331 1346.4 26.6612C1346.4 26.3174 1350 26.0308 1354.8 26.0308C1357.35 26.0308 1358.09 25.9162 1357.5 25.601C1356.9 25.3718 1355.55 25.1712 1354.35 25.1712C1352.74 25.1712 1352.6 23.3221 1350.99 23.2384C1350.87 23.232 1350.74 23.2268 1350.6 23.2228C1348.2 23.1368 1345.2 24.197 1347 24.5122C1347.45 24.6268 1347.9 24.4835 1347.9 24.197C1347.9 23.9391 1348.65 23.7958 1349.4 23.8818C1350.6 24.0251 1350.45 24.197 1349.25 24.4835C1346.85 25.028 1345.35 24.9993 1344.45 24.3403C1343.85 23.8818 1342.36 23.7958 1334.26 23.7672C1329.02 23.7672 1319.87 23.5666 1314.18 23.3374C1285.4 22.2199 1279.85 22.0193 1275.05 22.0193C1272.06 22.0193 1270.11 21.9047 1270.56 21.7901C1271.01 21.6468 1269.81 21.5895 1268.01 21.6182C1266.21 21.6468 1264.71 21.7041 1264.71 21.7328C1264.71 21.7614 1263.51 21.8187 1262.01 21.876C1260.66 21.9334 1259.46 21.8474 1259.46 21.6755C1259.46 21.5322 1258.42 21.6182 1257.07 21.8474C1255.87 22.1053 1253.47 22.3059 1251.82 22.3059C1250.17 22.3059 1249.12 22.3918 1249.57 22.5351C1250.17 22.7357 1226.49 22.793 1210.75 22.5924L1203.25 22.5064L1213.45 22.2772C1229.49 21.9334 1229.34 21.4749 1213.3 21.1597C1204.45 20.9878 1205.8 20.9305 1223.49 20.8732C1254.82 20.7299 1259.61 20.7872 1263.51 21.2457C1264.71 21.3889 1265.46 21.3316 1265.46 21.1597C1265.46 20.9878 1266.21 20.9305 1267.11 21.0451C1268.01 21.1311 1269.36 21.0451 1270.11 20.8445C1271.01 20.558 1271.46 20.5293 1271.46 20.7872C1271.46 20.9878 1272.21 21.1597 1273.1 21.1597C1273.85 21.1597 1274.15 21.0164 1273.7 20.8732C1273.25 20.7012 1273.85 20.5866 1275.35 20.5866C1277.45 20.5866 1277.6 20.5293 1275.8 20.0995C1274.6 19.8416 1274.45 19.6984 1275.35 19.813C1277.75 20.0995 1279.55 19.0966 1277.15 18.8101C1276.1 18.6955 1274.9 18.5809 1274.45 18.5522C1272.95 18.4949 1267.56 18.323 1262.61 18.1797C1259.76 18.0938 1249.27 17.9505 1239.53 17.8645C1219.59 17.7213 1214.05 17.4347 1230.68 17.4347C1236.38 17.4347 1242.08 17.3774 1243.28 17.3201C1244.32 17.2628 1250.62 17.4061 1257.22 17.6067ZM1318.67 22.0766C1322.42 22.5064 1352.25 22.7643 1350.15 22.3632C1348.2 21.962 1342.36 21.8187 1327.67 21.7901C1318.07 21.7614 1316.27 21.8187 1318.67 22.0766ZM1361.84 24.5981C1361.24 24.5981 1361.69 24.4549 1362.89 24.3116C1364.09 24.1683 1364.39 24.0251 1363.64 23.9964C1362.74 23.9964 1360.79 23.9391 1358.99 23.9105C1356.3 23.8532 1356.15 23.9105 1357.5 24.4835C1358.39 24.8274 1359.59 25.0566 1360.19 24.9993C1360.94 24.9133 1361.39 25.0566 1361.39 25.2858C1361.39 25.5437 1361.99 25.7443 1362.89 25.7443C1363.64 25.7443 1363.94 25.5724 1363.49 25.3431C1363.04 25.1139 1363.94 24.8847 1365.74 24.7987C1369.19 24.6268 1369.79 24.8847 1367.09 25.4004C1364.24 25.9449 1366.64 25.8016 1370.09 25.1999C1375.93 24.2543 1372.78 23.4233 1366.34 24.197C1364.54 24.4262 1362.44 24.5981 1361.84 24.5981ZM1436.34 24.9993C1436.34 25.0853 1436.94 25.2285 1437.84 25.3145C1438.59 25.4004 1439.34 25.3431 1439.34 25.1999C1439.34 25.028 1438.59 24.8847 1437.84 24.8847C1436.94 24.8847 1436.34 24.942 1436.34 24.9993ZM1377.13 26.0308C1376.68 26.2028 1377.28 26.2314 1378.48 26.1454C1381.18 25.9449 1381.63 25.7443 1379.53 25.7443C1378.63 25.7443 1377.58 25.8589 1377.13 26.0308Z" fill="white"/>
<path d="M1184.06 17.3483C1182.71 17.4056 1180.61 17.4056 1179.56 17.3483C1178.66 17.2624 1179.71 17.2051 1182.26 17.2051C1184.66 17.2051 1185.56 17.2624 1184.06 17.3483Z" fill="white"/>
<path d="M1417.15 17.6354C1416.1 17.7213 1414.76 17.6927 1414.31 17.6068C1413.71 17.5209 1414.61 17.435 1416.25 17.4636C1417.9 17.4636 1418.35 17.5495 1417.15 17.6354Z" fill="white"/>
<path d="M1214.05 17.9217C1211.8 17.9789 1208.21 17.9789 1205.81 17.9217C1203.56 17.8644 1205.51 17.8071 1210 17.8071C1214.5 17.8071 1216.45 17.8644 1214.05 17.9217Z" fill="white"/>
<path d="M1918.71 18.7241C1918.71 19.0445 1918.57 19.225 1918.33 19.2069C1918.07 19.1875 1917.8 18.9773 1917.75 18.7225C1917.67 18.3224 1918.24 17.9772 1918.55 18.2495C1918.65 18.345 1918.71 18.5058 1918.71 18.7241Z" fill="white"/>
<path d="M1613.22 18.5517C1613.22 18.7237 1611.43 18.867 1609.03 18.8956C1591.94 18.953 1587.44 19.0676 1585.19 19.4402C1583.25 19.7555 1578.75 19.8701 1569.31 19.8701C1562.11 19.8701 1556.27 19.7841 1556.27 19.6408C1556.27 19.5262 1556.86 19.4402 1557.76 19.4402C1558.51 19.4402 1559.26 19.2682 1559.26 19.0389C1559.26 18.8096 1560.46 18.609 1561.81 18.6377C1563.31 18.6377 1575.45 18.5517 1588.79 18.4084C1606.78 18.2651 1613.22 18.2937 1613.22 18.5517Z" fill="white"/>
<path d="M1855.44 19.0101C1854.99 19.612 1853.04 19.8986 1853.04 19.3541C1853.04 19.0961 1853.64 18.8382 1854.39 18.7522C1855.14 18.6375 1855.59 18.7809 1855.44 19.0101Z" fill="white"/>
<path d="M1700.16 18.752C1698.07 18.8094 1694.02 18.9527 1691.17 19.0387C1686.37 19.182 1686.22 19.2393 1688.62 19.5832C1691.47 19.9845 1692.82 19.9558 1649.2 20.1278C1635.56 20.1851 1627.02 19.8698 1624.32 19.182C1622.82 18.8094 1622.22 18.8094 1619.82 19.1533C1618.32 19.3826 1617.57 19.4399 1618.17 19.2393C1618.77 19.0673 1618.32 18.838 1617.42 18.752C1616.37 18.6661 1624.92 18.6374 1636.46 18.7234C1648 18.7807 1658.04 18.838 1658.94 18.838C1693.42 18.6661 1703.16 18.6661 1700.16 18.752ZM1635.26 19.0673C1636.31 19.1246 1638.41 19.1246 1639.76 19.0673C1641.26 18.9813 1640.36 18.924 1637.96 18.924C1635.41 18.924 1634.36 18.9813 1635.26 19.0673Z" fill="white"/>
<path d="M1879.29 19.1819C1884.68 19.4112 1884.23 19.4685 1875.84 19.5832C1871.64 19.6405 1869.54 19.5832 1869.84 19.3826C1870.59 18.9813 1873.59 18.924 1879.29 19.1819Z" fill="white"/>
<path d="M1867.44 19.1823C1867.89 19.3543 1867.59 19.6409 1866.7 19.8129C1865.5 20.0422 1865.05 19.9562 1865.05 19.4976C1865.05 18.8097 1865.8 18.6951 1867.44 19.1823Z" fill="white"/>
<path d="M1859.64 19.2107C1858.89 19.4399 1859.34 19.4686 1860.99 19.354C1862.49 19.268 1863.54 19.2966 1863.54 19.4399C1863.54 19.6119 1862.19 19.7266 1860.54 19.7266C1858.89 19.7266 1857.54 19.5259 1857.54 19.2966C1857.54 19.0674 1858.29 18.8667 1859.19 18.8667C1859.94 18.8667 1860.24 19.01 1859.64 19.2107Z" fill="white"/>
<path d="M1416.85 19.1822C1431.99 19.5261 1433.79 19.7554 1419.85 19.5548C1413.71 19.4975 1397.22 19.3542 1383.28 19.2968C1369.49 19.2395 1357.65 19.1249 1357.2 19.0389C1356 18.7809 1404.26 18.9242 1416.85 19.1822Z" fill="white"/>
<path d="M1816.63 19.6405C1820.08 19.7265 1821.13 19.8698 1820.53 20.1851C1820.08 20.3857 1819.33 20.529 1818.73 20.443C1818.13 20.3857 1812.28 20.2997 1805.69 20.2711C1792.5 20.2138 1788.15 20.0705 1789.35 19.7552C1790.4 19.4112 1797.59 19.4686 1797.59 19.7838C1797.59 19.9845 1798.19 19.9845 1799.39 19.8125C1801.64 19.4972 1808.09 19.5259 1811.08 19.8698C1812.43 20.0131 1812.73 19.9845 1811.98 19.7838C1811.38 19.5832 1811.08 19.4686 1811.38 19.4972C1811.68 19.4972 1813.93 19.5832 1816.63 19.6405Z" fill="white"/>
<path d="M1712.9 20.0134C1714.85 20.1567 1715 20.2714 1713.65 20.2714C1712.45 20.2714 1710.05 20.1567 1708.4 20.0134C1706.45 19.8701 1706.3 19.7555 1707.65 19.7555C1708.85 19.7555 1711.25 19.8701 1712.9 20.0134Z" fill="white"/>
<path d="M1444.59 20.0131C1446.99 20.2138 1447.14 20.2711 1445.04 20.2711C1443.69 20.2998 1442.04 20.1564 1441.59 20.0131C1440.54 19.6979 1440.54 19.6979 1444.59 20.0131Z" fill="white"/>
<path d="M1514.73 20.6719C1515.63 21.1018 1517.28 21.1592 1529.27 21.0445C1536.62 20.9872 1542.77 21.0445 1542.77 21.1305C1542.77 21.2451 1535.57 21.5031 1526.58 21.6751C1493.9 22.3629 1463.62 21.9044 1461.22 20.6719C1460.62 20.3853 1461.07 20.2993 1463.02 20.414C1468.42 20.7579 1484.16 21.0445 1483.41 20.8152C1482.96 20.6719 1484.46 20.6433 1486.7 20.7579C1489.1 20.8725 1491.95 20.9585 1493.3 20.9299C1498.25 20.8152 1510.24 20.9012 1511.44 21.0159C1512.04 21.1018 1512.79 20.9299 1513.09 20.6719C1513.54 20.1847 1513.69 20.1847 1514.73 20.6719Z" fill="white"/>
<path d="M1458.08 20.5578C1458.53 20.7297 1457.48 20.787 1455.68 20.7297C1451.18 20.5578 1450.13 20.2998 1454.03 20.2998C1455.68 20.2998 1457.48 20.4145 1458.08 20.5578Z" fill="white"/>
<path d="M849.512 20.9014C854.008 21.1021 854.008 21.1021 848.762 21.0734C845.764 21.0734 842.616 21.1594 841.567 21.274C840.518 21.3887 839.768 21.4173 839.768 21.3314C839.768 20.9588 845.464 20.7008 849.512 20.9014Z" fill="white"/>
<path d="M834.522 21.1594C834.971 21.3027 834.372 21.446 833.173 21.446C831.823 21.446 830.774 21.3027 830.774 21.1594C830.774 20.9875 831.374 20.8728 832.123 20.8728C833.023 20.8728 834.072 20.9875 834.522 21.1594Z" fill="white"/>
<path d="M1080.34 23.9672C1080.79 24.0531 1084.39 24.1105 1103.12 24.3971C1108.97 24.4831 1105.22 24.827 1095.78 25.0276C1085.29 25.2569 1052.76 25.2856 1045.86 25.0563C1043.32 24.999 1035.67 24.827 1028.63 24.741C1015.88 24.5404 1011.39 24.2538 1015.73 23.9385C1017.08 23.8239 1018.13 23.8812 1018.13 24.0531C1018.13 24.2251 1018.88 24.2538 1019.93 24.1105C1021.73 23.9098 1079.29 23.7665 1080.34 23.9672Z" fill="white"/>
<path d="M1589.54 24.3111C1598.23 24.483 1603.93 24.7982 1613.07 25.6292C1619.81 26.2596 1625.21 26.8899 1625.21 27.0905C1625.21 27.2911 1624.16 27.377 1622.51 27.2911C1620.86 27.1765 1621.31 27.3197 1623.71 27.7209C1625.81 28.0361 1628.21 28.3226 1629.11 28.3226C1630.01 28.3226 1630.76 28.4945 1630.76 28.7238C1630.76 29.2109 1622.81 29.039 1614.87 28.3799C1608.27 27.8355 1609.02 27.8642 1603.18 27.6063C1600.48 27.4917 1598.53 27.2911 1598.98 27.1765C1599.43 27.0332 1596.58 26.8899 1592.53 26.804C1588.64 26.718 1582.79 26.5461 1579.49 26.4601C1576.2 26.3455 1571.7 26.2596 1569.3 26.2309C1567.05 26.2309 1565.25 26.1449 1565.25 26.059C1565.25 25.973 1561.81 25.8871 1557.76 25.8871C1553.56 25.8871 1550.26 25.7438 1550.41 25.6005C1550.56 25.4286 1551.16 25.3426 1551.91 25.3999C1552.66 25.4286 1553.26 25.3426 1553.26 25.1994C1553.26 25.0561 1551.01 24.8842 1548.46 24.7696C1544.72 24.6263 1543.07 24.7123 1541.72 25.0848C1539.92 25.5432 1539.77 25.5432 1539.77 25.0848C1539.77 24.8269 1538.87 24.569 1537.82 24.569C1536.92 24.5403 1538.42 24.4257 1541.27 24.3398C1548.46 24.0532 1575.6 24.0532 1589.54 24.3111ZM1583.24 25.4286C1583.24 25.9157 1587.14 26.2022 1595.23 26.2882C1609.17 26.4028 1600.63 25.5146 1585.04 25.1994C1584.14 25.1994 1583.24 25.2853 1583.24 25.4286Z" fill="white"/>
<path d="M805.502 24.1993C808.653 24.1957 811.815 24.2285 814.966 24.2607C819.646 24.3086 827.349 24.3723 836.016 24.4252C867.194 24.6545 877.537 24.7692 907.216 25.1418C919.957 25.2851 937.045 25.3997 944.989 25.3424C953.083 25.2851 959.679 25.3424 959.679 25.457C959.679 25.5717 958.18 25.6577 956.231 25.6577C954.283 25.6577 946.038 25.9729 937.794 26.3455C924.603 26.9474 919.657 27.0334 892.226 27.0047C855.502 26.9761 835.116 26.7468 821.026 26.1736C819.378 26.1162 812.632 25.9729 806.037 25.887C778.306 25.5144 772.461 25.4284 760.319 25.1131C745.629 24.7692 741.732 24.3679 752.225 24.3392C756.272 24.3392 770.962 24.2819 784.752 24.2533C793.291 24.2182 800.873 24.2045 805.502 24.1993Z" fill="white"/>
<path d="M1534.53 24.5978C1534.08 24.7411 1533.33 24.8844 1532.88 24.8844C1532.58 24.8844 1532.28 24.7411 1532.28 24.5978C1532.28 24.4258 1533.03 24.3112 1533.93 24.3112C1534.68 24.3112 1534.98 24.4258 1534.53 24.5978Z" fill="white"/>
<path d="M1526.28 24.7121C1526.28 24.9414 1525.38 25.1707 1524.18 25.2567C1522.68 25.3713 1522.38 25.2567 1522.83 24.8554C1523.73 24.2249 1526.28 24.1102 1526.28 24.7121Z" fill="white"/>
<path d="M732.443 24.6264C731.994 24.7698 730.345 24.8844 728.696 24.8844C727.197 24.8844 725.848 24.7698 725.848 24.6264C725.848 24.4831 727.497 24.3685 729.595 24.3685C731.544 24.3685 732.893 24.4831 732.443 24.6264Z" fill="white"/>
<path d="M724.354 24.7125C724.354 24.9131 718.359 25.1137 717.759 24.9131C717.309 24.7985 718.658 24.6838 720.757 24.6552C722.706 24.6265 724.354 24.6552 724.354 24.7125Z" fill="white"/>
<path d="M674.424 24.7986C676.672 24.9419 676.972 25.4578 675.023 25.4578C674.274 25.4578 673.374 25.2571 672.775 25.0278C672.352 24.8125 672.563 24.6373 673.036 24.6757C673.439 24.7083 673.952 24.7534 674.424 24.7986Z" fill="white"/>
<path d="M680.882 25.1712C680.882 25.3145 680.132 25.4578 679.233 25.4578C678.484 25.4578 678.184 25.3145 678.633 25.1712C679.083 24.9992 679.833 24.8845 680.282 24.8845C680.582 24.8845 680.882 24.9992 680.882 25.1712Z" fill="white"/>
<path d="M666.34 25.2858C666.94 25.5724 666.49 25.6584 665.141 25.5438C663.942 25.4578 663.342 25.2858 663.792 25.1425C664.841 24.7986 665.441 24.8272 666.34 25.2858Z" fill="white"/>
<path d="M659.138 25.4574C659.588 25.6007 659.288 25.744 658.539 25.744C657.639 25.744 656.89 25.6007 656.89 25.4574C656.89 25.2854 657.19 25.1708 657.489 25.1708C657.939 25.1708 658.689 25.2854 659.138 25.4574Z" fill="white"/>
<path d="M1835.06 25.8577C1837.91 26.001 1840.76 26.2877 1841.36 26.431C1842.11 26.6316 1842.56 26.6316 1842.56 26.3736C1842.56 26.1157 1843.31 26.087 1845.11 26.2877C1846.61 26.431 1852 26.7176 1857.25 26.8895C1864.29 27.1762 1866.54 27.3768 1866.24 27.6921C1865.64 28.2939 1862.05 28.4946 1862.05 27.9213C1862.05 27.3195 1859.5 27.0902 1856.5 27.4054C1855.15 27.5774 1852.6 27.5774 1850.95 27.4628C1849.15 27.3481 1843.91 27.0328 1839.11 26.7462C1834.46 26.4596 1830.57 26.1157 1830.57 26.001C1830.57 25.8577 1829.67 25.8291 1828.47 25.9151C1827.27 26.001 1825.92 25.9437 1825.47 25.7717C1824.27 25.4278 1827.87 25.4565 1835.06 25.8577Z" fill="white"/>
<path d="M651.643 25.7439C651.194 25.8872 650.444 26.0305 649.994 26.0305C649.695 26.0305 649.395 25.8872 649.395 25.7439C649.395 25.5719 650.144 25.4573 651.044 25.4573C651.793 25.4573 652.093 25.5719 651.643 25.7439Z" fill="white"/>
<path d="M647.898 25.7439C647.898 25.9159 646.848 26.0305 645.649 26.0305C644.45 26.0305 643.401 25.9732 643.401 25.9159C643.401 25.8585 644.45 25.7439 645.649 25.6293C646.848 25.5433 647.898 25.6006 647.898 25.7439Z" fill="white"/>
<path d="M636.659 25.7439C637.109 25.8872 636.809 26.0305 636.059 26.0305C635.16 26.0305 634.41 25.8872 634.41 25.7439C634.41 25.5719 634.71 25.4573 635.01 25.4573C635.46 25.4573 636.209 25.5719 636.659 25.7439Z" fill="white"/>
<path d="M9.64196 27.3772C8.5927 27.4631 7.24365 27.4345 6.79397 27.3486C6.19439 27.2627 7.09375 27.1768 8.74259 27.2054C10.3914 27.2054 10.8411 27.2913 9.64196 27.3772Z" fill="white"/>
<path d="M0.937307 27.2624C1.6024 27.093 1.44449 28.1179 0.823831 27.8249C0.811658 27.8192 0.799476 27.8132 0.787294 27.807C0.337255 27.6064 0.487268 27.3484 0.937307 27.2624Z" fill="white"/>
<path d="M1882.57 28.1225C1885.72 28.4664 1885.42 28.4951 1879.13 28.5524C1873.13 28.5811 1872.68 28.5524 1874.63 28.1798C1877.18 27.6639 1878.23 27.6639 1882.57 28.1225Z" fill="white"/>
<path d="M1190.67 28.1502C1193.85 28.1502 1197.08 28.2797 1200.26 28.3107C1201.83 28.3261 1203.68 28.3404 1205.66 28.3509C1214.35 28.3795 1215.55 28.4655 1219.3 29.268C1221.54 29.7553 1222.89 30.2712 1222.44 30.4145C1221.99 30.5578 1215.7 30.5864 1207.9 30.5005C1200.41 30.3858 1189.17 30.2425 1183.02 30.1565C1176.88 30.0705 1168.18 29.8699 1163.98 29.7266C1159.64 29.5546 1155.44 29.4973 1154.69 29.5833C1153.94 29.6979 1152.89 29.6406 1152.44 29.4973C1151.99 29.3827 1147.2 29.268 1141.8 29.2967C1136.4 29.2967 1132.06 29.2394 1132.06 29.0961C1132.06 28.9814 1131.01 28.8954 1129.81 28.8954C1127.56 28.8954 1126.51 28.3509 1128.61 28.2935C1134.01 28.2076 1181.22 28.1216 1178.07 28.2362C1173.58 28.3795 1172.68 28.7521 1176.43 29.0101C1180.17 29.2967 1190.52 29.2107 1190.52 28.8954C1190.52 28.7235 1189.02 28.6088 1187.22 28.6088C1182.42 28.6088 1185.57 28.1789 1190.67 28.1502Z" fill="white"/>
<path d="M688.371 28.3796C690.02 28.4943 691.369 28.5229 691.369 28.4083C691.369 28.3223 692.569 28.437 693.918 28.6376C695.267 28.8669 696.016 28.8955 695.417 28.7236C694.517 28.4083 701.412 28.4083 716.851 28.7522C728.094 29.0102 727.944 29.0102 729.143 29.3255C730.792 29.7267 730.642 30.042 728.693 30.042C727.944 30.042 727.644 29.87 728.243 29.6694C728.993 29.4401 728.543 29.4688 726.894 29.7267C725.096 29.9847 717.301 30.214 703.061 30.3573C681.027 30.6152 674.281 30.5579 689.721 30.214C699.014 30.0133 702.462 29.6407 697.815 29.3541C690.77 28.9529 660.641 29.1822 642.054 29.784C632.011 30.0993 604.88 30.4719 605.929 30.2426C606.979 30.0707 618.371 29.784 626.765 29.784C631.861 29.7554 633.06 29.6694 632.311 29.3255C631.711 29.0389 632.311 28.9242 634.409 28.9815C636.058 29.0389 637.707 29.1535 638.307 29.2395C638.756 29.3255 641.305 29.2108 643.853 28.9529C653.446 28.0644 653.896 28.0357 653.896 28.3223C653.896 28.5229 654.795 28.5516 656.744 28.351C658.393 28.1504 661.241 28.1504 664.238 28.3223C666.787 28.4656 668.885 28.4656 668.885 28.3223C668.885 28.0357 684.174 28.093 688.371 28.3796Z" fill="white"/>
<path d="M1126.05 28.7238C1126.05 29.0105 1123.96 29.0964 1118.71 29.0678C1110.01 29.0391 1110.46 28.7238 1119.61 28.4946C1124.4 28.3799 1126.05 28.4372 1126.05 28.7238Z" fill="white"/>
<path d="M1636.46 29.3536C1637.96 29.6976 1639.91 29.9269 1640.65 29.8409C1641.25 29.7835 1643.05 29.8122 1644.4 29.9269C1645.75 30.0415 1648 30.1561 1649.35 30.1848C1650.85 30.2135 1652.95 30.4428 1654.44 30.7007C1656.39 31.0733 1657.59 31.1306 1659.99 30.8727C1661.64 30.7007 1662.69 30.672 1662.09 30.844C1661.64 30.9873 1664.04 31.2166 1667.64 31.3313C1671.08 31.4459 1673.18 31.5892 1672.28 31.6465C1671.38 31.7325 1666.59 31.6752 1661.79 31.5032C1656.99 31.3599 1652.8 31.3599 1652.5 31.5032C1651.9 31.7898 1645.6 31.3599 1642.15 30.758C1640.65 30.5001 1637.81 30.0702 1635.86 29.7835C1633.91 29.4969 1632.56 29.153 1632.86 28.981C1633.16 28.8091 1634.81 28.981 1636.46 29.3536Z" fill="white"/>
<path d="M669.188 29.956C668.289 30.0132 666.49 30.0132 665.441 29.956C664.542 29.8701 665.291 29.8128 667.39 29.8128C669.488 29.8128 670.238 29.8701 669.188 29.956Z" fill="white"/>
<path d="M600.687 30.3571C602.936 30.529 602.336 30.5864 597.989 30.5864C594.991 30.615 592.443 30.5577 592.443 30.5004C592.443 30.2424 597.989 30.1565 600.687 30.3571Z" fill="white"/>
<path d="M528.726 30.3275C536.071 30.4135 553.159 30.4708 566.499 30.4708C579.99 30.4708 590.932 30.5568 590.932 30.6715C590.932 30.8148 589.433 30.9008 587.484 30.9294C582.088 30.9581 575.493 31.216 573.094 31.474C565.9 32.2478 611.917 32.1619 641.147 31.3593C665.729 30.6715 668.427 30.8148 646.393 31.6173C641.896 31.7893 624.958 32.3052 618.662 32.4485C577.591 33.5089 560.204 33.6522 554.957 32.993C552.859 32.7351 548.512 32.5058 545.064 32.4771C541.617 32.4485 538.319 32.3625 537.569 32.2765C531.424 31.5886 485.706 31.5313 469.517 32.1905C467.419 32.2765 460.674 32.4771 454.528 32.6204C448.382 32.7924 440.288 33.0217 436.541 33.165C431.744 33.3656 429.196 33.337 427.697 33.1077C425.898 32.8497 425.748 32.8497 426.648 33.1077C427.397 33.3656 426.648 33.4803 424.249 33.5089C422.301 33.5376 419.153 33.5949 417.204 33.6236C415.106 33.6522 412.408 33.4803 411.208 33.251C408.96 32.8497 409.11 32.8211 411.358 32.993C413.007 33.1077 414.056 33.0504 414.056 32.8497C414.056 32.6778 414.506 32.5918 414.956 32.7064C415.405 32.7924 417.204 32.6491 418.703 32.3625C422.75 31.646 466.519 30.3275 466.519 30.9294C466.519 31.0727 465.17 31.1874 463.671 31.1874C462.023 31.1874 460.224 31.302 459.774 31.474C459.175 31.646 461.573 31.7606 465.62 31.7606C469.367 31.7606 472.515 31.6173 472.515 31.474C472.515 31.302 471.466 31.1874 470.267 31.1874C469.068 31.1874 468.018 31.0727 468.018 30.9294C468.018 30.3849 502.794 30.0123 528.726 30.3275ZM482.558 30.7861C475.063 31.0441 475.513 31.474 483.308 31.474C490.952 31.474 496.498 31.216 496.498 30.8721C496.498 30.5855 490.652 30.5568 482.558 30.7861Z" fill="white"/>
<path d="M671.425 30.8154C670.076 30.8727 667.678 30.8727 666.179 30.8154C664.83 30.7296 666.029 30.6723 668.877 30.6723C671.725 30.6723 672.924 30.7296 671.425 30.8154Z" fill="white"/>
<path d="M1679.48 31.9621C1678.58 32.0193 1676.78 32.0193 1675.73 31.9621C1674.83 31.8762 1675.58 31.8189 1677.68 31.8189C1679.78 31.8189 1680.53 31.8762 1679.48 31.9621Z" fill="white"/>
<path d="M1569 33.1652C1569.45 33.3085 1569.15 33.5092 1568.25 33.6238C1567.5 33.7098 1566.75 33.5951 1566.75 33.3658C1566.75 32.8499 1567.65 32.764 1569 33.1652Z" fill="white"/>
<path d="M1617.72 33.767C1619.51 33.9963 1619.51 34.0536 1616.97 34.0536C1615.32 34.0536 1612.92 33.9103 1611.72 33.767C1609.92 33.5377 1609.92 33.4804 1612.47 33.4804C1614.12 33.4804 1616.52 33.6237 1617.72 33.767Z" fill="white"/>
<path d="M948.436 34.1106C952.933 34.5691 953.083 34.6265 950.685 34.9131C947.687 35.2857 945.738 35.257 946.937 34.9131C947.537 34.7411 947.087 34.4258 946.188 34.1965C943.939 33.6806 944.389 33.6806 948.436 34.1106Z" fill="white"/>
<path d="M943.79 34.5116C944.239 34.7409 944.09 34.8555 943.34 34.7695C942.591 34.6836 941.541 34.7409 940.942 34.9128C940.492 35.0562 938.394 35.1995 936.295 35.1995C934.047 35.1995 932.847 35.0848 933.447 34.8842C934.047 34.7122 935.396 34.6549 936.595 34.7409C937.794 34.8269 938.693 34.7695 938.693 34.6549C938.693 34.1963 942.89 34.0817 943.79 34.5116Z" fill="white"/>
<path d="M1389.28 35.3717C1388.83 35.6297 1388.38 35.8876 1388.38 35.9449C1388.38 36.0022 1387.03 36.0596 1385.39 36.0596C1381.64 36.0596 1381.49 35.601 1385.24 35.1997C1389.28 34.7985 1390.33 34.8271 1389.28 35.3717Z" fill="white"/>
<path d="M1380.88 35.6867C1380.88 35.8874 1379.23 36.0593 1377.28 36.0593C1375.34 36.0593 1373.09 35.8874 1372.19 35.6867C1370.84 35.4001 1371.74 35.3141 1375.78 35.3141C1378.93 35.3141 1380.88 35.4574 1380.88 35.6867Z" fill="white"/>
<path d="M194.771 35.4C197.769 35.6006 197.019 36.0305 193.872 35.9732C192.223 35.9732 191.323 35.8012 191.773 35.5719C192.449 35.2702 193.192 35.2574 193.93 35.3228C194.201 35.3468 194.493 35.3734 194.771 35.4Z" fill="white"/>
<path d="M182.325 35.5722C182.99 35.4028 182.832 36.4277 182.212 36.1347C182.2 36.129 182.187 36.123 182.175 36.1168C181.725 35.9162 181.875 35.6582 182.325 35.5722Z" fill="white"/>
<path d="M178.732 35.7727C180.531 36.002 180.231 36.0593 177.533 36.0593C175.585 36.0593 174.535 35.9447 174.985 35.7727C176.034 35.4288 175.884 35.4288 178.732 35.7727Z" fill="white"/>
<path d="M170.026 35.8296C171.525 36.0015 171.525 36.0589 169.876 36.0589C168.677 36.0589 168.227 36.2308 168.827 36.4888C169.426 36.8327 169.126 36.8614 166.878 36.6608C165.079 36.4601 163.58 36.4888 162.381 36.7181C161.332 36.9187 160.582 36.9187 160.732 36.7754C161.332 36.1735 160.582 35.9442 159.383 36.3168C158.634 36.5461 155.636 36.7181 152.638 36.7467C147.242 36.7754 145.593 36.5174 149.04 36.2595C150.539 36.1449 150.539 36.0875 149.04 36.0875C147.841 36.0589 146.642 36.3168 146.192 36.6321C145.443 37.1193 144.993 37.148 142.595 36.8041C139.297 36.3741 131.803 36.5461 133.152 37.0334C133.601 37.2053 133.002 37.1193 131.803 36.8614C130.154 36.4601 129.404 36.4315 127.755 36.7181C126.706 36.9187 126.256 36.9187 126.706 36.7467C127.306 36.5461 125.807 36.4601 122.059 36.5174C120.459 36.5327 119.03 36.5889 118.067 36.6641C117.203 36.7316 116.631 37.2053 115.764 37.2053C114.648 37.2053 113.842 36.308 112.757 36.5652C112.544 36.6156 112.299 36.676 112.017 36.7467C110.817 37.062 109.768 37.1767 109.768 37.0334C109.768 36.8041 106.92 36.7467 100.325 36.89C99.7252 36.9187 97.7765 37.2053 95.9778 37.5493C93.8793 37.9505 93.1298 38.0078 93.7294 37.7212C94.4789 37.32 93.8793 37.2913 89.982 37.5206C87.4338 37.6352 84.7357 37.6926 84.1361 37.6066C83.3867 37.5206 82.7871 37.6352 82.7871 37.8359C82.7871 38.0652 82.3374 38.0938 81.5879 37.9219C80.9883 37.7499 79.3395 37.6066 77.8406 37.5779C75.8919 37.5493 75.2924 37.6926 76.0418 38.0078C76.7913 38.4091 76.6414 38.4378 75.1425 38.1225C73.0439 37.7499 66.2987 37.6352 66.2987 38.0078C66.2987 38.1225 63.4507 38.1798 60.0031 38.1225L53.7076 38.0078L57.9046 37.5779C61.8018 37.1767 68.0974 36.9474 76.3416 36.8327C78.2903 36.8327 79.7892 36.7181 79.7892 36.6034C79.7892 36.5174 82.7871 36.4028 86.3846 36.4028C92.3803 36.3741 95.8279 36.2882 105.121 35.9156C107.07 35.8582 111.267 35.8869 114.415 36.0302C117.563 36.1735 120.261 36.1735 120.561 36.0302C120.86 35.9156 126.256 35.7436 132.702 35.6576C140.946 35.5716 144.094 35.6003 143.344 35.8296C142.595 36.0302 143.045 36.0589 144.394 35.8869C147.092 35.5716 167.627 35.5143 170.026 35.8296Z" fill="white"/>
<path d="M1425.85 36.0304C1425.85 36.2023 1423.16 36.2883 1419.86 36.2883C1416.56 36.2883 1414.31 36.1737 1414.76 36.0304C1415.81 35.6864 1425.85 35.6864 1425.85 36.0304Z" fill="white"/>
<path d="M1249.87 36.4031C1250.92 36.7183 1249.12 37.2056 1247.02 37.2056C1245.97 37.2056 1246.12 37.0909 1247.47 36.919C1249.42 36.661 1249.42 36.6323 1247.47 36.6037C1246.27 36.575 1244.02 36.575 1242.53 36.6037C1241.18 36.6323 1239.98 36.5177 1239.98 36.3457C1239.98 36.0018 1248.82 36.0591 1249.87 36.4031Z" fill="white"/>
<path d="M1238.49 36.3458C1238.49 36.4891 1237.74 36.6324 1236.99 36.6324C1236.09 36.6324 1235.49 36.4891 1235.49 36.3458C1235.49 36.1739 1236.09 36.0592 1236.99 36.0592C1237.74 36.0592 1238.49 36.1739 1238.49 36.3458Z" fill="white"/>
<path d="M1718.73 37.0905C1719.48 37.4631 1719.03 37.5204 1716.33 37.3771C1714.39 37.2911 1710.34 37.2052 1707.19 37.2052C1703.74 37.2052 1701.8 37.0905 1702.39 36.9185C1702.84 36.7466 1706.59 36.6319 1710.64 36.6319C1715.89 36.6319 1718.13 36.7466 1718.73 37.0905Z" fill="white"/>
<path d="M1263.82 36.7185C1265.41 36.7185 1265.16 37.3626 1263.57 37.3898C1262.28 37.4118 1260.98 37.2898 1260.98 37.0337C1260.98 36.8331 1262.32 36.6898 1263.82 36.7185Z" fill="white"/>
<path d="M1259.17 36.9762C1258.87 37.1482 1257.67 37.3774 1256.77 37.4348C1255.72 37.4921 1255.27 37.3774 1255.87 37.0908C1256.92 36.5749 1260.07 36.4603 1259.17 36.9762Z" fill="white"/>
<path d="M1253.47 37.0334C1253.47 37.2913 1252.72 37.4919 1251.97 37.4919C1251.07 37.4919 1250.47 37.3773 1250.47 37.234C1250.47 37.062 1251.07 36.8614 1251.97 36.7754C1252.72 36.6894 1253.47 36.8041 1253.47 37.0334Z" fill="white"/>
<path d="M1275.06 37.2623C1278.06 37.5776 1278.21 38.3514 1275.21 38.3514C1273.86 38.3514 1271.46 38.1222 1269.81 37.8069C1266.97 37.291 1266.97 37.2623 1269.66 37.1477C1271.31 37.0617 1273.71 37.119 1275.06 37.2623Z" fill="white"/>
<path d="M104.386 37.148C104.686 37.2627 104.536 37.5493 103.636 37.7786C102.587 38.1225 102.287 38.0652 102.287 37.5493C102.287 36.8901 103.037 36.7468 104.386 37.148Z" fill="white"/>
<path d="M1289.44 38.0362C1289.44 38.1796 1288.4 38.3515 1287.2 38.4662C1285.85 38.5522 1284.95 38.4662 1284.95 38.2082C1284.95 37.9789 1286 37.7783 1287.2 37.7783C1288.4 37.7783 1289.44 37.8929 1289.44 38.0362Z" fill="white"/>
<path d="M1143.44 37.9792C1142.99 38.0939 1140.9 38.2085 1139.1 38.2658C1136.55 38.3232 1136.25 38.2945 1138.05 38.0652C1140.6 37.7499 1145.09 37.664 1143.44 37.9792Z" fill="white"/>
<path d="M1134.16 38.0077C1135.51 38.409 1135.66 38.409 1128.61 38.4663C1123.37 38.5523 1121.87 38.3803 1123.97 37.979C1124.42 37.8931 1126.51 37.9217 1128.31 38.065C1129.34 38.1386 1130.17 38.1755 1130.83 38.1756C1131.96 38.1758 1133.07 37.6949 1134.16 38.0077Z" fill="white"/>
<path d="M1120.66 38.0365C1121.11 38.1798 1119.91 38.3517 1117.81 38.4091C1113.31 38.581 1113.01 38.4664 1116.91 38.0651C1118.56 37.8932 1120.21 37.8932 1120.66 38.0365Z" fill="white"/>
<path d="M1109.57 38.1796C1109.57 38.5522 1107.92 38.6381 1101.62 38.6381C1097.43 38.6668 1082.29 38.7241 1068.35 38.8101C1054.26 38.8961 1043.47 38.8674 1044.07 38.7528C1045.56 38.4662 1048.71 38.3229 1057.86 38.1796C1066.7 38.0363 1096.68 38.0363 1102.07 38.1796C1104.17 38.2369 1106.72 38.1509 1107.62 37.9789C1108.97 37.7783 1109.57 37.8356 1109.57 38.1796Z" fill="white"/>
<path d="M620.908 38.3517C622.257 38.5237 622.407 38.6383 621.357 38.6383C620.458 38.6383 619.109 38.495 618.659 38.3517C617.46 38.0078 618.06 38.0078 620.908 38.3517Z" fill="white"/>
<path d="M61.8115 39.5549C61.8115 39.7269 61.3618 39.7842 60.7623 39.6982C60.3126 39.5836 58.9635 39.6409 57.7644 39.8415C56.1155 40.0708 55.9656 40.0421 56.7151 39.6695C57.7644 39.1536 61.8115 39.039 61.8115 39.5549Z" fill="white"/>
<path d="M55.8147 39.3256C55.8147 39.4116 53.8661 39.6695 51.4678 39.9275C48.32 40.2141 46.0716 40.2714 43.5233 40.0994C40.3756 39.8415 40.3756 39.8128 43.0737 39.7555C44.7225 39.7268 47.1208 39.6982 48.32 39.7268C49.5191 39.7268 51.6177 39.6122 53.1166 39.4689C54.6155 39.3256 55.8147 39.2683 55.8147 39.3256Z" fill="white"/>
<path d="M779.812 39.4975C781.011 40.2427 780.861 40.6726 779.512 40.4147C778.613 40.2427 778.313 39.9561 778.763 39.7268C779.212 39.5262 779.662 39.4115 779.812 39.4975Z" fill="white"/>
<path d="M832.268 40.0134C832.268 40.128 830.919 40.2426 829.27 40.2713C827.621 40.3 826.572 40.214 827.021 40.042C828.071 39.7267 832.268 39.6981 832.268 40.0134Z" fill="white"/>
<path d="M819.526 40.0707C819.976 40.214 819.676 40.3573 818.926 40.3573C818.027 40.3573 817.278 40.214 817.278 40.0707C817.278 39.8987 817.577 39.7841 817.877 39.7841C818.327 39.7841 819.076 39.8987 819.526 40.0707Z" fill="white"/>
<path d="M804.546 40.0993C809.943 40.3286 809.493 40.386 801.848 40.4719C798.401 40.5293 796.302 40.4146 796.302 40.214C796.302 39.8414 797.951 39.8127 804.546 40.0993Z" fill="white"/>
<path d="M792.249 39.9843C794.497 40.4143 792.998 40.6436 788.051 40.6436C784.454 40.6436 782.805 40.5002 782.805 40.2136C782.805 39.6977 785.203 39.6404 786.253 40.1277C786.89 40.4323 787.459 39.9236 788.162 39.8497C789.305 39.7294 791.146 39.7543 792.249 39.9843Z" fill="white"/>
<path d="M1.55286 41.2167C1.55286 41.6179 1.25283 41.7612 0.802792 41.5606C0.292859 41.2683 1.39786 40.4946 1.53621 41.0658C1.54718 41.1111 1.55286 41.1615 1.55286 41.2167Z" fill="white"/>
<path d="M371.35 47.8066C370.9 47.95 370.151 48.0933 369.701 48.0933C369.401 48.0933 369.102 47.95 369.102 47.8066C369.102 47.6347 369.851 47.52 370.751 47.52C371.5 47.52 371.8 47.6347 371.35 47.8066Z" fill="white"/>
<path d="M0.941213 49.3259C1.6063 49.1565 1.44839 50.1814 0.827737 49.8884C0.815564 49.8826 0.803382 49.8767 0.7912 49.8705C0.341161 49.6698 0.491174 49.4119 0.941213 49.3259Z" fill="white"/>
</svg>
